<svg xmlns="http://www.w3.org/2000/svg" width="28" height="32" viewBox="0 0 32 32" fill="none">
  <path d="M21.9996 9.00002C21.9058 9.09298 21.8314 9.20359 21.7807 9.32545C21.7299 9.4473 21.7038 9.57801 21.7038 9.71002C21.7038 9.84203 21.7299 9.97274 21.7807 10.0946C21.8314 10.2165 21.9058 10.3271 21.9996 10.42L26.5996 15.02H3.05957C2.79435 15.02 2.54 15.1254 2.35246 15.3129C2.16493 15.5005 2.05957 15.7548 2.05957 16.02C2.05957 16.2852 2.16493 16.5396 2.35246 16.7271C2.54 16.9147 2.79435 17.02 3.05957 17.02H26.5796L21.9996 21.59C21.8133 21.7774 21.7088 22.0308 21.7088 22.295C21.7088 22.5592 21.8133 22.8127 21.9996 23C22.1869 23.1863 22.4404 23.2908 22.7046 23.2908C22.9688 23.2908 23.2222 23.1863 23.4096 23L29.7696 16.64C29.8552 16.5579 29.9233 16.4593 29.9698 16.3502C30.0163 16.2411 30.0403 16.1237 30.0403 16.005C30.0403 15.8864 30.0163 15.769 29.9698 15.6599C29.9233 15.5507 29.8552 15.4522 29.7696 15.37L23.4196 9.00002C23.3266 8.90629 23.216 8.8319 23.0941 8.78113C22.9723 8.73036 22.8416 8.70422 22.7096 8.70422C22.5776 8.70422 22.4469 8.73036 22.325 8.78113C22.2031 8.8319 22.0925 8.90629 21.9996 9.00002Z" fill="white"/>
</svg>