<svg width="16" height="18" viewBox="0 0 16 18" fill="none" xmlns="http://www.w3.org/2000/svg">
<path fillRule="evenodd" clip-rule="evenodd" d="M7.43844 1.84766C6.152 2.00797 4.94262 2.71953 4.02012 3.87266C2.96544 5.19102 2.37256 6.97977 2.37256 8.84516V13.0625H1.76337C0.832437 13.0625 0.078125 14.0054 0.078125 15.1691V15.1719C0.078125 16.3355 0.832437 17.2784 1.76337 17.2784H2.93281L2.93506 17.2812H13.0623L13.0651 17.2784H14.1896C15.1205 17.2784 15.8748 16.3355 15.8748 15.1719V15.1691C15.8748 14.0054 15.1205 13.0625 14.1896 13.0625H13.6248V8.84516C13.6248 6.97977 13.0319 5.19102 11.9767 3.87266C11.0559 2.72094 9.84819 2.01008 8.56344 1.84836V1.10938C8.56344 0.72125 8.31144 0.40625 8.00094 0.40625C7.69044 0.40625 7.43844 0.72125 7.43844 1.10938V1.84766Z" fill="#fff"/>
</svg>
