<svg width="18" height="23" viewBox="0 0 18 23" fill="none" xmlns="http://www.w3.org/2000/svg">
<path fill-rule="evenodd" clip-rule="evenodd" d="M8.43844 2.84766C7.152 3.00797 5.94262 3.71953 5.02012 4.87266C3.96544 6.19102 3.37256 7.97977 3.37256 9.84516V14.0625H2.76337C1.83244 14.0625 1.07812 15.0054 1.07812 16.1691V16.1719C1.07812 17.3355 1.83244 18.2784 2.76337 18.2784H3.93281L3.93506 18.2812H14.0623L14.0651 18.2784H15.1896C16.1205 18.2784 16.8748 17.3355 16.8748 16.1719V16.1691C16.8748 15.0054 16.1205 14.0625 15.1896 14.0625H14.6248V9.84516C14.6248 7.97977 14.0319 6.19102 12.9767 4.87266C12.0559 3.72094 10.8482 3.01008 9.56344 2.84836V2.10938C9.56344 1.72125 9.31144 1.40625 9.00094 1.40625C8.69044 1.40625 8.43844 1.72125 8.43844 2.10938V2.84766Z" fill="black"/>
<path fill-rule="evenodd" clip-rule="evenodd" d="M10.5906 19.6875H7.40625C7.63856 20.5066 8.26406 21.0938 8.99869 21.0938C9.73331 21.0938 10.3588 20.5066 10.5906 19.6875Z" fill="black"/>
</svg>
