<svg xmlns="http://www.w3.org/2000/svg" width="18" height="23" viewBox="0 0 22 28" fill="none">
  <path fillRule="evenodd" clip-rule="evenodd" d="M10.3143 3.48047C8.74198 3.67641 7.26386 4.54609 6.13636 5.95547C4.8473 7.5668 4.12267 9.75305 4.12267 12.033V17.1875H3.37811C2.2403 17.1875 1.31836 18.3399 1.31836 19.7622V19.7656C1.31836 21.1879 2.2403 22.3403 3.37811 22.3403H4.80742L4.81017 22.3438H17.1879L17.1914 22.3403H18.5657C19.7035 22.3403 20.6254 21.1879 20.6254 19.7656V19.7622C20.6254 18.3399 19.7035 17.1875 18.5657 17.1875H17.8754V12.033C17.8754 9.75305 17.1508 7.5668 15.861 5.95547C14.7356 4.54781 13.2595 3.67898 11.6893 3.48133V2.57812C11.6893 2.10375 11.3813 1.71875 11.0018 1.71875C10.6223 1.71875 10.3143 2.10375 10.3143 2.57812V3.48047Z" fill="white"/>
  <path fillRule="evenodd" clip-rule="evenodd" d="M12.9447 24.0625H9.05273C9.33667 25.0637 10.1012 25.7812 10.999 25.7812C11.8969 25.7812 12.6614 25.0637 12.9447 24.0625Z" fill="white"/>
</svg>