<svg xmlns="http://www.w3.org/2000/svg" width="20" height="20" viewBox="0 0 20 20" fill="none">
  <g clip-path="url(#clip0_4522_3887)">
    <path d="M16.25 16.25H3.75C3.25272 16.25 2.77581 16.0525 2.42417 15.7008C2.07254 15.3492 1.875 14.8723 1.875 14.375V5.625C1.875 5.12772 2.07254 4.65081 2.42417 4.29917C2.77581 3.94754 3.25272 3.75 3.75 3.75H16.25C16.7473 3.75 17.2242 3.94754 17.5758 4.29917C17.9275 4.65081 18.125 5.12772 18.125 5.625V14.375C18.125 14.8723 17.9275 15.3492 17.5758 15.7008C17.2242 16.0525 16.7473 16.25 16.25 16.25ZM3.75 5C3.58424 5 3.42527 5.06585 3.30806 5.18306C3.19085 5.30027 3.125 5.45924 3.125 5.625V14.375C3.125 14.5408 3.19085 14.6997 3.30806 14.8169C3.42527 14.9342 3.58424 15 3.75 15H16.25C16.4158 15 16.5747 14.9342 16.6919 14.8169C16.8092 14.6997 16.875 14.5408 16.875 14.375V5.625C16.875 5.45924 16.8092 5.30027 16.6919 5.18306C16.5747 5.06585 16.4158 5 16.25 5H3.75Z" fill="#F1B325"/>
    <path d="M8.75 13.75H5C4.83424 13.75 4.67527 13.6842 4.55806 13.5669C4.44085 13.4497 4.375 13.2908 4.375 13.125C4.375 12.9592 4.44085 12.8003 4.55806 12.6831C4.67527 12.5658 4.83424 12.5 5 12.5H8.75C8.91576 12.5 9.07473 12.5658 9.19194 12.6831C9.30915 12.8003 9.375 12.9592 9.375 13.125C9.375 13.2908 9.30915 13.4497 9.19194 13.5669C9.07473 13.6842 8.91576 13.75 8.75 13.75Z" fill="#F1B325"/>
    <path d="M17.5 8.125H2.5C2.33424 8.125 2.17527 8.05915 2.05806 7.94194C1.94085 7.82473 1.875 7.66576 1.875 7.5C1.875 7.33424 1.94085 7.17527 2.05806 7.05806C2.17527 6.94085 2.33424 6.875 2.5 6.875H17.5C17.6658 6.875 17.8247 6.94085 17.9419 7.05806C18.0592 7.17527 18.125 7.33424 18.125 7.5C18.125 7.66576 18.0592 7.82473 17.9419 7.94194C17.8247 8.05915 17.6658 8.125 17.5 8.125Z" fill="#F1B325"/>
  </g>
  <defs>
    <clipPath id="clip0_4522_3887">
      <rect width="20" height="20" fill="white"/>
    </clipPath>
  </defs>
</svg>