<svg width="17" height="17" viewBox="0 0 17 17" fill="none" xmlns="http://www.w3.org/2000/svg">
<path d="M14.8743 9.91699C14.6865 9.91699 14.5063 9.99162 14.3735 10.1245C14.2406 10.2573 14.166 10.4375 14.166 10.6253V13.4587C14.166 13.6465 14.0914 13.8267 13.9585 13.9595C13.8257 14.0924 13.6455 14.167 13.4577 14.167H3.54102C3.35315 14.167 3.17299 14.0924 3.04015 13.9595C2.90731 13.8267 2.83268 13.6465 2.83268 13.4587V10.6253C2.83268 10.4375 2.75805 10.2573 2.62522 10.1245C2.49238 9.99162 2.31221 9.91699 2.12435 9.91699C1.93649 9.91699 1.75632 9.99162 1.62348 10.1245C1.49064 10.2573 1.41602 10.4375 1.41602 10.6253V13.4587C1.41602 14.0222 1.6399 14.5627 2.03841 14.9613C2.43693 15.3598 2.97743 15.5837 3.54102 15.5837H13.4577C14.0213 15.5837 14.5618 15.3598 14.9603 14.9613C15.3588 14.5627 15.5827 14.0222 15.5827 13.4587V10.6253C15.5827 10.4375 15.5081 10.2573 15.3752 10.1245C15.2424 9.99162 15.0622 9.91699 14.8743 9.91699ZM7.99643 11.1282C8.0638 11.1927 8.14323 11.2433 8.23018 11.277C8.31497 11.3145 8.40665 11.3338 8.49935 11.3338C8.59205 11.3338 8.68373 11.3145 8.76852 11.277C8.85546 11.2433 8.9349 11.1927 9.00226 11.1282L11.8356 8.29491C11.969 8.16153 12.0439 7.98062 12.0439 7.79199C12.0439 7.60336 11.969 7.42246 11.8356 7.28907C11.7022 7.15569 11.5213 7.08076 11.3327 7.08076C11.1441 7.08076 10.9631 7.15569 10.8298 7.28907L9.20768 8.91824V2.12533C9.20768 1.93746 9.13305 1.7573 9.00022 1.62446C8.86738 1.49162 8.68721 1.41699 8.49935 1.41699C8.31149 1.41699 8.13132 1.49162 7.99848 1.62446C7.86564 1.7573 7.79101 1.93746 7.79101 2.12533V8.91824L6.16893 7.28907C6.10289 7.22303 6.02448 7.17064 5.93819 7.1349C5.8519 7.09916 5.75942 7.08076 5.66602 7.08076C5.57261 7.08076 5.48013 7.09916 5.39384 7.1349C5.30755 7.17064 5.22914 7.22303 5.1631 7.28907C5.09705 7.35512 5.04467 7.43352 5.00892 7.51981C4.97318 7.60611 4.95478 7.69859 4.95478 7.79199C4.95478 7.88539 4.97318 7.97788 5.00892 8.06417C5.04467 8.15046 5.09705 8.22886 5.1631 8.29491L7.99643 11.1282Z" fill="#409EEE"/>
</svg>
