<svg width="20" height="20" viewBox="0 0 20 20" fill="none" xmlns="http://www.w3.org/2000/svg">
<path d="M13.457 11.6211C14.043 10.6992 14.3867 9.60547 14.3867 8.42969C14.3867 5.14453 11.7266 2.48047 8.44531 2.48047C5.16016 2.48047 2.5 5.14453 2.5 8.42969C2.5 11.7148 5.16016 14.3789 8.44141 14.3789C9.63281 14.3789 10.7422 14.0273 11.6719 13.4258L11.9414 13.2383L16.1836 17.4805L17.5 16.1406L13.2617 11.8984L13.457 11.6211ZM11.7734 5.10547C12.6602 5.99219 13.1484 7.17188 13.1484 8.42578C13.1484 9.67969 12.6602 10.8594 11.7734 11.7461C10.8867 12.6328 9.70703 13.1211 8.45312 13.1211C7.19922 13.1211 6.01953 12.6328 5.13281 11.7461C4.24609 10.8594 3.75781 9.67969 3.75781 8.42578C3.75781 7.17188 4.24609 5.99219 5.13281 5.10547C6.01953 4.21875 7.19922 3.73047 8.45312 3.73047C9.70703 3.73047 10.8867 4.21875 11.7734 5.10547Z" fill="#409EEE"/>
</svg>
