<svg width="17" height="11" viewBox="0 0 17 11" fill="none" xmlns="http://www.w3.org/2000/svg">
<path d="M0.169922 5.49989C0.952935 3.96395 2.14536 2.67441 3.61542 1.77377C5.08547 0.873141 6.77591 0.396484 8.49992 0.396484C10.2239 0.396484 11.9144 0.873141 13.3844 1.77377C14.8545 2.67441 16.0469 3.96395 16.8299 5.49989C16.0469 7.03582 14.8545 8.32536 13.3844 9.226C11.9144 10.1266 10.2239 10.6033 8.49992 10.6033C6.77591 10.6033 5.08547 10.1266 3.61542 9.226C2.14536 8.32536 0.952935 7.03582 0.169922 5.49989ZM8.49992 8.89989C9.40166 8.89989 10.2665 8.54167 10.9041 7.90405C11.5417 7.26643 11.8999 6.40162 11.8999 5.49989C11.8999 4.59815 11.5417 3.73335 10.9041 3.09572C10.2665 2.4581 9.40166 2.09989 8.49992 2.09989C7.59819 2.09989 6.73338 2.4581 6.09576 3.09572C5.45814 3.73335 5.09992 4.59815 5.09992 5.49989C5.09992 6.40162 5.45814 7.26643 6.09576 7.90405C6.73338 8.54167 7.59819 8.89989 8.49992 8.89989ZM8.49992 7.19989C8.04905 7.19989 7.61665 7.02078 7.29784 6.70197C6.97903 6.38316 6.79992 5.95075 6.79992 5.49989C6.79992 5.04902 6.97903 4.61662 7.29784 4.2978C7.61665 3.97899 8.04905 3.79989 8.49992 3.79989C8.95079 3.79989 9.38319 3.97899 9.702 4.2978C10.0208 4.61662 10.1999 5.04902 10.1999 5.49989C10.1999 5.95075 10.0208 6.38316 9.702 6.70197C9.38319 7.02078 8.95079 7.19989 8.49992 7.19989Z" fill="#409EEE"/>
</svg>
