<svg width="16" height="16" viewBox="0 0 16 16" fill="none" xmlns="http://www.w3.org/2000/svg">
<g id="9004671_calendar_date_schedule_event_icon 1" clip-path="url(#clip0_4380_1742)">
<path id="Vector" d="M13.3333 1.33333H12.6667V0.666667C12.6667 0.489856 12.5964 0.320286 12.4714 0.195262C12.3464 0.0702379 12.1768 0 12 0C11.8232 0 11.6536 0.0702379 11.5286 0.195262C11.4036 0.320286 11.3333 0.489856 11.3333 0.666667V1.33333H4.66667V0.666667C4.66667 0.489856 4.59643 0.320286 4.4714 0.195262C4.34638 0.0702379 4.17681 0 4 0C3.82319 0 3.65362 0.0702379 3.5286 0.195262C3.40357 0.320286 3.33333 0.489856 3.33333 0.666667V1.33333H2.66667C1.95942 1.33333 1.28115 1.61428 0.781049 2.11438C0.280952 2.61448 0 3.29276 0 4L0 13.3333C0 14.0406 0.280952 14.7189 0.781049 15.219C1.28115 15.719 1.95942 16 2.66667 16H13.3333C14.0406 16 14.7189 15.719 15.219 15.219C15.719 14.7189 16 14.0406 16 13.3333V4C16 3.29276 15.719 2.61448 15.219 2.11438C14.7189 1.61428 14.0406 1.33333 13.3333 1.33333ZM14.6667 13.3333C14.6667 13.687 14.5262 14.0261 14.2761 14.2761C14.0261 14.5262 13.687 14.6667 13.3333 14.6667H2.66667C2.31304 14.6667 1.97391 14.5262 1.72386 14.2761C1.47381 14.0261 1.33333 13.687 1.33333 13.3333V4C1.33333 3.64638 1.47381 3.30724 1.72386 3.05719C1.97391 2.80714 2.31304 2.66667 2.66667 2.66667H3.33333V3.33333C3.33333 3.51014 3.40357 3.67971 3.5286 3.80474C3.65362 3.92976 3.82319 4 4 4C4.17681 4 4.34638 3.92976 4.4714 3.80474C4.59643 3.67971 4.66667 3.51014 4.66667 3.33333V2.66667H11.3333V3.33333C11.3333 3.51014 11.4036 3.67971 11.5286 3.80474C11.6536 3.92976 11.8232 4 12 4C12.1768 4 12.3464 3.92976 12.4714 3.80474C12.5964 3.67971 12.6667 3.51014 12.6667 3.33333V2.66667H13.3333C13.687 2.66667 14.0261 2.80714 14.2761 3.05719C14.5262 3.30724 14.6667 3.64638 14.6667 4V13.3333Z" fill="white"/>
<path id="Vector_2" d="M12.667 4.66675H3.33366C3.15685 4.66675 2.98728 4.73699 2.86225 4.86201C2.73723 4.98703 2.66699 5.1566 2.66699 5.33341C2.66699 5.51023 2.73723 5.67979 2.86225 5.80482C2.98728 5.92984 3.15685 6.00008 3.33366 6.00008H12.667C12.8438 6.00008 13.0134 5.92984 13.1384 5.80482C13.2634 5.67979 13.3337 5.51023 13.3337 5.33341C13.3337 5.1566 13.2634 4.98703 13.1384 4.86201C13.0134 4.73699 12.8438 4.66675 12.667 4.66675Z" fill="white"/>
<path id="Vector_3" d="M4.66699 8H3.33366C3.15685 8 2.98728 8.07024 2.86225 8.19526C2.73723 8.32029 2.66699 8.48986 2.66699 8.66667C2.66699 8.84348 2.73723 9.01305 2.86225 9.13807C2.98728 9.2631 3.15685 9.33333 3.33366 9.33333H4.66699C4.8438 9.33333 5.01337 9.2631 5.1384 9.13807C5.26342 9.01305 5.33366 8.84348 5.33366 8.66667C5.33366 8.48986 5.26342 8.32029 5.1384 8.19526C5.01337 8.07024 4.8438 8 4.66699 8Z" fill="white"/>
<path id="Vector_4" d="M4.66699 11.3333H3.33366C3.15685 11.3333 2.98728 11.4035 2.86225 11.5285C2.73723 11.6535 2.66699 11.8231 2.66699 11.9999C2.66699 12.1767 2.73723 12.3463 2.86225 12.4713C2.98728 12.5963 3.15685 12.6666 3.33366 12.6666H4.66699C4.8438 12.6666 5.01337 12.5963 5.1384 12.4713C5.26342 12.3463 5.33366 12.1767 5.33366 11.9999C5.33366 11.8231 5.26342 11.6535 5.1384 11.5285C5.01337 11.4035 4.8438 11.3333 4.66699 11.3333Z" fill="white"/>
<path id="Vector_5" d="M8.66699 8H7.33366C7.15685 8 6.98728 8.07024 6.86225 8.19526C6.73723 8.32029 6.66699 8.48986 6.66699 8.66667C6.66699 8.84348 6.73723 9.01305 6.86225 9.13807C6.98728 9.2631 7.15685 9.33333 7.33366 9.33333H8.66699C8.8438 9.33333 9.01337 9.2631 9.1384 9.13807C9.26342 9.01305 9.33366 8.84348 9.33366 8.66667C9.33366 8.48986 9.26342 8.32029 9.1384 8.19526C9.01337 8.07024 8.8438 8 8.66699 8Z" fill="white"/>
<path id="Vector_6" d="M8.66699 11.3333H7.33366C7.15685 11.3333 6.98728 11.4035 6.86225 11.5285C6.73723 11.6535 6.66699 11.8231 6.66699 11.9999C6.66699 12.1767 6.73723 12.3463 6.86225 12.4713C6.98728 12.5963 7.15685 12.6666 7.33366 12.6666H8.66699C8.8438 12.6666 9.01337 12.5963 9.1384 12.4713C9.26342 12.3463 9.33366 12.1767 9.33366 11.9999C9.33366 11.8231 9.26342 11.6535 9.1384 11.5285C9.01337 11.4035 8.8438 11.3333 8.66699 11.3333Z" fill="white"/>
<path id="Vector_7" d="M12.667 8H11.3337C11.1568 8 10.9873 8.07024 10.8623 8.19526C10.7372 8.32029 10.667 8.48986 10.667 8.66667C10.667 8.84348 10.7372 9.01305 10.8623 9.13807C10.9873 9.2631 11.1568 9.33333 11.3337 9.33333H12.667C12.8438 9.33333 13.0134 9.2631 13.1384 9.13807C13.2634 9.01305 13.3337 8.84348 13.3337 8.66667C13.3337 8.48986 13.2634 8.32029 13.1384 8.19526C13.0134 8.07024 12.8438 8 12.667 8Z" fill="white"/>
<path id="Vector_8" d="M12.667 11.3333H11.3337C11.1568 11.3333 10.9873 11.4035 10.8623 11.5285C10.7372 11.6535 10.667 11.8231 10.667 11.9999C10.667 12.1767 10.7372 12.3463 10.8623 12.4713C10.9873 12.5963 11.1568 12.6666 11.3337 12.6666H12.667C12.8438 12.6666 13.0134 12.5963 13.1384 12.4713C13.2634 12.3463 13.3337 12.1767 13.3337 11.9999C13.3337 11.8231 13.2634 11.6535 13.1384 11.5285C13.0134 11.4035 12.8438 11.3333 12.667 11.3333Z" fill="white"/>
</g>
<defs>
<clipPath id="clip0_4380_1742">
<rect width="16" height="16" fill="white"/>
</clipPath>
</defs>
</svg>
