<svg width="24" height="18" viewBox="0 0 24 18" fill="none" xmlns="http://www.w3.org/2000/svg">
<g clip-path="url(#clip0_10240_21429)">
<path opacity="0.3" d="M15.9282 1.56641H1.46939C0.793469 1.56641 0 2.34518 0 3.03579V14.0562C0 14.7468 0.793469 15.5256 1.46939 15.5256H19.8367C20.5127 15.5256 21.3061 14.7468 21.3061 14.0562V8.52396C20.6872 9.08071 19.9228 9.45015 19.102 9.58926V9.64804C19.102 10.1329 18.8376 10.3827 18.3673 10.3827H2.20408C1.73388 10.3827 1.46939 10.1329 1.46939 9.64804V8.91335C1.46939 8.42845 1.73388 8.17865 2.20408 8.17865H15.0833C14.6592 7.70865 14.3416 7.15255 14.1524 6.54843C13.9632 5.94431 13.9068 5.30643 13.9871 4.67848C14.0673 4.05052 14.2823 3.44733 14.6173 2.91019C14.9523 2.37305 15.3995 1.91466 15.9282 1.56641V1.56641Z" fill="#697386"/>
<path d="M14.209 3.76953H0V5.97361H14.018C13.8945 5.23457 13.9602 4.47632 14.209 3.76953Z" fill="#697386"/>
</g>
<path d="M18.8567 10.8934C17.4928 10.8934 16.1846 10.3195 15.2202 9.29807C14.2557 8.27662 13.7139 6.89123 13.7139 5.44668C13.7139 4.00213 14.2557 2.61675 15.2202 1.5953C16.1846 0.573845 17.4928 0 18.8567 0C20.2207 0 21.5288 0.573845 22.4933 1.5953C23.4577 2.61675 23.9996 4.00213 23.9996 5.44668C23.9996 6.89123 23.4577 8.27662 22.4933 9.29807C21.5288 10.3195 20.2207 10.8934 18.8567 10.8934ZM16.8143 3.1902H16.2339L14.8159 3.95274V4.73083L15.94 4.10836V7.70317H16.8216V3.1902H16.8143ZM18.5041 3.81268C18.9228 3.81268 19.2167 4.06167 19.2167 4.41959C19.2167 4.80864 18.8714 5.08098 18.3718 5.08098H18.1514V5.74236H18.4159C18.9449 5.74236 19.3049 6.02248 19.3049 6.42709C19.3049 6.81614 18.9522 7.08069 18.4526 7.08069C18.0853 7.08069 17.7179 6.95619 17.3359 6.71498V7.49308C17.7473 7.67982 18.1588 7.78098 18.5628 7.78098C19.5253 7.78098 20.1865 7.25965 20.1865 6.5049C20.1865 5.97579 19.8779 5.54784 19.3637 5.37666C19.8045 5.22104 20.091 4.80864 20.091 4.34178C20.091 3.61037 19.4812 3.11239 18.5996 3.11239C18.2022 3.11706 17.8098 3.20706 17.4461 3.37694V4.13948C17.7988 3.92939 18.1588 3.81268 18.5041 3.81268ZM21.6779 5.50893C22.2143 5.50893 22.589 5.84351 22.589 6.27925C22.589 6.73833 22.2143 7.05735 21.6779 7.05735C21.3547 7.05735 21.0167 6.94841 20.6714 6.72276V7.5242C21.0314 7.69539 21.3988 7.78098 21.7588 7.78098C21.9498 7.78098 22.1261 7.74985 22.2951 7.70317C22.6771 7.04178 22.8975 6.27925 22.8975 5.46225L22.8828 5.13544C22.6097 4.9642 22.2965 4.87791 21.9792 4.88645C21.8469 4.88645 21.7073 4.89423 21.5604 4.91758V3.90605H22.6184C22.5266 3.65699 22.4135 3.41737 22.2804 3.1902H20.7963V5.64121C21.0902 5.5634 21.3841 5.50893 21.6779 5.50893Z" fill="#697386"/>
<defs>
<clipPath id="clip0_10240_21429">
<rect width="23.5102" height="15.4286" fill="white" transform="translate(0 1.56641)"/>
</clipPath>
</defs>
</svg>


