<svg width="40" height="40" viewBox="0 0 44 44" fill="none" xmlns="http://www.w3.org/2000/svg">
<circle cx="22" cy="22" r="22" fill="#409EEE" fill-opacity="0.25"/>
<g clip-path="url(#clip0_11338_21743)">
<path d="M29.5 13.25H28.875C28.875 13.0842 28.8092 12.9253 28.6919 12.8081C28.5747 12.6908 28.4158 12.625 28.25 12.625C28.0842 12.625 27.9253 12.6908 27.8081 12.8081C27.6908 12.9253 27.625 13.0842 27.625 13.25H22.625C22.625 13.0842 22.5592 12.9253 22.4419 12.8081C22.3247 12.6908 22.1658 12.625 22 12.625C21.8342 12.625 21.6753 12.6908 21.5581 12.8081C21.4408 12.9253 21.375 13.0842 21.375 13.25H16.375C16.375 13.0842 16.3092 12.9253 16.1919 12.8081C16.0747 12.6908 15.9158 12.625 15.75 12.625C15.5842 12.625 15.4253 12.6908 15.3081 12.8081C15.1908 12.9253 15.125 13.0842 15.125 13.25H14.5C13.8372 13.2508 13.2017 13.5144 12.7331 13.9831C12.2644 14.4517 12.0008 15.0872 12 15.75V29.5C12.0008 30.1628 12.2644 30.7982 12.7331 31.2669C13.2017 31.7356 13.8372 31.9992 14.5 32H29.5C30.1628 31.9992 30.7982 31.7356 31.2669 31.2669C31.7356 30.7982 31.9992 30.1628 32 29.5V15.75C31.9992 15.0872 31.7356 14.4517 31.2669 13.9831C30.7982 13.5144 30.1628 13.2508 29.5 13.25ZM13.25 15.75C13.25 15.4185 13.3817 15.1005 13.6161 14.8661C13.8505 14.6317 14.1685 14.5 14.5 14.5H15.125V15.75C15.125 15.9158 15.1908 16.0747 15.3081 16.1919C15.4253 16.3092 15.5842 16.375 15.75 16.375C15.9158 16.375 16.0747 16.3092 16.1919 16.1919C16.3092 16.0747 16.375 15.9158 16.375 15.75V14.5H21.375V15.75C21.375 15.9158 21.4408 16.0747 21.5581 16.1919C21.6753 16.3092 21.8342 16.375 22 16.375C22.1658 16.375 22.3247 16.3092 22.4419 16.1919C22.5592 16.0747 22.625 15.9158 22.625 15.75V14.5H27.625V15.75C27.625 15.9158 27.6908 16.0747 27.8081 16.1919C27.9253 16.3092 28.0842 16.375 28.25 16.375C28.4158 16.375 28.5747 16.3092 28.6919 16.1919C28.8092 16.0747 28.875 15.9158 28.875 15.75V14.5H29.5C29.8315 14.5 30.1495 14.6317 30.3839 14.8661C30.6183 15.1005 30.75 15.4185 30.75 15.75V17.625H13.25V15.75ZM30.75 29.5C30.75 29.8315 30.6183 30.1495 30.3839 30.3839C30.1495 30.6183 29.8315 30.75 29.5 30.75H14.5C14.1685 30.75 13.8505 30.6183 13.6161 30.3839C13.3817 30.1495 13.25 29.8315 13.25 29.5V18.875H30.75V29.5Z" fill="#4DA9F7"/>
<path d="M22 29.5C22.9889 29.5 23.9556 29.2068 24.7779 28.6574C25.6001 28.1079 26.241 27.3271 26.6194 26.4134C26.9978 25.4998 27.0969 24.4945 26.9039 23.5246C26.711 22.5546 26.2348 21.6637 25.5355 20.9645C24.8363 20.2652 23.9454 19.789 22.9755 19.5961C22.0055 19.4031 21.0002 19.5022 20.0866 19.8806C19.173 20.259 18.3921 20.8999 17.8427 21.7222C17.2932 22.5444 17 23.5111 17 24.5C17.0015 25.8256 17.5288 27.0965 18.4661 28.0339C19.4035 28.9713 20.6744 29.4985 22 29.5ZM22 20.75C22.7417 20.75 23.4667 20.9699 24.0834 21.382C24.7001 21.794 25.1807 22.3797 25.4645 23.0649C25.7484 23.7502 25.8226 24.5042 25.6779 25.2316C25.5333 25.959 25.1761 26.6272 24.6517 27.1517C24.1272 27.6761 23.459 28.0333 22.7316 28.1779C22.0042 28.3226 21.2502 28.2484 20.5649 27.9646C19.8797 27.6807 19.294 27.2001 18.882 26.5834C18.4699 25.9667 18.25 25.2417 18.25 24.5C18.2511 23.5058 18.6465 22.5526 19.3496 21.8496C20.0526 21.1465 21.0058 20.7511 22 20.75Z" fill="#4DA9F7"/>
<path d="M22 25.75H23.25C23.4158 25.75 23.5747 25.6842 23.6919 25.5669C23.8092 25.4497 23.875 25.2908 23.875 25.125C23.875 24.9592 23.8092 24.8003 23.6919 24.6831C23.5747 24.5658 23.4158 24.5 23.25 24.5H22.625V22.625C22.625 22.4592 22.5592 22.3003 22.4419 22.1831C22.3247 22.0658 22.1658 22 22 22C21.8342 22 21.6753 22.0658 21.5581 22.1831C21.4408 22.3003 21.375 22.4592 21.375 22.625V25.125C21.375 25.2908 21.4408 25.4497 21.5581 25.5669C21.6753 25.6842 21.8342 25.75 22 25.75Z" fill="#4DA9F7"/>
</g>
<defs>
<clipPath id="clip0_11338_21743">
<rect width="20" height="20" fill="white" transform="translate(12 12)"/>
</clipPath>
</defs>
</svg>
