<svg xmlns="http://www.w3.org/2000/svg" width="30" height="30" viewBox="0 0 30 30" fill="none">
  <g clip-path="url(#clip0_4318_680)">
    <path d="M13.5938 10.3125H16.4062V7.96875H18.75V5.15625H16.4062V2.8125H13.5938V5.15625H11.25V7.96875H13.5938V10.3125ZM12.1875 7.03125V6.09375H14.5312V3.75H15.4688V6.09375H17.8125V7.03125H15.4688V9.375H14.5312V7.03125H12.1875Z" fill="black"/>
    <path d="M29.0625 8.4375V4.6875H20.2969C19.9108 3.59096 19.1939 2.64128 18.2451 1.96949C17.2964 1.29769 16.1625 0.936905 15 0.936905C13.8375 0.936905 12.7036 1.29769 11.7549 1.96949C10.8061 2.64128 10.0892 3.59096 9.70312 4.6875H0.9375V8.4375H3.28125V25.7813H0.9375V29.0625H29.0625V25.7813H26.7188V8.4375H29.0625ZM28.125 5.625V7.5H20.5403C20.5947 7.19042 20.6231 6.87682 20.625 6.5625C20.6231 6.24818 20.5947 5.93457 20.5403 5.625H28.125ZM15 1.87499C15.9271 1.87499 16.8334 2.14991 17.6042 2.66498C18.3751 3.18005 18.9759 3.91214 19.3307 4.76867C19.6855 5.6252 19.7783 6.5677 19.5974 7.47698C19.4166 8.38627 18.9701 9.2215 18.3146 9.87706C17.659 10.5326 16.8238 10.9791 15.9145 11.1599C15.0052 11.3408 14.0627 11.248 13.2062 10.8932C12.3496 10.5384 11.6176 9.93759 11.1025 9.16673C10.5874 8.39588 10.3125 7.4896 10.3125 6.5625C10.3139 5.31972 10.8082 4.12823 11.687 3.24945C12.5657 2.37067 13.7572 1.87637 15 1.87499ZM1.875 7.5V5.625H9.4597C9.40527 5.93457 9.37694 6.24818 9.375 6.5625C9.37694 6.87682 9.40527 7.19042 9.4597 7.5H1.875ZM28.125 26.7188V28.125H1.875V26.7188H28.125ZM18.2812 25.7813H11.7188V21.5625C11.7188 20.6923 12.0645 19.8577 12.6798 19.2423C13.2952 18.627 14.1298 18.2812 15 18.2812C15.8702 18.2812 16.7048 18.627 17.3202 19.2423C17.9355 19.8577 18.2812 20.6923 18.2812 21.5625V25.7813ZM25.7812 25.7813H19.2188V21.5625C19.2188 20.4436 18.7743 19.3706 17.9831 18.5794C17.1919 17.7882 16.1189 17.3438 15 17.3438C13.8811 17.3438 12.8081 17.7882 12.0169 18.5794C11.2257 19.3706 10.7812 20.4436 10.7812 21.5625V25.7813H4.21875V8.4375H9.70312C10.0892 9.53403 10.8061 10.4837 11.7549 11.1555C12.7036 11.8273 13.8375 12.1881 15 12.1881C16.1625 12.1881 17.2964 11.8273 18.2451 11.1555C19.1939 10.4837 19.9108 9.53403 20.2969 8.4375H25.7812V25.7813Z" fill="black"/>
    <path d="M21.0938 13.125H8.90625V14.0625H21.0938V13.125Z" fill="black"/>
    <path d="M21.0938 15H8.90625V15.9375H21.0938V15Z" fill="black"/>
  </g>
  <defs>
    <clipPath id="clip0_4318_680">
      <rect width="30" height="30" fill="white"/>
    </clipPath>
  </defs>
</svg>