<svg width="30" height="30" viewBox="0 0 30 30" fill="none" xmlns="http://www.w3.org/2000/svg">
<g clip-path="url(#clip0_7269_2214)">
<path d="M13.5938 10.3125H16.4062V7.96875H18.75V5.15625H16.4062V2.8125H13.5938V5.15625H11.25V7.96875H13.5938V10.3125ZM12.1875 7.03125V6.09375H14.5312V3.75H15.4688V6.09375H17.8125V7.03125H15.4688V9.375H14.5312V7.03125H12.1875Z" fill="white"/>
<path d="M29.0625 8.4376V4.6876H20.2969C19.9108 3.59107 19.1939 2.64139 18.2451 1.96959C17.2964 1.2978 16.1625 0.937012 15 0.937012C13.8375 0.937012 12.7036 1.2978 11.7549 1.96959C10.8061 2.64139 10.0892 3.59107 9.70312 4.6876H0.9375V8.4376H3.28125V25.7814H0.9375V29.0626H29.0625V25.7814H26.7188V8.4376H29.0625ZM28.125 5.6251V7.5001H20.5403C20.5947 7.19053 20.6231 6.87692 20.625 6.5626C20.6231 6.24828 20.5947 5.93468 20.5403 5.6251H28.125ZM15 1.8751C15.9271 1.8751 16.8334 2.15002 17.6042 2.66509C18.3751 3.18016 18.9759 3.91224 19.3307 4.76877C19.6855 5.6253 19.7783 6.5678 19.5974 7.47709C19.4166 8.38638 18.9701 9.22161 18.3146 9.87717C17.659 10.5327 16.8238 10.9792 15.9145 11.16C15.0052 11.3409 14.0627 11.2481 13.2062 10.8933C12.3496 10.5385 11.6176 9.9377 11.1025 9.16684C10.5874 8.39598 10.3125 7.4897 10.3125 6.5626C10.3139 5.31982 10.8082 4.12834 11.687 3.24956C12.5657 2.37078 13.7572 1.87648 15 1.8751ZM1.875 7.5001V5.6251H9.4597C9.40527 5.93468 9.37694 6.24828 9.375 6.5626C9.37694 6.87692 9.40527 7.19053 9.4597 7.5001H1.875ZM28.125 26.7189V28.1251H1.875V26.7189H28.125ZM18.2812 25.7814H11.7188V21.5626C11.7188 20.6924 12.0645 19.8578 12.6798 19.2424C13.2952 18.6271 14.1298 18.2814 15 18.2814C15.8702 18.2814 16.7048 18.6271 17.3202 19.2424C17.9355 19.8578 18.2812 20.6924 18.2812 21.5626V25.7814ZM25.7812 25.7814H19.2188V21.5626C19.2188 20.4437 18.7743 19.3707 17.9831 18.5795C17.1919 17.7883 16.1189 17.3439 15 17.3439C13.8811 17.3439 12.8081 17.7883 12.0169 18.5795C11.2257 19.3707 10.7812 20.4437 10.7812 21.5626V25.7814H4.21875V8.4376H9.70312C10.0892 9.53414 10.8061 10.4838 11.7549 11.1556C12.7036 11.8274 13.8375 12.1882 15 12.1882C16.1625 12.1882 17.2964 11.8274 18.2451 11.1556C19.1939 10.4838 19.9108 9.53414 20.2969 8.4376H25.7812V25.7814Z" fill="white"/>
<path d="M21.0938 13.125H8.90625V14.0625H21.0938V13.125Z" fill="white"/>
<path d="M21.0938 15H8.90625V15.9375H21.0938V15Z" fill="white"/>
</g>
<defs>
<clipPath id="clip0_7269_2214">
<rect width="30" height="30" fill="white"/>
</clipPath>
</defs>
</svg>
