<svg width="14" height="18" viewBox="0 0 14 18" fill="none" xmlns="http://www.w3.org/2000/svg">
<path id="Vector" d="M4.61338 17.8182C5.84666 17.8182 7.01142 17.2661 7.90212 16.2671L10.7798 12.9545C10.9853 12.7179 10.9853 12.2972 10.7798 12.0606C10.5742 11.824 10.2088 11.824 10.0033 12.0606L7.12561 15.3469C6.4633 16.1093 5.57259 16.53 4.61338 16.53C3.65416 16.53 2.7863 16.1093 2.10114 15.3469C1.41599 14.5845 1.07341 13.5592 1.07341 12.455C1.07341 11.3508 1.43883 10.3518 2.10114 9.56306L8.61011 2.07035C9.08972 1.51826 9.70636 1.22907 10.3915 1.22907C11.0538 1.22907 11.6933 1.51826 12.1729 2.07035C12.6525 2.62245 12.9038 3.33228 12.9038 4.12099C12.9038 4.8834 12.6525 5.61953 12.1729 6.17162L5.64111 13.6906C5.07015 14.3479 4.11093 14.3479 3.53997 13.6906C3.26591 13.3751 3.10604 12.9282 3.10604 12.4813C3.10604 12.0343 3.26591 11.5874 3.53997 11.2719L6.44046 7.93307C6.646 7.69646 6.646 7.27581 6.44046 7.0392C6.23491 6.80259 5.8695 6.80259 5.66395 7.0392L2.7863 10.3781C2.30669 10.9302 2.03263 11.6926 2.03263 12.4813C2.03263 13.27 2.30669 14.0324 2.7863 14.5845C3.79119 15.7413 5.43556 15.7413 6.44046 14.5845L12.9494 7.09178C13.6346 6.30307 14 5.27776 14 4.14728C14 3.0168 13.6346 1.99148 12.9494 1.20278C11.5563 -0.400926 9.24959 -0.400926 7.85644 1.20278L1.34747 8.69548C0.479608 9.69451 0 11.0353 0 12.4813C0 13.9009 0.479608 15.2417 1.34747 16.2671C2.21533 17.2661 3.3801 17.8182 4.61338 17.8182Z" fill="#66859E"/>
</svg>
