<svg xmlns="http://www.w3.org/2000/svg" width="34" height="34" viewBox="0 0 34 34" fill="none">
  <path fillRule="evenodd" clip-rule="evenodd" d="M4.65625 5.78125H3.0625C2.476 5.78125 2 6.25725 2 6.84375C2 7.43025 2.476 7.90625 3.0625 7.90625H4.65625V11.0938H3.0625C2.476 11.0938 2 11.5697 2 12.1562C2 12.7428 2.476 13.2188 3.0625 13.2188H4.65625V16.4062H3.0625C2.476 16.4062 2 16.8822 2 17.4688C2 18.0553 2.476 18.5312 3.0625 18.5312H4.65625V21.7188H3.0625C2.476 21.7188 2 22.1947 2 22.7812C2 23.3678 2.476 23.8438 3.0625 23.8438H4.65625V27.0312H3.0625C2.476 27.0312 2 27.5072 2 28.0938C2 28.6803 2.476 29.1562 3.0625 29.1562H4.65625V32.875C4.65625 33.462 5.13172 33.9375 5.71875 33.9375H32.8125C33.3995 33.9375 33.875 33.462 33.875 32.875V2.0625C33.875 1.47547 33.3995 1 32.8125 1H5.71875C5.13172 1 4.65625 1.47547 4.65625 2.0625V5.78125ZM6.25 27.0312H8.375C8.9615 27.0312 9.4375 27.5072 9.4375 28.0938C9.4375 28.6803 8.9615 29.1562 8.375 29.1562H6.25V27.0312ZM26.0863 19.7308C26.0863 17.601 24.3603 15.875 22.2305 15.875H18.2547C16.1249 15.875 14.3988 17.601 14.3988 19.7308V26.5887C14.3988 27.1263 14.835 27.5625 15.3726 27.5625H25.1126C25.6502 27.5625 26.0863 27.1263 26.0863 26.5887V19.7308ZM6.25 21.7188H8.375C8.9615 21.7188 9.4375 22.1947 9.4375 22.7812C9.4375 23.3678 8.9615 23.8438 8.375 23.8438H6.25V21.7188ZM6.25 16.4062H8.375C8.9615 16.4062 9.4375 16.8822 9.4375 17.4688C9.4375 18.0553 8.9615 18.5312 8.375 18.5312H6.25V16.4062ZM19.8909 13.75H20.5938C21.8666 13.75 22.8983 12.6886 22.8983 11.379V9.74544C22.8983 8.43644 21.8666 7.375 20.5938 7.375H19.8909C18.618 7.375 17.5858 8.43644 17.5858 9.74544V11.379C17.5858 12.6886 18.618 13.75 19.8909 13.75ZM6.25 11.0938H8.375C8.9615 11.0938 9.4375 11.5697 9.4375 12.1562C9.4375 12.7428 8.9615 13.2188 8.375 13.2188H6.25V11.0938ZM6.25 5.78125H8.375C8.9615 5.78125 9.4375 6.25725 9.4375 6.84375C9.4375 7.43025 8.9615 7.90625 8.375 7.90625H6.25V5.78125Z" fill="white"/>
</svg>