<svg width="14" height="12" viewBox="0 0 14 12" fill="none" xmlns="http://www.w3.org/2000/svg">
<path d="M0.333008 4.33333V0.666667C0.333008 0.489856 0.403246 0.320286 0.52827 0.195262C0.653294 0.0702379 0.822863 0 0.999674 0H12.9997C13.1765 0 13.3461 0.0702379 13.4711 0.195262C13.5961 0.320286 13.6663 0.489856 13.6663 0.666667V4.33333C13.2243 4.33333 12.8004 4.50893 12.4878 4.82149C12.1753 5.13405 11.9997 5.55797 11.9997 6C11.9997 6.44203 12.1753 6.86595 12.4878 7.17851C12.8004 7.49107 13.2243 7.66667 13.6663 7.66667V11.3333C13.6663 11.5101 13.5961 11.6797 13.4711 11.8047C13.3461 11.9298 13.1765 12 12.9997 12H0.999674C0.822863 12 0.653294 11.9298 0.52827 11.8047C0.403246 11.6797 0.333008 11.5101 0.333008 11.3333V7.66667C0.775035 7.66667 1.19896 7.49107 1.51152 7.17851C1.82408 6.86595 1.99967 6.44203 1.99967 6C1.99967 5.55797 1.82408 5.13405 1.51152 4.82149C1.19896 4.50893 0.775035 4.33333 0.333008 4.33333ZM1.66634 3.312C2.16715 3.5602 2.58866 3.94337 2.88334 4.41831C3.17803 4.89324 3.33418 5.44107 3.33418 6C3.33418 6.55894 3.17803 7.10676 2.88334 7.58169C2.58866 8.05663 2.16715 8.4398 1.66634 8.688V10.6667H12.333V8.688C11.8322 8.4398 11.4107 8.05663 11.116 7.58169C10.8213 7.10676 10.6652 6.55894 10.6652 6C10.6652 5.44107 10.8213 4.89324 11.116 4.41831C11.4107 3.94337 11.8322 3.5602 12.333 3.312V1.33333H1.66634V3.312ZM4.99967 4H8.99967V5.33333H4.99967V4ZM4.99967 6.66667H8.99967V8H4.99967V6.66667Z" fill="#409EEE"/>
</svg>
