<!-- <svg xmlns="http://www.w3.org/2000/svg" viewBox="0 0 32 32" id="cross"><g data-name="Layer 51"><path d="M16 2a14 14 0 1 0 14 14A14 14 0 0 0 16 2Zm0 26a12 12 0 1 1 12-12 12 12 0 0 1-12 12Z"></path><path d="M22.71 9.29a1 1 0 0 0-1.42 0L16 14.59l-5.29-5.3a1 1 0 0 0-1.42 1.42l5.3 5.29-5.3 5.29a1 1 0 0 0 0 1.42 1 1 0 0 0 1.42 0l5.29-5.3 5.29 5.3a1 1 0 0 0 1.42 0 1 1 0 0 0 0-1.42L17.41 16l5.3-5.29a1 1 0 0 0 0-1.42Z"></path></g></svg> -->

<svg xmlns="http://www.w3.org/2000/svg" viewBox="0 0 64 64" id="cross">
    <g data-name="Layer 51">
        <path d="M32 4a28 28 0 1 0 28 28A28 28 0 0 0 32 4Zm0 52a24 24 0 1 1 24-24 24 24 0 0 1-24 24Z"></path>
        <path d="M45.42 18.58a2 2 0 0 0-2.84 0L32 29.18l-10.58-10.6a2 2 0 0 0-2.84 2.84l10.6 10.58-10.6 10.58a2 2 0 0 0 0 2.84 2 2 0 0 0 2.84 0l10.58-10.6 10.58 10.6a2 2 0 0 0 2.84 0 2 2 0 0 0 0-2.84L34.82 32l10.6-10.58a2 2 0 0 0 0-2.84Z"></path>
    </g>
</svg>
