<svg xmlns="http://www.w3.org/2000/svg" width="20" height="20" viewBox="0 0 20 20" fill="none">
  <path d="M4.41699 15.5834C4.58366 15.7501 4.75033 15.8334 5.00033 15.8334C5.25033 15.8334 5.41699 15.7501 5.58366 15.5834L10.0003 11.1667L14.417 15.5834C14.5837 15.7501 14.8337 15.8334 15.0003 15.8334C15.167 15.8334 15.417 15.7501 15.5837 15.5834C15.917 15.2501 15.917 14.7501 15.5837 14.4167L11.167 10.0001L15.5837 5.58341C15.917 5.25008 15.917 4.75008 15.5837 4.41675C15.2503 4.08341 14.7503 4.08341 14.417 4.41675L10.0003 8.83342L5.58366 4.41675C5.25033 4.08341 4.75033 4.08341 4.41699 4.41675C4.08366 4.75008 4.08366 5.25008 4.41699 5.58341L8.83366 10.0001L4.41699 14.4167C4.08366 14.7501 4.08366 15.2501 4.41699 15.5834Z" fill="white"/>
</svg>