<svg width="72" height="72" viewBox="0 0 72 72" fill="none" xmlns="http://www.w3.org/2000/svg">
<circle cx="36" cy="36" r="36" fill="#409EEE"/>
<path d="M24.4 33.1C26.0016 33.1 27.3 31.8017 27.3 30.2C27.3 28.5984 26.0016 27.3 24.4 27.3C22.7984 27.3 21.5 28.5984 21.5 30.2C21.5 31.8017 22.7984 33.1 24.4 33.1Z" fill="#0A22A8"/>
<path d="M36 38.9C37.6016 38.9 38.9 37.6016 38.9 36C38.9 34.3984 37.6016 33.1 36 33.1C34.3984 33.1 33.1 34.3984 33.1 36C33.1 37.6016 34.3984 38.9 36 38.9Z" fill="#0A22A8"/>
<path d="M44.7 47.6C44.7 49.2016 43.4017 50.5 41.8 50.5C40.1984 50.5 38.9 49.2016 38.9 47.6C38.9 45.9983 40.1984 44.7 41.8 44.7C43.4017 44.7 44.7 45.9983 44.7 47.6Z" fill="#0A22A8"/>
<path d="M27.3 47.6C28.9016 47.6 30.2 46.3017 30.2 44.7C30.2 43.0984 28.9016 41.8 27.3 41.8C25.6984 41.8 24.4 43.0984 24.4 44.7C24.4 46.3017 25.6984 47.6 27.3 47.6Z" fill="#0A22A8"/>
<path d="M36 12.8C23.187 12.8 12.8 23.187 12.8 36C12.8 48.8131 23.187 59.2 36 59.2C48.8131 59.2 59.2 48.8131 59.2 36C59.2 34.5754 59.0715 33.1796 58.8247 31.8238C58.7253 31.2766 58.3216 30.8346 57.7857 30.686C57.2497 30.5373 56.6761 30.7084 56.309 31.1262C55.2438 32.3384 53.6868 33.1 51.95 33.1C48.7466 33.1 46.15 30.5033 46.15 27.3C46.15 26.5344 45.6175 25.876 44.8763 25.7101C42.2852 25.1302 40.35 22.8144 40.35 20.05C40.35 18.4183 41.0219 16.946 42.108 15.8904C42.487 15.5221 42.6355 14.9767 42.4957 14.467C42.3559 13.9574 41.9496 13.5641 41.4357 13.4407C39.6908 13.0217 37.8702 12.8 36 12.8ZM15.7 36C15.7 24.7887 24.7886 15.7 36 15.7C36.8561 15.7 37.6991 15.7529 38.5262 15.8556C37.8406 17.0994 37.45 18.5296 37.45 20.05C37.45 23.8593 39.897 27.0942 43.3036 28.2734C43.7876 32.6201 47.4741 36 51.95 36C53.5212 36 54.9959 35.5827 56.2681 34.854C56.2893 35.2332 56.3 35.6153 56.3 36C56.3 47.2114 47.2114 56.3 36 56.3C24.7886 56.3 15.7 47.2114 15.7 36Z" fill="#0A22A8"/>
</svg>
