<svg width="24" height="30" viewBox="0 0 24 30" fill="none" xmlns="http://www.w3.org/2000/svg">
<path d="M0 25.395C0.0259661 23.4255 0.827032 21.5453 2.22988 20.1614C3.63272 18.7774 5.52454 18.001 7.496 18H16.504C18.4755 18.001 20.3672 18.7775 21.7701 20.1614C23.1729 21.5454 23.974 23.4255 24 25.395C20.7074 28.3594 16.4323 30 12 30C7.56775 30 3.29264 28.3594 0 25.395ZM18.756 6.75C18.756 8.08503 18.3598 9.39007 17.6174 10.5001C16.875 11.6101 15.8199 12.4753 14.5854 12.9862C13.3509 13.4971 11.9925 13.6308 10.682 13.3703C9.37143 13.1099 8.16763 12.467 7.22279 11.523C6.27795 10.579 5.6345 9.37624 5.37382 8.06687C5.11314 6.75749 5.24693 5.40029 5.75827 4.16689C6.26962 2.93349 7.13555 1.87928 8.24657 1.13758C9.35759 0.395881 10.6638 0 12 0C13.7918 0 15.5102 0.71116 16.7772 1.97703C18.0442 3.2429 18.756 4.95979 18.756 6.75Z" fill="white"/>
</svg>
