<svg width="34" height="34" viewBox="0 0 34 34" fill="none" xmlns="http://www.w3.org/2000/svg">
<circle cx="17" cy="17" r="17" fill="#000001"/>
<path d="M14.4219 13.8721H15.4531V22.1221H14.4219V13.8721Z" fill="#FF0000"/>
<path d="M16.4844 13.8721H17.5156V22.1221H16.4844V13.8721Z" fill="#FF0000"/>
<path d="M18.5469 13.8721H19.5781V22.1221H18.5469V13.8721Z" fill="#FF0000"/>
<path d="M10.2969 10.7783H23.7031V11.8096H10.2969V10.7783Z" fill="#FF0000"/>
<path d="M19.5445 11.2937H18.582V10.2625C18.582 9.95312 18.3414 9.7125 18.032 9.7125H15.9695C15.6602 9.7125 15.4195 9.95312 15.4195 10.2625V11.2937H14.457V10.2625C14.457 9.4375 15.1445 8.75 15.9695 8.75H18.032C18.857 8.75 19.5445 9.4375 19.5445 10.2625V11.2937Z" fill="#FF0000"/>
<path d="M20.0938 25.216H13.9062C13.0812 25.216 12.3594 24.5285 12.2906 23.7035L11.3281 11.3285L12.3594 11.2598L13.3219 23.6348C13.3563 23.9441 13.6312 24.1848 13.9062 24.1848H20.0938C20.4031 24.1848 20.6781 23.9098 20.6781 23.6348L21.6406 11.2598L22.6719 11.3285L21.7094 23.7035C21.6406 24.5629 20.9187 25.216 20.0938 25.216Z" fill="#FF0000"/>
</svg>
