<svg width="20" height="20" viewBox="0 0 16 16" fill="none" xmlns="http://www.w3.org/2000/svg">
<g clip-path="url(#clip0_4522_1757)">
<path d="M10 14.5H6C5.33696 14.5 4.70107 14.2366 4.23223 13.7678C3.76339 13.2989 3.5 12.663 3.5 12V6C3.5 5.86739 3.55268 5.74021 3.64645 5.64645C3.74021 5.55268 3.86739 5.5 4 5.5C4.13261 5.5 4.25979 5.55268 4.35355 5.64645C4.44732 5.74021 4.5 5.86739 4.5 6V12C4.5 12.3978 4.65804 12.7794 4.93934 13.0607C5.22064 13.342 5.60218 13.5 6 13.5H10C10.3978 13.5 10.7794 13.342 11.0607 13.0607C11.342 12.7794 11.5 12.3978 11.5 12V6C11.5 5.86739 11.5527 5.74021 11.6464 5.64645C11.7402 5.55268 11.8674 5.5 12 5.5C12.1326 5.5 12.2598 5.55268 12.3536 5.64645C12.4473 5.74021 12.5 5.86739 12.5 6V12C12.5 12.663 12.2366 13.2989 11.7678 13.7678C11.2989 14.2366 10.663 14.5 10 14.5Z" fill="#FF3232"/>
<path d="M13 4.5H3C2.86739 4.5 2.74021 4.44732 2.64645 4.35355C2.55268 4.25979 2.5 4.13261 2.5 4C2.5 3.86739 2.55268 3.74021 2.64645 3.64645C2.74021 3.55268 2.86739 3.5 3 3.5H13C13.1326 3.5 13.2598 3.55268 13.3536 3.64645C13.4473 3.74021 13.5 3.86739 13.5 4C13.5 4.13261 13.4473 4.25979 13.3536 4.35355C13.2598 4.44732 13.1326 4.5 13 4.5Z" fill="#FF3232"/>
<path d="M10 4.5H6C5.86739 4.5 5.74021 4.44732 5.64645 4.35355C5.55268 4.25979 5.5 4.13261 5.5 4V3C5.5 2.60218 5.65804 2.22064 5.93934 1.93934C6.22064 1.65804 6.60218 1.5 7 1.5H9C9.39782 1.5 9.77936 1.65804 10.0607 1.93934C10.342 2.22064 10.5 2.60218 10.5 3V4C10.5 4.13261 10.4473 4.25979 10.3536 4.35355C10.2598 4.44732 10.1326 4.5 10 4.5ZM6.5 3.5H9.5V3C9.5 2.86739 9.44732 2.74021 9.35355 2.64645C9.25979 2.55268 9.13261 2.5 9 2.5H7C6.86739 2.5 6.74021 2.55268 6.64645 2.64645C6.55268 2.74021 6.5 2.86739 6.5 3V3.5Z" fill="#FF3232"/>
<path d="M7 11.5C6.86739 11.5 6.74021 11.4473 6.64645 11.3536C6.55268 11.2598 6.5 11.1326 6.5 11V7.5C6.5 7.36739 6.55268 7.24021 6.64645 7.14645C6.74021 7.05268 6.86739 7 7 7C7.13261 7 7.25979 7.05268 7.35355 7.14645C7.44732 7.24021 7.5 7.36739 7.5 7.5V11C7.5 11.1326 7.44732 11.2598 7.35355 11.3536C7.25979 11.4473 7.13261 11.5 7 11.5Z" fill="#FF3232"/>
<path d="M9 11.5C8.86739 11.5 8.74021 11.4473 8.64645 11.3536C8.55268 11.2598 8.5 11.1326 8.5 11V7.5C8.5 7.36739 8.55268 7.24021 8.64645 7.14645C8.74021 7.05268 8.86739 7 9 7C9.13261 7 9.25979 7.05268 9.35355 7.14645C9.44732 7.24021 9.5 7.36739 9.5 7.5V11C9.5 11.1326 9.44732 11.2598 9.35355 11.3536C9.25979 11.4473 9.13261 11.5 9 11.5Z" fill="#FF3232"/>
</g>
<defs>
<clipPath id="clip0_4522_1757">
<rect width="16" height="16" fill="white"/>
</clipPath>
</defs>
</svg>
