<svg xmlns="http://www.w3.org/2000/svg" width="20" height="20" viewBox="0 0 20 20" fill="none">
  <path d="M14.2188 0H5.78125C5.32541 0 4.88824 0.181082 4.56591 0.50341C4.24358 0.825738 4.0625 1.26291 4.0625 1.71875V18.2812C4.0625 18.7371 4.24358 19.1743 4.56591 19.4966C4.88824 19.8189 5.32541 20 5.78125 20H14.2188C14.6746 20 15.1118 19.8189 15.4341 19.4966C15.7564 19.1743 15.9375 18.7371 15.9375 18.2812V1.71875C15.9375 1.26291 15.7564 0.825738 15.4341 0.50341C15.1118 0.181082 14.6746 0 14.2188 0ZM5 3.54531H15V15.5594H5V3.54531ZM5.78125 0.9375H14.2188C14.3213 0.9375 14.4229 0.957708 14.5177 0.996969C14.6125 1.03623 14.6986 1.09378 14.7712 1.16632C14.8437 1.23887 14.9013 1.32499 14.9405 1.41978C14.9798 1.51456 15 1.61615 15 1.71875V2.60781H5V1.71875C5 1.51155 5.08231 1.31284 5.22882 1.16632C5.37534 1.01981 5.57405 0.9375 5.78125 0.9375ZM14.2188 19.0625H5.78125C5.57405 19.0625 5.37534 18.9802 5.22882 18.8337C5.08231 18.6872 5 18.4885 5 18.2812V16.4969H15V18.2812C15 18.3838 14.9798 18.4854 14.9405 18.5802C14.9013 18.675 14.8437 18.7611 14.7712 18.8337C14.6986 18.9062 14.6125 18.9638 14.5177 19.003C14.4229 19.0423 14.3213 19.0625 14.2188 19.0625Z" fill="#F1B325"/>
  <path d="M10 18.7359C10.5178 18.7359 10.9375 18.3162 10.9375 17.7984C10.9375 17.2807 10.5178 16.8609 10 16.8609C9.48223 16.8609 9.0625 17.2807 9.0625 17.7984C9.0625 18.3162 9.48223 18.7359 10 18.7359Z" fill="#F1B325"/>
  <path d="M8.77051 2.22188H11.2314C11.3558 2.22188 11.475 2.17249 11.5629 2.08458C11.6508 1.99668 11.7002 1.87745 11.7002 1.75313C11.7002 1.62881 11.6508 1.50958 11.5629 1.42167C11.475 1.33376 11.3558 1.28438 11.2314 1.28438H8.77051C8.64619 1.28438 8.52696 1.33376 8.43905 1.42167C8.35114 1.50958 8.30176 1.62881 8.30176 1.75313C8.30176 1.87745 8.35114 1.99668 8.43905 2.08458C8.52696 2.17249 8.64619 2.22188 8.77051 2.22188Z" fill="#F1B325"/>
</svg>