<svg width="40" height="40" viewBox="0 0 44 44" fill="none" xmlns="http://www.w3.org/2000/svg">
<circle cx="22" cy="22" r="22" fill="#409EEE" fill-opacity="0.25"/>
<path d="M28.594 25.798C28.594 26.502 28.418 27.1767 28.066 27.822C27.714 28.4527 27.1933 28.9807 26.504 29.406C25.8293 29.8313 25.0153 30.0733 24.062 30.132V31.914H22.874V30.132C21.5393 30.0147 20.454 29.5893 19.618 28.856C18.782 28.108 18.3567 27.162 18.342 26.018H20.476C20.5347 26.634 20.762 27.1693 21.158 27.624C21.5687 28.0787 22.1407 28.3647 22.874 28.482V22.982C21.8913 22.7327 21.0993 22.476 20.498 22.212C19.8967 21.948 19.3833 21.5373 18.958 20.98C18.5327 20.4227 18.32 19.6747 18.32 18.736C18.32 17.548 18.7307 16.5653 19.552 15.788C20.388 15.0107 21.4953 14.578 22.874 14.49V12.664H24.062V14.49C25.3087 14.5927 26.3133 14.996 27.076 15.7C27.8387 16.3893 28.2787 17.2913 28.396 18.406H26.262C26.1887 17.8927 25.9613 17.4307 25.58 17.02C25.1987 16.5947 24.6927 16.316 24.062 16.184V21.552C25.03 21.8013 25.8147 22.058 26.416 22.322C27.032 22.5713 27.5453 22.9747 27.956 23.532C28.3813 24.0893 28.594 24.8447 28.594 25.798ZM20.366 18.626C20.366 19.3447 20.5787 19.8947 21.004 20.276C21.4293 20.6573 22.0527 20.9727 22.874 21.222V16.14C22.1113 16.2133 21.5027 16.4627 21.048 16.888C20.5933 17.2987 20.366 17.878 20.366 18.626ZM24.062 28.504C24.854 28.416 25.47 28.13 25.91 27.646C26.3647 27.162 26.592 26.5827 26.592 25.908C26.592 25.1893 26.372 24.6393 25.932 24.258C25.492 23.862 24.8687 23.5467 24.062 23.312V28.504Z" fill="#409EEE"/>
</svg>
