<svg width="16" height="16" viewBox="0 0 16 16" fill="none" xmlns="http://www.w3.org/2000/svg">
<g id="1564526_add_arrow_download_save_guardar_icon 1">
<g id="icons">
<g id="save">
<path id="Vector" d="M7.46647 11.0667C7.73314 11.4 8.26647 11.4 8.53314 11.0667L12.5331 6.86667C12.8665 6.53333 12.5331 6 11.9998 6H9.33314C9.33314 6 9.46647 2.93333 9.33314 1.33333C9.26647 0.6 8.73314 0 7.9998 0C7.26647 0 6.73314 0.6 6.66647 1.33333C6.53314 2.86667 6.66647 6 6.66647 6H3.9998C3.46647 6 3.13314 6.53333 3.46647 6.93333L7.46647 11.0667Z" fill="#409EEE"/>
<path id="Vector_2" d="M12.6667 12.6666H3.33333C2.6 12.6666 2 13.2666 2 14C2 14.4 2.26667 14.6666 2.66667 14.6666H13.3333C13.7333 14.6666 14 14.4 14 14C14 13.2666 13.4 12.6666 12.6667 12.6666Z" fill="#409EEE"/>
</g>
</g>
</g>
</svg>
