<svg width="14" height="19" viewBox="0 0 14 19" fill="none" xmlns="http://www.w3.org/2000/svg">
<path fill-rule="evenodd" clip-rule="evenodd" d="M13.7143 4.812V16.842C13.7143 17.6394 13.079 18.2857 12.2956 18.2857H1.41873C0.635055 18.2857 0 17.6394 0 16.842V1.44371C0 0.646286 0.635055 0 1.41873 0H8.9851L13.7143 4.812Z" fill="#CB0606"/>
<path fill-rule="evenodd" clip-rule="evenodd" d="M13.7144 4.54257V5.14143H9.84834C9.04788 5.14143 8.67871 4.47857 8.67871 3.66114V0H9.26423L13.7144 4.54257Z" fill="#FB8D8D"/>
<path fill-rule="evenodd" clip-rule="evenodd" d="M10.5246 9.72803C10.4025 9.68689 10.285 9.66603 10.1716 9.66603C10.0429 9.66603 9.95446 9.69317 9.90604 9.74746C9.8579 9.80175 9.83383 9.89775 9.83383 10.0357V10.2995H10.3748V10.8292H9.83383V13.0106H9.17834V10.8292H8.84052V10.2995H9.17834V10.0357C9.17834 9.69975 9.26007 9.45689 9.42352 9.30689C9.58697 9.15689 9.83271 9.08203 10.1613 9.08203C10.3155 9.08203 10.479 9.10346 10.6516 9.1466L10.5246 9.72803ZM7.77892 12.7469C7.65689 12.852 7.52815 12.9357 7.39268 12.9977C7.25722 13.0597 7.10328 13.0906 6.9306 13.0906C6.5953 13.0906 6.33864 12.9675 6.16092 12.7212C5.98291 12.4746 5.89419 12.1266 5.89419 11.6769C5.89419 11.2169 5.99187 10.8595 6.18751 10.6043C6.38314 10.3495 6.65771 10.2217 7.01176 10.2217C7.13715 10.2217 7.26562 10.248 7.39772 10.3006C7.52983 10.3532 7.63926 10.42 7.72547 10.5009V9.16203H8.38095V13.0106H7.77892V12.7469ZM7.72547 11.0515C7.65605 10.9877 7.57013 10.9312 7.46769 10.882C7.36526 10.8332 7.26058 10.8086 7.15394 10.8086C6.9779 10.8086 6.83656 10.8857 6.72992 11.0397C6.623 11.194 6.56983 11.4029 6.56983 11.6666C6.56983 11.9269 6.61349 12.1309 6.70053 12.2792C6.78786 12.4275 6.92276 12.5015 7.1058 12.5015C7.21412 12.5015 7.32467 12.476 7.43719 12.4252C7.5497 12.3743 7.64598 12.3117 7.72547 12.2377V11.0515ZM4.92383 12.9149C4.7629 13.032 4.5709 13.0906 4.34727 13.0906C4.05256 13.0906 3.80122 12.9969 3.59299 12.8089V14.0315H2.9375V10.2995H3.54205V10.5655C3.66408 10.4586 3.79226 10.3746 3.92689 10.3135C4.06151 10.2523 4.21601 10.2217 4.39037 10.2217C4.72735 10.2217 4.98401 10.3423 5.16005 10.5837C5.3361 10.8249 5.42426 11.1755 5.42426 11.6355C5.42426 11.9269 5.38116 12.1835 5.29468 12.4057C5.20819 12.628 5.08477 12.7977 4.92383 12.9149ZM4.614 11.0295C4.52416 10.882 4.39037 10.8086 4.21265 10.8086C4.10601 10.8086 3.9963 10.834 3.88379 10.8846C3.77099 10.9355 3.67415 10.998 3.59299 11.072V12.2583C3.6624 12.3223 3.74832 12.3786 3.85076 12.4277C3.9532 12.4769 4.05843 12.5015 4.16703 12.5015C4.34643 12.5015 4.48833 12.4235 4.59245 12.2675C4.69657 12.1115 4.74863 11.9043 4.74863 11.646C4.74863 11.3823 4.70356 11.1769 4.614 11.0295Z" fill="white"/>
</svg>
