<svg width="36" height="36" viewBox="0 0 36 36" fill="none" xmlns="http://www.w3.org/2000/svg">
<path fill-rule="evenodd" clip-rule="evenodd" d="M6.72734 6.73537L5.61584 6.72975C4.99596 6.7275 4.48971 7.22925 4.48634 7.85025C4.48409 8.47125 4.98584 8.9775 5.60684 8.97975L6.72734 8.98537V13.4921L5.63834 13.4876C5.01734 13.4843 4.51109 13.9871 4.50884 14.6081C4.50659 15.228 5.00834 15.7343 5.62934 15.7376L6.72734 15.7421V20.2545L5.63834 20.25C5.01734 20.2477 4.51109 20.7495 4.50884 21.3705C4.50659 21.9915 5.00834 22.4977 5.62934 22.5L6.72734 22.5045V26.9955L5.63834 26.991C5.01734 26.9876 4.51109 27.4905 4.50884 28.1115C4.50659 28.7325 5.00834 29.2376 5.62934 29.241L6.72734 29.2455V30.375C6.72734 32.2391 8.23821 33.75 10.1023 33.75C14.0027 33.75 21.9745 33.75 25.8748 33.75C27.739 33.75 29.2498 32.2391 29.2498 30.375V5.625C29.2498 3.76088 27.739 2.25 25.8748 2.25C21.9745 2.25 14.0027 2.25 10.1023 2.25C8.23821 2.25 6.72734 3.76088 6.72734 5.625V6.73537ZM8.97734 29.2545V30.375C8.97734 30.996 9.48134 31.5 10.1023 31.5C14.0027 31.5 21.9745 31.5 25.8748 31.5C26.4958 31.5 26.9998 30.996 26.9998 30.375V5.625C26.9998 5.004 26.4958 4.5 25.8748 4.5C21.9745 4.5 14.0027 4.5 10.1023 4.5C9.48134 4.5 8.97734 5.004 8.97734 5.625V6.74437L10.1293 6.74888C10.7503 6.75112 11.2521 7.25737 11.2498 7.87837C11.2476 8.49937 10.7413 9.00112 10.1203 8.99888L8.97734 8.99437V13.5011L10.1293 13.5056C10.7503 13.5079 11.2521 14.0141 11.2498 14.6351C11.2476 15.2561 10.7413 15.7579 10.1203 15.7556L8.97734 15.7511V20.2635L10.1293 20.2691C10.7503 20.2714 11.2521 20.7776 11.2498 21.3986C11.2476 22.0196 10.7413 22.5214 10.1203 22.5191L8.97734 22.5135V27.0045L10.1293 27.009C10.7503 27.0124 11.2521 27.5186 11.2498 28.1385C11.2476 28.7595 10.7413 29.2624 10.1203 29.259L8.97734 29.2545Z" fill="black" fill-opacity="0.7"/>
<path fill-rule="evenodd" clip-rule="evenodd" d="M23.6484 25.877C24.2694 25.877 24.7734 25.373 24.7734 24.752C24.7734 21.6447 22.2546 19.127 19.1484 19.127C16.0423 19.127 13.5234 21.6447 13.5234 24.752C13.5234 25.373 14.0274 25.877 14.6484 25.877H23.6484ZM22.3311 23.627H15.9658C16.4282 22.3163 17.6792 21.377 19.1484 21.377C20.6177 21.377 21.8687 22.3163 22.3311 23.627Z" fill="black" fill-opacity="0.7"/>
<path fill-rule="evenodd" clip-rule="evenodd" d="M19.1478 10.123C17.2915 10.123 15.7852 11.6305 15.7852 13.4868C15.7852 15.343 17.2915 16.8494 19.1478 16.8494C21.004 16.8494 22.5115 15.343 22.5115 13.4868C22.5115 11.6305 21.004 10.123 19.1478 10.123ZM19.1478 12.373C19.762 12.373 20.2615 12.8725 20.2615 13.4868C20.2615 14.101 19.762 14.5994 19.1478 14.5994C18.5335 14.5994 18.0352 14.101 18.0352 13.4868C18.0352 12.8725 18.5335 12.373 19.1478 12.373Z" fill="black" fill-opacity="0.7"/>
</svg>
