 <svg
                              width="26"
                              height="26"
                              viewBox="0 0 26 26"
                              fill="none"
                              xmlns="http://www.w3.org/2000/svg"
                            >
                              <rect
                                x="1"
                                y="1"
                                width="24"
                                height="24"
                                rx="12"
                                fill="#B64D8B"
                                fill-opacity="0.1"
                                stroke="#B64D8B"
                                stroke-width="0.7"
                              />
                              <path
                                d="M13.0004 7.40039C16.0932 7.40039 18.6004 9.90759 18.6004 13.0004C18.6004 16.0932 16.0932 18.6004 13.0004 18.6004C9.90759 18.6004 7.40039 16.0932 7.40039 13.0004C7.40039 9.90759 9.90759 7.40039 13.0004 7.40039ZM13.0004 8.33372C10.4231 8.33372 8.33372 10.4231 8.33372 13.0004C8.33372 15.5777 10.4231 17.6671 13.0004 17.6671C15.5777 17.6671 17.6671 15.5777 17.6671 13.0004C17.6671 10.4231 15.5777 8.33372 13.0004 8.33372ZM14.7397 14.5558C14.9116 14.3638 15.2066 14.3474 15.3987 14.5193C15.5907 14.6912 15.607 14.9862 15.4352 15.1783C14.8377 15.8458 13.9679 16.2671 13.0004 16.2671C12.0329 16.2671 11.1631 15.8458 10.5656 15.1783C10.3937 14.9862 10.4101 14.6912 10.6021 14.5193C10.7942 14.3474 11.0892 14.3638 11.2611 14.5558C11.689 15.0339 12.3094 15.3337 13.0004 15.3337C13.6914 15.3337 14.3118 15.0339 14.7397 14.5558ZM11.3671 11.3671C11.7537 11.3671 12.0671 11.6805 12.0671 12.0671C12.0671 12.4537 11.7537 12.7671 11.3671 12.7671C10.9805 12.7671 10.6671 12.4537 10.6671 12.0671C10.6671 11.6805 10.9805 11.3671 11.3671 11.3671ZM14.6337 11.3671C15.0203 11.3671 15.3337 11.6805 15.3337 12.0671C15.3337 12.4537 15.0203 12.7671 14.6337 12.7671C14.2471 12.7671 13.9337 12.4537 13.9337 12.0671C13.9337 11.6805 14.2471 11.3671 14.6337 11.3671Z"
                                fill="#B64D8B"
                              />
                            </svg>