<svg width="25" height="26" viewBox="0 0 25 26" fill="none" xmlns="http://www.w3.org/2000/svg">
<path d="M22.7788 18.9482H21.0192C20.8674 18.9482 20.7217 18.8878 20.6143 18.7804C20.5069 18.673 20.4466 18.5274 20.4466 18.3755C20.4466 18.2236 20.5069 18.078 20.6143 17.9706C20.7217 17.8632 20.8674 17.8028 21.0192 17.8028H22.7788C23.0592 17.8021 23.3279 17.6901 23.5258 17.4915C23.7238 17.2928 23.8348 17.0238 23.8347 16.7434V9.09748C23.8348 8.81699 23.7238 8.54787 23.5259 8.34914C23.3279 8.1504 23.0593 8.03826 22.7788 8.03731H2.20479C1.9238 8.03769 1.65444 8.14953 1.45582 8.34829C1.25719 8.54705 1.14554 8.81649 1.14535 9.09748V16.7434C1.14572 17.0242 1.25747 17.2935 1.45607 17.4921C1.65467 17.6907 1.92393 17.8024 2.20479 17.8028H4.16047C4.31235 17.8028 4.45801 17.8632 4.56541 17.9706C4.67281 18.078 4.73314 18.2236 4.73314 18.3755C4.73314 18.5274 4.67281 18.673 4.56541 18.7804C4.45801 18.8878 4.31235 18.9482 4.16047 18.9482H2.20479C1.62028 18.9474 1.05992 18.7149 0.646606 18.3016C0.233291 17.8883 0.000757635 17.3279 0 16.7434V9.09748C0.000568223 8.51284 0.233018 7.9523 0.646353 7.53883C1.05969 7.12536 1.62015 6.89273 2.20479 6.89197H22.7788C23.3629 6.89329 23.9227 7.12622 24.3353 7.53967C24.748 7.95312 24.9798 8.51334 24.98 9.09748V16.7434C24.9796 17.3274 24.7477 17.8874 24.3351 18.3007C23.9225 18.714 23.3628 18.9468 22.7788 18.9482Z" fill="#231F20"/>
<path d="M19.3896 25.5082H5.78858C5.20457 25.5073 4.64476 25.2748 4.23187 24.8618C3.81898 24.4487 3.58669 23.8889 3.58594 23.3048V14.5508C3.58651 13.9664 3.8189 13.4061 4.23212 12.9929C4.64534 12.5797 5.20563 12.3473 5.79001 12.3467H7.13508C7.28696 12.3467 7.43262 12.4071 7.54002 12.5145C7.64742 12.6219 7.70775 12.7675 7.70775 12.9194C7.70775 13.0713 7.64742 13.217 7.54002 13.3244C7.43262 13.4318 7.28696 13.4921 7.13508 13.4921H5.79001C5.50959 13.4925 5.24078 13.6041 5.04256 13.8024C4.84434 14.0008 4.73291 14.2697 4.73272 14.5501V23.3048C4.73291 23.5853 4.84434 23.8542 5.04256 24.0525C5.24078 24.2509 5.50959 24.3625 5.79001 24.3629H19.391C19.6714 24.3625 19.9402 24.2509 20.1385 24.0525C20.3367 23.8542 20.4481 23.5853 20.4483 23.3048V14.5508C20.4483 14.27 20.3368 14.0007 20.1382 13.8022C19.9397 13.6036 19.6704 13.4921 19.3896 13.4921H18.0452C17.8933 13.4921 17.7477 13.4318 17.6403 13.3244C17.5329 13.217 17.4725 13.0713 17.4725 12.9194C17.4725 12.7675 17.5329 12.6219 17.6403 12.5145C17.7477 12.4071 17.8933 12.3467 18.0452 12.3467H19.3896C19.9736 12.3475 20.5336 12.5799 20.9465 12.993C21.3594 13.406 21.5916 13.966 21.5922 14.5501V23.3048C21.5916 23.8889 21.3594 24.4489 20.9465 24.862C20.5336 25.275 19.9736 25.5074 19.3896 25.5082Z" fill="#231F20"/>
<path d="M16.5262 8.04161H8.65191C8.60023 8.04238 8.54856 8.03951 8.49729 8.03302C8.34645 8.01508 8.20892 7.93796 8.11494 7.81861C8.02097 7.69927 7.97826 7.54748 7.9962 7.39664C8.01414 7.2458 8.09127 7.10827 8.21061 7.0143C8.32996 6.92032 8.48174 6.87761 8.63258 6.89555H16.5262C16.678 6.89555 16.8237 6.95589 16.9311 7.06328C17.0385 7.17068 17.0988 7.31634 17.0988 7.46822C17.0988 7.62011 17.0385 7.76577 16.9311 7.87317C16.8237 7.98056 16.678 8.0409 16.5262 8.0409V8.04161Z" fill="#231F20"/>
<path d="M8.56974 8.03732H8.54039C7.97621 8.00976 7.44423 7.76629 7.0546 7.35734C6.66496 6.94838 6.44751 6.40525 6.44727 5.8404V2.53536C6.44802 1.95072 6.68066 1.39025 7.09412 0.97692C7.50759 0.563584 8.06813 0.331135 8.65277 0.330566H16.5306C17.1152 0.331135 17.6756 0.563608 18.089 0.976963C18.5024 1.39032 18.7348 1.95079 18.7354 2.53536V5.83968C18.7355 6.40441 18.5184 6.94753 18.129 7.35652C17.7396 7.76552 17.2078 8.00903 16.6437 8.0366C16.5685 8.04041 16.4933 8.02937 16.4224 8.00411C16.3514 7.97884 16.2861 7.93986 16.2303 7.88937C16.1744 7.83888 16.129 7.77789 16.0967 7.70987C16.0644 7.64184 16.0459 7.56813 16.042 7.49292C16.0382 7.41772 16.0493 7.3425 16.0745 7.27156C16.0998 7.20062 16.1388 7.13536 16.1893 7.07949C16.2398 7.02362 16.3008 6.97824 16.3688 6.94594C16.4368 6.91365 16.5105 6.89506 16.5857 6.89126C16.856 6.87785 17.1107 6.76106 17.2973 6.56505C17.4838 6.36905 17.5879 6.10884 17.5879 5.83825V2.53536C17.5875 2.25449 17.4758 1.98524 17.2772 1.78664C17.0786 1.58803 16.8093 1.47629 16.5285 1.47591H8.6542C8.37321 1.4761 8.10378 1.58776 7.90502 1.78638C7.70626 1.98501 7.59442 2.25437 7.59404 2.53536V5.83968C7.59425 6.11022 7.69836 6.37033 7.88487 6.5663C8.07138 6.76226 8.32603 6.87911 8.59622 6.89269C8.7481 6.89639 8.89229 6.96028 8.99707 7.07029C9.10185 7.18031 9.15864 7.32744 9.15494 7.47932C9.15123 7.6312 9.08735 7.77539 8.97733 7.88017C8.86732 7.98495 8.72019 8.04174 8.5683 8.03803L8.56974 8.03732Z" fill="#231F20"/>
<path d="M15.5699 13.4921H9.42228C9.2704 13.4921 9.12474 13.4318 9.01734 13.3244C8.90995 13.217 8.84961 13.0713 8.84961 12.9194C8.84961 12.7675 8.90995 12.6219 9.01734 12.5145C9.12474 12.4071 9.2704 12.3467 9.42228 12.3467H15.5699C15.7218 12.3467 15.8675 12.4071 15.9749 12.5145C16.0823 12.6219 16.1426 12.7675 16.1426 12.9194C16.1426 13.0713 16.0823 13.217 15.9749 13.3244C15.8675 13.4318 15.7218 13.4921 15.5699 13.4921Z" fill="#231F20"/>
<path d="M17.3784 17.4048H7.61076C7.45888 17.4048 7.31322 17.3445 7.20582 17.2371C7.09842 17.1297 7.03809 16.984 7.03809 16.8322C7.03809 16.6803 7.09842 16.5346 7.20582 16.4272C7.31322 16.3198 7.45888 16.2595 7.61076 16.2595H17.3784C17.5303 16.2595 17.676 16.3198 17.7834 16.4272C17.8908 16.5346 17.9511 16.6803 17.9511 16.8322C17.9511 16.984 17.8908 17.1297 17.7834 17.2371C17.676 17.3445 17.5303 17.4048 17.3784 17.4048Z" fill="#231F20"/>
<path d="M17.3618 21.3162H7.59416C7.44228 21.3162 7.29661 21.2558 7.18922 21.1484C7.08182 21.041 7.02148 20.8954 7.02148 20.7435C7.02148 20.5916 7.08182 20.4459 7.18922 20.3385C7.29661 20.2311 7.44228 20.1708 7.59416 20.1708H17.3618C17.5137 20.1708 17.6594 20.2311 17.7668 20.3385C17.8742 20.4459 17.9345 20.5916 17.9345 20.7435C17.9345 20.8954 17.8742 21.041 17.7668 21.1484C17.6594 21.2558 17.5137 21.3162 17.3618 21.3162Z" fill="#231F20"/>
<path d="M8.92814 6.15106C8.77626 6.15106 8.6306 6.09073 8.5232 5.98333C8.4158 5.87594 8.35547 5.73027 8.35547 5.57839V3.76302C8.35547 2.86607 9.06129 2.13663 9.93032 2.13663H12.9526C13.1045 2.13663 13.2501 2.19696 13.3575 2.30436C13.4649 2.41176 13.5253 2.55742 13.5253 2.7093C13.5253 2.86118 13.4649 3.00684 13.3575 3.11424C13.2501 3.22164 13.1045 3.28197 12.9526 3.28197H9.92817C9.69266 3.28197 9.49867 3.49673 9.49867 3.76302V5.57839C9.49867 5.7299 9.43863 5.87524 9.33169 5.98257C9.22476 6.08991 9.07965 6.1505 8.92814 6.15106Z" fill="#231F20"/>
</svg>
