<svg width="25" height="26" viewBox="0 0 25 26" fill="none" xmlns="http://www.w3.org/2000/svg">
<path d="M22.7788 18.9481H21.0192C20.8674 18.9481 20.7217 18.8877 20.6143 18.7803C20.5069 18.6729 20.4466 18.5273 20.4466 18.3754C20.4466 18.2235 20.5069 18.0778 20.6143 17.9704C20.7217 17.863 20.8674 17.8027 21.0192 17.8027H22.7788C23.0592 17.8019 23.3279 17.69 23.5258 17.4913C23.7238 17.2927 23.8348 17.0237 23.8347 16.7433V9.09735C23.8348 8.81687 23.7238 8.54775 23.5259 8.34901C23.3279 8.15028 23.0593 8.03814 22.7788 8.03719H2.20479C1.9238 8.03757 1.65444 8.14941 1.45582 8.34817C1.25719 8.54693 1.14554 8.81636 1.14535 9.09735V16.7433C1.14572 17.0241 1.25747 17.2934 1.45607 17.492C1.65467 17.6906 1.92393 17.8023 2.20479 17.8027H4.16047C4.31235 17.8027 4.45801 17.863 4.56541 17.9704C4.67281 18.0778 4.73314 18.2235 4.73314 18.3754C4.73314 18.5273 4.67281 18.6729 4.56541 18.7803C4.45801 18.8877 4.31235 18.9481 4.16047 18.9481H2.20479C1.62028 18.9473 1.05992 18.7148 0.646606 18.3014C0.233291 17.8881 0.000757635 17.3278 0 16.7433V9.09735C0.000568223 8.51271 0.233018 7.95217 0.646353 7.5387C1.05969 7.12523 1.62015 6.8926 2.20479 6.89185H22.7788C23.3629 6.89317 23.9227 7.1261 24.3353 7.53955C24.748 7.953 24.9798 8.51322 24.98 9.09735V16.7433C24.9796 17.3273 24.7477 17.8873 24.3351 18.3006C23.9225 18.7139 23.3628 18.9467 22.7788 18.9481Z" fill="white"/>
<path d="M19.3896 25.5081H5.78858C5.20457 25.5072 4.64476 25.2747 4.23187 24.8617C3.81898 24.4487 3.58669 23.8888 3.58594 23.3048V14.5508C3.58651 13.9664 3.8189 13.4061 4.23212 12.9929C4.64534 12.5796 5.20563 12.3472 5.79001 12.3467H7.13508C7.28696 12.3467 7.43262 12.407 7.54002 12.5144C7.64742 12.6218 7.70775 12.7675 7.70775 12.9194C7.70775 13.0712 7.64742 13.2169 7.54002 13.3243C7.43262 13.4317 7.28696 13.492 7.13508 13.492H5.79001C5.50959 13.4924 5.24078 13.604 5.04256 13.8024C4.84434 14.0007 4.73291 14.2696 4.73272 14.55V23.3048C4.73291 23.5852 4.84434 23.8541 5.04256 24.0524C5.24078 24.2508 5.50959 24.3624 5.79001 24.3628H19.391C19.6714 24.3624 19.9402 24.2508 20.1385 24.0524C20.3367 23.8541 20.4481 23.5852 20.4483 23.3048V14.5508C20.4483 14.27 20.3368 14.0007 20.1382 13.8021C19.9397 13.6036 19.6704 13.492 19.3896 13.492H18.0452C17.8933 13.492 17.7477 13.4317 17.6403 13.3243C17.5329 13.2169 17.4725 13.0712 17.4725 12.9194C17.4725 12.7675 17.5329 12.6218 17.6403 12.5144C17.7477 12.407 17.8933 12.3467 18.0452 12.3467H19.3896C19.9736 12.3474 20.5336 12.5798 20.9465 12.9929C21.3594 13.406 21.5916 13.966 21.5922 14.55V23.3048C21.5916 23.8888 21.3594 24.4488 20.9465 24.8619C20.5336 25.275 19.9736 25.5074 19.3896 25.5081Z" fill="white"/>
<path d="M16.5267 8.04167H8.6524C8.60072 8.04244 8.54905 8.03957 8.49778 8.03308C8.34694 8.01514 8.20941 7.93802 8.11543 7.81867C8.02146 7.69933 7.97875 7.54754 7.99669 7.3967C8.01463 7.24586 8.09175 7.10833 8.2111 7.01436C8.33044 6.92038 8.48223 6.87767 8.63307 6.89561H16.5267C16.6785 6.89561 16.8242 6.95595 16.9316 7.06334C17.039 7.17074 17.0993 7.3164 17.0993 7.46829C17.0993 7.62017 17.039 7.76583 16.9316 7.87323C16.8242 7.98062 16.6785 8.04096 16.5267 8.04096V8.04167Z" fill="white"/>
<path d="M8.56925 8.03732H8.5399C7.97572 8.00976 7.44374 7.76629 7.05411 7.35734C6.66447 6.94838 6.44702 6.40525 6.44678 5.8404V2.53536C6.44754 1.95072 6.68017 1.39025 7.09364 0.97692C7.50711 0.563584 8.06765 0.331135 8.65228 0.330566H16.5301C17.1147 0.331135 17.6752 0.563608 18.0885 0.976963C18.5019 1.39032 18.7343 1.95079 18.7349 2.53536V5.83968C18.735 6.40441 18.5179 6.94753 18.1285 7.35652C17.7391 7.76552 17.2073 8.00903 16.6432 8.0366C16.568 8.04041 16.4928 8.02937 16.4219 8.00411C16.3509 7.97884 16.2857 7.93986 16.2298 7.88937C16.1739 7.83888 16.1285 7.77789 16.0962 7.70987C16.0639 7.64184 16.0454 7.56813 16.0416 7.49292C16.0378 7.41772 16.0488 7.3425 16.0741 7.27156C16.0993 7.20062 16.1383 7.13536 16.1888 7.07949C16.2393 7.02362 16.3003 6.97824 16.3683 6.94594C16.4363 6.91365 16.51 6.89506 16.5852 6.89126C16.8555 6.87785 17.1102 6.76106 17.2968 6.56505C17.4833 6.36905 17.5874 6.10884 17.5874 5.83825V2.53536C17.587 2.25449 17.4753 1.98524 17.2767 1.78664C17.0781 1.58803 16.8088 1.47629 16.528 1.47591H8.65372C8.37273 1.4761 8.10329 1.58776 7.90453 1.78638C7.70577 1.98501 7.59393 2.25437 7.59356 2.53536V5.83968C7.59377 6.11022 7.69788 6.37033 7.88438 6.5663C8.07089 6.76226 8.32554 6.87911 8.59573 6.89269C8.74762 6.89639 8.89181 6.96028 8.99659 7.07029C9.10136 7.18031 9.15815 7.32744 9.15445 7.47932C9.15075 7.6312 9.08686 7.77539 8.97684 7.88017C8.86683 7.98495 8.7197 8.04174 8.56782 8.03803L8.56925 8.03732Z" fill="white"/>
<path d="M15.5699 13.492H9.42228C9.2704 13.492 9.12474 13.4317 9.01734 13.3243C8.90995 13.2169 8.84961 13.0712 8.84961 12.9194C8.84961 12.7675 8.90995 12.6218 9.01734 12.5144C9.12474 12.407 9.2704 12.3467 9.42228 12.3467H15.5699C15.7218 12.3467 15.8675 12.407 15.9749 12.5144C16.0823 12.6218 16.1426 12.7675 16.1426 12.9194C16.1426 13.0712 16.0823 13.2169 15.9749 13.3243C15.8675 13.4317 15.7218 13.492 15.5699 13.492Z" fill="white"/>
<path d="M17.3789 17.4049H7.61125C7.45936 17.4049 7.3137 17.3445 7.20631 17.2371C7.09891 17.1297 7.03857 16.9841 7.03857 16.8322C7.03857 16.6803 7.09891 16.5347 7.20631 16.4273C7.3137 16.3199 7.45936 16.2595 7.61125 16.2595H17.3789C17.5308 16.2595 17.6764 16.3199 17.7838 16.4273C17.8912 16.5347 17.9516 16.6803 17.9516 16.8322C17.9516 16.9841 17.8912 17.1297 17.7838 17.2371C17.6764 17.3445 17.5308 17.4049 17.3789 17.4049Z" fill="white"/>
<path d="M17.3618 21.3162H7.59416C7.44228 21.3162 7.29661 21.2559 7.18922 21.1485C7.08182 21.0411 7.02148 20.8955 7.02148 20.7436C7.02148 20.5917 7.08182 20.446 7.18922 20.3386C7.29661 20.2312 7.44228 20.1709 7.59416 20.1709H17.3618C17.5137 20.1709 17.6594 20.2312 17.7668 20.3386C17.8742 20.446 17.9345 20.5917 17.9345 20.7436C17.9345 20.8955 17.8742 21.0411 17.7668 21.1485C17.6594 21.2559 17.5137 21.3162 17.3618 21.3162Z" fill="white"/>
<path d="M8.92863 6.15116C8.77675 6.15116 8.63109 6.09082 8.52369 5.98342C8.41629 5.87603 8.35596 5.73037 8.35596 5.57848V3.76311C8.35596 2.86616 9.06178 2.13672 9.93081 2.13672H12.9531C13.105 2.13672 13.2506 2.19705 13.358 2.30445C13.4654 2.41185 13.5258 2.55751 13.5258 2.70939C13.5258 2.86127 13.4654 3.00694 13.358 3.11433C13.2506 3.22173 13.105 3.28206 12.9531 3.28206H9.92866C9.69315 3.28206 9.49916 3.49682 9.49916 3.76311V5.57848C9.49916 5.72999 9.43912 5.87533 9.33218 5.98267C9.22525 6.09 9.08014 6.15059 8.92863 6.15116Z" fill="white"/>
</svg>
