<svg width="16" height="16" viewBox="0 0 17 17" fill="none" xmlns="http://www.w3.org/2000/svg">
<path d="M14.8743 7.08301C14.6865 7.08301 14.5063 7.00838 14.3735 6.87554C14.2406 6.7427 14.166 6.56254 14.166 6.37468V3.54134C14.166 3.35348 14.0914 3.17331 13.9585 3.04047C13.8257 2.90764 13.6455 2.83301 13.4577 2.83301H3.54102C3.35315 2.83301 3.17299 2.90764 3.04015 3.04047C2.90731 3.17331 2.83268 3.35348 2.83268 3.54134V6.37468C2.83268 6.56254 2.75805 6.7427 2.62522 6.87554C2.49238 7.00838 2.31221 7.08301 2.12435 7.08301C1.93649 7.08301 1.75632 7.00838 1.62348 6.87554C1.49064 6.7427 1.41602 6.56254 1.41602 6.37468V3.54134C1.41602 2.97776 1.6399 2.43725 2.03841 2.03874C2.43693 1.64023 2.97743 1.41634 3.54102 1.41634H13.4577C14.0213 1.41634 14.5618 1.64023 14.9603 2.03874C15.3588 2.43725 15.5827 2.97776 15.5827 3.54134V6.37468C15.5827 6.56254 15.5081 6.7427 15.3752 6.87554C15.2424 7.00838 15.0622 7.08301 14.8743 7.08301ZM7.99643 5.87176C8.0638 5.80727 8.14323 5.75672 8.23018 5.72301C8.31497 5.68553 8.40665 5.66618 8.49935 5.66618C8.59205 5.66618 8.68373 5.68553 8.76852 5.72301C8.85546 5.75672 8.9349 5.80727 9.00226 5.87176L11.8356 8.70509C11.969 8.83847 12.0439 9.01938 12.0439 9.20801C12.0439 9.39664 11.969 9.57754 11.8356 9.71093C11.7022 9.84431 11.5213 9.91924 11.3327 9.91924C11.1441 9.91924 10.9631 9.84431 10.8298 9.71093L9.20768 8.08176V14.8747C9.20768 15.0625 9.13305 15.2427 9.00022 15.3755C8.86738 15.5084 8.68721 15.583 8.49935 15.583C8.31149 15.583 8.13132 15.5084 7.99848 15.3755C7.86564 15.2427 7.79101 15.0625 7.79101 14.8747V8.08176L6.16893 9.71093C6.10289 9.77697 6.02448 9.82936 5.93819 9.8651C5.8519 9.90084 5.75942 9.91924 5.66602 9.91924C5.57261 9.91924 5.48013 9.90084 5.39384 9.8651C5.30755 9.82936 5.22914 9.77697 5.1631 9.71093C5.09705 9.64488 5.04467 9.56648 5.00892 9.48019C4.97318 9.39389 4.95478 9.30141 4.95478 9.20801C4.95478 9.11461 4.97318 9.02212 5.00892 8.93583C5.04467 8.84954 5.09705 8.77114 5.1631 8.70509L7.99643 5.87176Z" fill="#409EEE"/>
</svg>
