<svg width="20" height="20" viewBox="0 0 20 20" fill="none" xmlns="http://www.w3.org/2000/svg">
<path d="M6.66602 10.167H12.4993" stroke="#F96147" stroke-miterlimit="10" strokeLinecap="round" strokeLinejoin="round"/>
<path d="M6.66602 13.5H10.316" stroke="#F96147" stroke-miterlimit="10" strokeLinecap="round" strokeLinejoin="round"/>
<path d="M8.33268 5.00033H11.666C13.3327 5.00033 13.3327 4.16699 13.3327 3.33366C13.3327 1.66699 12.4993 1.66699 11.666 1.66699H8.33268C7.49935 1.66699 6.66602 1.66699 6.66602 3.33366C6.66602 5.00033 7.49935 5.00033 8.33268 5.00033Z" stroke="#F96147" stroke-miterlimit="10" strokeLinecap="round" strokeLinejoin="round"/>
<path d="M13.3333 3.35059C16.1083 3.50059 17.5 4.52559 17.5 8.33392V13.3339C17.5 16.6673 16.6667 18.3339 12.5 18.3339H7.5C3.33333 18.3339 2.5 16.6673 2.5 13.3339V8.33392C2.5 4.53392 3.89167 3.50059 6.66667 3.35059" stroke="#F96147" stroke-miterlimit="10" strokeLinecap="round" strokeLinejoin="round"/>
</svg>
