<svg width="16" height="12" viewBox="0 0 16 12" fill="none" xmlns="http://www.w3.org/2000/svg">
<path d="M7.99998 2.99957C7.70558 3.00417 7.41335 3.05094 7.13221 3.13845C7.26225 3.36715 7.33149 3.62537 7.33332 3.88845C7.33332 4.09273 7.29308 4.29501 7.21491 4.48374C7.13673 4.67247 7.02215 4.84395 6.87771 4.9884C6.73326 5.13284 6.56178 5.24743 6.37305 5.3256C6.18432 5.40377 5.98204 5.44401 5.77776 5.44401C5.51468 5.44218 5.25646 5.37294 5.02776 5.2429C4.84733 5.86867 4.86836 6.53536 5.08787 7.14852C5.30739 7.76168 5.71426 8.29023 6.25086 8.6593C6.78746 9.02837 7.42659 9.21925 8.0777 9.20491C8.72881 9.19057 9.3589 8.97172 9.87873 8.57937C10.3986 8.18703 10.7818 7.64107 10.9741 7.01884C11.1664 6.39661 11.158 5.72964 10.9502 5.11242C10.7424 4.4952 10.3456 3.95901 9.81612 3.5798C9.28663 3.2006 8.65125 2.9976 7.99998 2.99957ZM15.9033 5.70512C14.3969 2.76595 11.4147 0.777344 7.99998 0.777344C4.58526 0.777344 1.60221 2.76734 0.0966515 5.7054C0.0331076 5.8311 0 5.96997 0 6.11082C0 6.25166 0.0331076 6.39054 0.0966515 6.51623C1.60304 9.4554 4.58526 11.444 7.99998 11.444C11.4147 11.444 14.3978 9.45401 15.9033 6.51595C15.9669 6.39026 16 6.25138 16 6.11054C16 5.96969 15.9669 5.83082 15.9033 5.70512ZM7.99998 10.1107C5.25971 10.1107 2.74748 8.5829 1.39082 6.11068C2.74748 3.63845 5.25943 2.11068 7.99998 2.11068C10.7405 2.11068 13.2525 3.63845 14.6092 6.11068C13.2528 8.5829 10.7405 10.1107 7.99998 10.1107Z" fill="#F1B325"/>
</svg>
