<svg width="16" height="16" viewBox="0 0 12 12" fill="none" xmlns="http://www.w3.org/2000/svg">
<path d="M11.1812 2.313C11.0571 2.043 10.7942 1.875 10.4954 1.875H1.50586C1.20698 1.875 0.944109 2.043 0.819609 2.313C0.696234 2.58075 0.738984 2.88675 0.930984 3.111L0.931359 3.11137L4.50061 7.26412V10.5C4.50061 10.6384 4.57673 10.7655 4.69861 10.8307C4.75411 10.8604 4.81486 10.875 4.87561 10.875C4.94836 10.875 5.02073 10.8536 5.08373 10.812L7.33373 9.312C7.43798 9.24225 7.50061 9.12525 7.50061 9V7.26412L11.0702 3.11137C11.2622 2.88675 11.305 2.58075 11.1812 2.313Z" fill="#409EEE"/>
</svg>
