<svg width="20" height="20" viewBox="0 0 20 20" fill="none" xmlns="http://www.w3.org/2000/svg">
<path d="M10.2059 19.375C6.59523 19.375 3.36711 17.3731 1.78023 14.1512C1.14211 12.8531 0.818359 11.4569 0.818359 10C0.818359 8.54187 1.14211 7.14437 1.78086 5.8475C3.36711 2.62625 6.59523 0.625 10.2059 0.625C12.4934 0.625 14.6327 1.435 16.3921 2.9675C16.4577 3.02438 16.4965 3.10562 16.499 3.1925C16.5021 3.27937 16.469 3.36313 16.4077 3.42438L13.7684 6.06062C13.6546 6.17375 13.4734 6.1825 13.3496 6.08125C12.4496 5.34562 11.3621 4.95688 10.2059 4.95688C8.02023 4.95688 6.09336 6.34687 5.41211 8.415C5.24211 8.93188 5.15586 9.465 5.15586 10C5.15586 10.5337 5.24148 11.0656 5.41086 11.5813C6.09273 13.6513 8.01961 15.0425 10.2059 15.0425C11.2959 15.0425 12.2802 14.785 13.0534 14.2981C13.5871 13.9613 14.0121 13.5244 14.3165 12.9975C14.4027 12.8481 14.5927 12.7969 14.744 12.8831C14.8934 12.97 14.9446 13.1606 14.8584 13.3106C14.5027 13.9256 14.0077 14.4356 13.3871 14.8269C12.514 15.3769 11.4146 15.6675 10.2065 15.6675C7.75023 15.6675 5.58461 14.1037 4.81773 11.7762C4.62711 11.1975 4.53086 10.6 4.53086 10C4.53086 9.39812 4.62773 8.79937 4.81836 8.21938C5.58461 5.89437 7.74898 4.33188 10.2059 4.33188C11.414 4.33188 12.554 4.70813 13.5215 5.42313L15.7252 3.2225C14.1315 1.93063 12.2302 1.25 10.2059 1.25C6.83523 1.25 3.82211 3.1175 2.34148 6.12313C1.74523 7.33375 1.44336 8.63813 1.44336 10C1.44336 11.36 1.74523 12.6644 2.34148 13.875C3.82148 16.8819 6.83523 18.75 10.2059 18.75C12.3709 18.75 14.3959 17.9775 15.9065 16.575C17.6402 14.9656 18.5565 12.6925 18.5565 10C18.5565 9.62438 18.5121 9.205 18.424 8.75H10.6246V11.5413H15.0734C15.2459 11.5413 15.3859 11.6812 15.3859 11.8538C15.3859 12.0262 15.2459 12.1663 15.0734 12.1663H10.3121C10.1396 12.1663 9.99961 12.0262 9.99961 11.8538V8.4375C9.99961 8.265 10.1396 8.125 10.3121 8.125H18.6777C18.824 8.125 18.9515 8.22688 18.9827 8.37C19.114 8.96375 19.1809 9.5125 19.1809 10C19.1809 12.8706 18.1952 15.3025 16.3315 17.0331C14.7046 18.5431 12.5296 19.375 10.2059 19.375Z" fill="white"/>
</svg>
