    <svg
                              width="26"
                              height="26"
                              viewBox="0 0 26 26"
                              fill="none"
                              xmlns="http://www.w3.org/2000/svg"
                            >
                              <rect
                                x="1"
                                y="1"
                                width="24"
                                height="24"
                                rx="12"
                                fill="#F7A101"
                                fill-opacity="0.1"
                                stroke="#C601F7"
                                stroke-width="0.7"
                              />
                              <path
                                d="M13.0007 11.9993C14.6115 11.9993 15.9173 10.6935 15.9173 9.08268C15.9173 7.47185 14.6115 6.16602 13.0007 6.16602C11.3898 6.16602 10.084 7.47185 10.084 9.08268C10.084 10.6935 11.3898 11.9993 13.0007 11.9993Z"
                                stroke="#C601F7"
                                strokeLinecap="round"
                                strokeLinejoin="round"
                              />
                              <path
                                d="M17.2058 14.1819L15.1408 16.2469C15.0591 16.3286 14.9833 16.4803 14.9658 16.5911L14.8549 17.3786C14.8141 17.6644 15.0124 17.8627 15.2983 17.8219L16.0858 17.7111C16.1966 17.6936 16.3541 17.6178 16.4299 17.5361L18.4949 15.4711C18.8508 15.1153 19.0199 14.7011 18.4949 14.1761C17.9758 13.6569 17.5616 13.8261 17.2058 14.1819Z"
                                stroke="#C601F7"
                                stroke-miterlimit="10"
                                strokeLinecap="round"
                                strokeLinejoin="round"
                              />
                              <path
                                d="M16.9082 14.4785C17.0832 15.1085 17.5732 15.5985 18.2032 15.7735"
                                stroke="#C601F7"
                                stroke-miterlimit="10"
                                strokeLinecap="round"
                                strokeLinejoin="round"
                              />
                              <path
                                d="M7.98828 17.8333C7.98828 15.5758 10.2341 13.75 12.9991 13.75C13.6058 13.75 14.1891 13.8375 14.7316 14.0008"
                                stroke="#C601F7"
                                strokeLinecap="round"
                                strokeLinejoin="round"
                              />
                            </svg>