<svg width="25" height="25" viewBox="0 0 25 25" fill="none" xmlns="http://www.w3.org/2000/svg">
<g opacity="0.7">
<path d="M16.2109 4.49219C17.3505 4.49219 18.4435 4.94489 19.2493 5.75071C20.0551 6.55653 20.5078 7.64946 20.5078 8.78906V16.2109C20.5078 17.3505 20.0551 18.4435 19.2493 19.2493C18.4435 20.0551 17.3505 20.5078 16.2109 20.5078H8.78906C7.64946 20.5078 6.55653 20.0551 5.75071 19.2493C4.94489 18.4435 4.49219 17.3505 4.49219 16.2109V8.78906C4.49219 7.64946 4.94489 6.55653 5.75071 5.75071C6.55653 4.94489 7.64946 4.49219 8.78906 4.49219H16.2109ZM16.2109 2.92969H8.78906C7.23649 2.93432 5.74882 3.55314 4.65098 4.65098C3.55314 5.74882 2.93432 7.23649 2.92969 8.78906V16.2109C2.93432 17.7635 3.55314 19.2512 4.65098 20.349C5.74882 21.4469 7.23649 22.0657 8.78906 22.0703H16.2109C17.7635 22.0657 19.2512 21.4469 20.349 20.349C21.4469 19.2512 22.0657 17.7635 22.0703 16.2109V8.78906C22.0657 7.23649 21.4469 5.74882 20.349 4.65098C19.2512 3.55314 17.7635 2.93432 16.2109 2.92969Z" fill="white"/>
<path d="M17.6055 6.25C17.3841 6.25 17.1677 6.31564 16.9837 6.43861C16.7997 6.56158 16.6562 6.73637 16.5715 6.94086C16.4868 7.14536 16.4647 7.37038 16.5078 7.58747C16.551 7.80457 16.6576 8.00398 16.8141 8.16049C16.9706 8.31701 17.17 8.4236 17.3871 8.46678C17.6042 8.50996 17.8293 8.4878 18.0337 8.40309C18.2382 8.31839 18.413 8.17494 18.536 7.9909C18.659 7.80686 18.7246 7.59049 18.7246 7.36914C18.7246 7.22217 18.6957 7.07664 18.6394 6.94086C18.5832 6.80508 18.5007 6.68171 18.3968 6.57779C18.2929 6.47387 18.1695 6.39143 18.0337 6.33519C17.898 6.27895 17.7524 6.25 17.6055 6.25Z" fill="white"/>
<path d="M12.5527 9.07618C13.2359 9.0758 13.9038 9.27804 14.4719 9.65732C15.0401 10.0366 15.483 10.5759 15.7446 11.207C16.0062 11.838 16.0747 12.5325 15.9416 13.2025C15.8084 13.8725 15.4795 14.488 14.9964 14.971C14.5134 15.4541 13.8979 15.783 13.2279 15.9162C12.5579 16.0494 11.8634 15.9808 11.2323 15.7192C10.6013 15.4576 10.062 15.0147 9.68271 14.4465C9.30342 13.8784 9.10118 13.2105 9.10156 12.5274C9.10311 11.6125 9.46722 10.7356 10.1141 10.0887C10.761 9.44183 11.6379 9.07773 12.5527 9.07618ZM12.5527 7.51368C11.5611 7.51561 10.5922 7.81146 9.76867 8.36385C8.9451 8.91623 8.30375 9.70035 7.92569 10.6171C7.54762 11.5339 7.4498 12.5422 7.64459 13.5145C7.83938 14.4868 8.31803 15.3796 9.02006 16.08C9.72209 16.7804 10.616 17.257 11.5888 17.4495C12.5616 17.642 13.5696 17.5418 14.4855 17.1616C15.4014 16.7814 16.184 16.1383 16.7345 15.3134C17.2849 14.4885 17.5785 13.519 17.5781 12.5274C17.5779 11.868 17.4476 11.2152 17.1948 10.6063C16.9421 9.99736 16.5717 9.44424 16.1049 8.97858C15.6382 8.51291 15.0842 8.14384 14.4747 7.89248C13.8652 7.64112 13.2121 7.5124 12.5527 7.51368Z" fill="white"/>
</g>
</svg>
