<svg width="166" height="166" viewBox="0 0 166 166" fill="none" xmlns="http://www.w3.org/2000/svg">
<g filter="url(#filter0_d_7534_1173)">
<ellipse cx="83" cy="77.7579" rx="23" ry="22.7579" fill="#292A2A"/>
</g>
<path d="M83.155 81.0845C84.773 81.0845 86.0846 79.7729 86.0846 78.1549C86.0846 76.537 84.773 75.2253 83.155 75.2253C81.537 75.2253 80.2254 76.537 80.2254 78.1549C80.2254 79.7729 81.537 81.0845 83.155 81.0845Z" fill="#FDFDFD"/>
<path d="M87.1832 69H79.1268C77.7671 69 76.4631 69.5401 75.5016 70.5016C74.5401 71.4631 74 72.7671 74 74.1268V82.1832C74 83.5429 74.5401 84.8469 75.5016 85.8084C76.4631 86.7699 77.7671 87.31 79.1268 87.31H87.1832C88.5429 87.31 89.8469 86.7699 90.8084 85.8084C91.7699 84.8469 92.31 83.5429 92.31 82.1832V74.1268C92.31 72.7671 91.7699 71.4631 90.8084 70.5016C89.8469 69.5401 88.5429 69 87.1832 69ZM83.155 82.5494C82.2859 82.5494 81.4363 82.2917 80.7136 81.8088C79.9909 81.3259 79.4277 80.6396 79.0951 79.8367C78.7625 79.0337 78.6755 78.1501 78.845 77.2977C79.0146 76.4453 79.4331 75.6623 80.0477 75.0477C80.6623 74.4331 81.4453 74.0146 82.2977 73.845C83.1501 73.6755 84.0337 73.7625 84.8367 74.0951C85.6396 74.4277 86.3259 74.9909 86.8088 75.7136C87.2917 76.4363 87.5494 77.2859 87.5494 78.155C87.5494 79.3205 87.0864 80.4382 86.2623 81.2623C85.4382 82.0864 84.3205 82.5494 83.155 82.5494ZM87.9156 74.493C87.6983 74.493 87.4859 74.4286 87.3053 74.3079C87.1246 74.1871 86.9838 74.0156 86.9006 73.8148C86.8175 73.6141 86.7957 73.3932 86.8381 73.1801C86.8805 72.967 86.9851 72.7712 87.1388 72.6176C87.2924 72.4639 87.4882 72.3593 87.7013 72.3169C87.9144 72.2745 88.1353 72.2963 88.336 72.3794C88.5368 72.4626 88.7083 72.6034 88.8291 72.7841C88.9498 72.9647 89.0142 73.1771 89.0142 73.3944C89.0142 73.6858 88.8985 73.9652 88.6924 74.1712C88.4864 74.3773 88.207 74.493 87.9156 74.493Z" fill="#FDFDFD"/>
<defs>
<filter id="filter0_d_7534_1173" x="0" y="0" width="166" height="165.516" filterUnits="userSpaceOnUse" color-interpolation-filters="sRGB">
<feFlood flood-opacity="0" result="BackgroundImageFix"/>
<feColorMatrix in="SourceAlpha" type="matrix" values="0 0 0 0 0 0 0 0 0 0 0 0 0 0 0 0 0 0 127 0" result="hardAlpha"/>
<feOffset dy="5"/>
<feGaussianBlur stdDeviation="30"/>
<feComposite in2="hardAlpha" operator="out"/>
<feColorMatrix type="matrix" values="0 0 0 0 0.308368 0 0 0 0 0.445833 0 0 0 0 0.328733 0 0 0 0.15 0"/>
<feBlend mode="normal" in2="BackgroundImageFix" result="effect1_dropShadow_7534_1173"/>
<feBlend mode="normal" in="SourceGraphic" in2="effect1_dropShadow_7534_1173" result="shape"/>
</filter>
</defs>
</svg>
