<svg xmlns="http://www.w3.org/2000/svg" width="18" height="18" viewBox="0 0 18 18" fill="none">
  <path d="M8.99981 1.32031C6.91404 1.32031 6.6525 1.32915 5.83335 1.36653C5.01591 1.40384 4.45763 1.53365 3.96909 1.72352C3.46407 1.91978 3.03577 2.18239 2.60882 2.60934C2.18187 3.03629 1.91926 3.46458 1.723 3.96961C1.53313 4.45811 1.40332 5.0164 1.36601 5.83384C1.32863 6.65299 1.31982 6.91453 1.31982 9.0003C1.31982 11.086 1.32863 11.3476 1.36601 12.1667C1.40332 12.9842 1.53313 13.5425 1.723 14.031C1.91926 14.536 2.18187 14.9643 2.60882 15.3913C3.03577 15.8182 3.46407 16.0808 3.96909 16.2771C4.45763 16.4669 5.01591 16.5968 5.83335 16.634C6.6525 16.6714 6.91404 16.6803 8.99981 16.6803C11.0856 16.6803 11.3471 16.6714 12.1662 16.634C12.9837 16.5968 13.542 16.4669 14.0305 16.2771C14.5355 16.0808 14.9638 15.8182 15.3908 15.3913C15.8177 14.9643 16.0803 14.536 16.2766 14.031C16.4664 13.5425 16.5963 12.9842 16.6336 12.1667C16.6709 11.3476 16.6798 11.086 16.6798 9.0003C16.6798 6.91453 16.6709 6.65299 16.6336 5.83384C16.5963 5.0164 16.4664 4.45811 16.2766 3.96961C16.0803 3.46458 15.8177 3.03629 15.3908 2.60934C14.9638 2.18239 14.5355 1.91978 14.0305 1.72352C13.542 1.53365 12.9837 1.40384 12.1662 1.36653C11.3471 1.32915 11.0856 1.32031 8.99981 1.32031ZM8.99981 2.70412C11.0504 2.70412 11.2933 2.71192 12.1032 2.74887C12.852 2.78305 13.2586 2.90816 13.5292 3.01331C13.8877 3.15262 14.1435 3.31908 14.4123 3.58781C14.681 3.85654 14.8475 4.11241 14.9868 4.47086C15.092 4.74148 15.2171 5.14813 15.2512 5.89692C15.2882 6.70674 15.296 6.94965 15.296 9.0003C15.296 11.0509 15.2882 11.2938 15.2512 12.1037C15.2171 12.8524 15.092 13.2591 14.9868 13.5297C14.8475 13.8882 14.681 14.144 14.4123 14.4128C14.1435 14.6815 13.8877 14.8479 13.5292 14.9873C13.2586 15.0924 12.852 15.2176 12.1032 15.2517C11.2935 15.2886 11.0506 15.2965 8.99981 15.2965C6.94901 15.2965 6.70616 15.2886 5.89643 15.2517C5.14764 15.2176 4.74099 15.0924 4.47037 14.9873C4.11189 14.8479 3.85605 14.6815 3.58729 14.4128C3.31856 14.144 3.15211 13.8882 3.01282 13.5297C2.90764 13.2591 2.78253 12.8524 2.74835 12.1037C2.7114 11.2938 2.7036 11.0509 2.7036 9.0003C2.7036 6.94965 2.7114 6.70674 2.74835 5.89692C2.78253 5.14813 2.90764 4.74148 3.01282 4.47086C3.15211 4.11241 3.31856 3.85654 3.58729 3.58781C3.85605 3.31908 4.11189 3.15262 4.47037 3.01331C4.74099 2.90816 5.14764 2.78305 5.89643 2.74887C6.70625 2.71192 6.94916 2.70412 8.99981 2.70412Z" fill="#0A22A8"/>
  <path d="M8.99994 11.5584C7.58607 11.5584 6.43993 10.4123 6.43993 8.99847C6.43993 7.5846 7.58607 6.43846 8.99994 6.43846C10.4138 6.43846 11.5599 7.5846 11.5599 8.99847C11.5599 10.4123 10.4138 11.5584 8.99994 11.5584ZM8.99994 5.05469C6.82182 5.05469 5.05615 6.82036 5.05615 8.99847C5.05615 11.1766 6.82182 12.9422 8.99994 12.9422C11.178 12.9422 12.9437 11.1766 12.9437 8.99847C12.9437 6.82036 11.178 5.05469 8.99994 5.05469Z" fill="#0A22A8"/>
  <path d="M14.0209 4.90205C14.0209 5.41104 13.6083 5.82363 13.0993 5.82363C12.5904 5.82363 12.1777 5.41104 12.1777 4.90205C12.1777 4.39306 12.5904 3.98047 13.0993 3.98047C13.6083 3.98047 14.0209 4.39306 14.0209 4.90205Z" fill="#0A22A8"/>
</svg>