   <svg
                              width="26"
                              height="26"
                              viewBox="0 0 26 26"
                              fill="none"
                              xmlns="http://www.w3.org/2000/svg"
                            >
                              <rect
                                x="1"
                                y="1"
                                width="24"
                                height="24"
                                rx="12"
                                fill="#F7605F"
                                fill-opacity="0.1"
                                stroke="#5F9CF7"
                                stroke-width="0.7"
                              />
                              <path
                                d="M17.6673 10.8118V16.4994C17.6673 18.2494 16.6231 18.8327 15.334 18.8327H10.6673C9.37815 18.8327 8.33398 18.2494 8.33398 16.4994V10.8118C8.33398 8.91602 9.37815 8.47852 10.6673 8.47852C10.6673 8.84018 10.8131 9.16685 11.0523 9.40601C11.2915 9.64518 11.6181 9.79102 11.9798 9.79102H14.0215C14.7448 9.79102 15.334 9.20185 15.334 8.47852C16.6231 8.47852 17.6673 8.91602 17.6673 10.8118Z"
                                stroke="#5F9CF7"
                                strokeLinecap="round"
                                strokeLinejoin="round"
                              />
                              <path
                                d="M15.3346 8.47852C15.3346 9.20185 14.7455 9.79102 14.0221 9.79102H11.9805C11.6188 9.79102 11.2921 9.64518 11.053 9.40601C10.8138 9.16685 10.668 8.84018 10.668 8.47852C10.668 7.75518 11.2571 7.16602 11.9805 7.16602H14.0221C14.3838 7.16602 14.7105 7.31185 14.9496 7.55102C15.1888 7.79018 15.3346 8.11685 15.3346 8.47852Z"
                                stroke="#5F9CF7"
                                strokeLinecap="round"
                                strokeLinejoin="round"
                              />
                              <path
                                d="M10.668 13.582H13.0013"
                                stroke="#5F9CF7"
                                strokeLinecap="round"
                                strokeLinejoin="round"
                              />
                              <path
                                d="M10.668 15.916H15.3346"
                                stroke="#5F9CF7"
                                strokeLinecap="round"
                                strokeLinejoin="round"
                              />
                            </svg>