<svg width="16" height="16" viewBox="0 0 16 16" fill="none" xmlns="http://www.w3.org/2000/svg">
<path d="M10.9993 4.49995C10.9524 4.54643 10.9152 4.60173 10.8898 4.66266C10.8645 4.72359 10.8514 4.78894 10.8514 4.85495C10.8514 4.92096 10.8645 4.98631 10.8898 5.04724C10.9152 5.10817 10.9524 5.16347 10.9993 5.20995L13.2993 7.50995H1.5293C1.39669 7.50995 1.26951 7.56263 1.17574 7.6564C1.08198 7.75017 1.0293 7.87734 1.0293 8.00995C1.0293 8.14256 1.08198 8.26974 1.17574 8.3635C1.26951 8.45727 1.39669 8.50995 1.5293 8.50995H13.2893L10.9993 10.795C10.9062 10.8886 10.8539 11.0154 10.8539 11.1475C10.8539 11.2795 10.9062 11.4063 10.9993 11.5C11.093 11.5931 11.2197 11.6453 11.3518 11.6453C11.4839 11.6453 11.6106 11.5931 11.7043 11.5L14.8843 8.31995C14.9271 8.27889 14.9611 8.22959 14.9844 8.17503C15.0077 8.12047 15.0197 8.06177 15.0197 8.00245C15.0197 7.94314 15.0077 7.88443 14.9844 7.82987C14.9611 7.77531 14.9271 7.72602 14.8843 7.68495L11.7093 4.49995C11.6628 4.45309 11.6075 4.41589 11.5466 4.3905C11.4857 4.36512 11.4203 4.35205 11.3543 4.35205C11.2883 4.35205 11.2229 4.36512 11.162 4.3905C11.1011 4.41589 11.0458 4.45309 10.9993 4.49995Z" fill="#666666"/>
</svg>
