<svg width="15" height="8" viewBox="0 0 15 8" fill="none" xmlns="http://www.w3.org/2000/svg">
<path d="M5.00071 0.49995C5.04757 0.546431 5.08477 0.601732 5.11015 0.662662C5.13554 0.723591 5.14861 0.788944 5.14861 0.85495C5.14861 0.920956 5.13554 0.986309 5.11015 1.04724C5.08477 1.10817 5.04757 1.16347 5.00071 1.20995L2.70071 3.50995H14.4707C14.6033 3.50995 14.7305 3.56263 14.8243 3.6564C14.918 3.75017 14.9707 3.87734 14.9707 4.00995C14.9707 4.14256 14.918 4.26974 14.8243 4.3635C14.7305 4.45727 14.6033 4.50995 14.4707 4.50995H2.71071L5.00071 6.79495C5.09383 6.88863 5.1461 7.01536 5.1461 7.14745C5.1461 7.27954 5.09383 7.40627 5.00071 7.49995C4.90703 7.59308 4.7803 7.64535 4.64821 7.64535C4.51611 7.64535 4.38939 7.59308 4.29571 7.49995L1.11571 4.31995C1.07291 4.27889 1.03885 4.22959 1.01559 4.17503C0.992321 4.12047 0.980329 4.06177 0.980329 4.00245C0.980329 3.94314 0.992321 3.88443 1.01559 3.82987C1.03885 3.77531 1.07291 3.72602 1.11571 3.68495L4.29071 0.49995C4.33719 0.453086 4.39249 0.415889 4.45342 0.390504C4.51435 0.36512 4.5797 0.352051 4.64571 0.352051C4.71171 0.352051 4.77706 0.36512 4.83799 0.390504C4.89892 0.415889 4.95422 0.453086 5.00071 0.49995Z" fill="#666666"/>
</svg>
