<svg xmlns="http://www.w3.org/2000/svg" width="14" height="14" viewBox="0 0 14 14" fill="none">
  <g clip-path="url(#clip0_5953_3070)">
    <path d="M7.00044 12.6875C6.94287 12.6879 6.88579 12.6768 6.83248 12.6551C6.77918 12.6333 6.7307 12.6012 6.68982 12.5607L3.59669 9.49817C3.15012 9.05454 2.79571 8.52696 2.55386 7.9458C2.31201 7.36465 2.1875 6.74139 2.1875 6.11192C2.1875 5.48245 2.31201 4.85919 2.55386 4.27804C2.79571 3.69688 3.15012 3.1693 3.59669 2.72567C4.50321 1.8301 5.72615 1.32788 7.00044 1.32788C8.27473 1.32788 9.49768 1.8301 10.4042 2.72567C10.8508 3.1693 11.2052 3.69688 11.447 4.27804C11.6889 4.85919 11.8134 5.48245 11.8134 6.11192C11.8134 6.74139 11.6889 7.36465 11.447 7.9458C11.2052 8.52696 10.8508 9.05454 10.4042 9.49817L7.31107 12.5607C7.27019 12.6012 7.22171 12.6333 7.1684 12.6551C7.1151 12.6768 7.05802 12.6879 7.00044 12.6875ZM7.00044 2.18754C5.95624 2.18498 4.95379 2.59729 4.21357 3.33379C3.84901 3.69608 3.55969 4.12688 3.36226 4.60141C3.16484 5.07595 3.0632 5.58483 3.0632 6.09879C3.0632 6.61276 3.16484 7.12164 3.36226 7.59617C3.55969 8.0707 3.84901 8.50151 4.21357 8.86379L7.00044 11.6332L9.78732 8.86379C10.1519 8.50151 10.4412 8.0707 10.6386 7.59617C10.8361 7.12164 10.9377 6.61276 10.9377 6.09879C10.9377 5.58483 10.8361 5.07595 10.6386 4.60141C10.4412 4.12688 10.1519 3.69608 9.78732 3.33379C9.0471 2.59729 8.04464 2.18498 7.00044 2.18754Z" fill="#409EEE"/>
    <path d="M7 8.3125C6.56735 8.3125 6.14442 8.18421 5.78469 7.94384C5.42496 7.70348 5.14458 7.36183 4.97901 6.96212C4.81345 6.56241 4.77013 6.12257 4.85453 5.69824C4.93894 5.27391 5.14728 4.88413 5.45321 4.57821C5.75913 4.27228 6.14891 4.06394 6.57324 3.97953C6.99757 3.89513 7.43741 3.93845 7.83712 4.10401C8.23683 4.26958 8.57848 4.54996 8.81884 4.90969C9.05921 5.26942 9.1875 5.69235 9.1875 6.125C9.1875 6.70516 8.95703 7.26156 8.5468 7.6718C8.13656 8.08203 7.58016 8.3125 7 8.3125ZM7 4.8125C6.74041 4.8125 6.48665 4.88948 6.27082 5.0337C6.05498 5.17792 5.88675 5.3829 5.78741 5.62273C5.68807 5.86256 5.66208 6.12646 5.71272 6.38106C5.76336 6.63566 5.88837 6.86952 6.07192 7.05308C6.25548 7.23664 6.48935 7.36164 6.74395 7.41228C6.99855 7.46292 7.26244 7.43693 7.50227 7.33759C7.7421 7.23825 7.94709 7.07003 8.09131 6.85419C8.23552 6.63835 8.3125 6.38459 8.3125 6.125C8.3125 5.7769 8.17422 5.44306 7.92808 5.19692C7.68194 4.95078 7.3481 4.8125 7 4.8125Z" fill="#409EEE"/>
  </g>
  <defs>
    <clipPath id="clip0_5953_3070">
      <rect width="14" height="14" fill="white"/>
    </clipPath>
  </defs>
</svg>