<svg xmlns="http://www.w3.org/2000/svg" width="12" height="12" viewBox="0 0 13 15" fill="none">
  <path d="M6.18807 14.6053C6.11404 14.6057 6.04066 14.5915 5.97212 14.5635C5.90359 14.5355 5.84125 14.4943 5.78869 14.4422L1.81182 10.5047C1.23766 9.93427 0.781981 9.25596 0.471032 8.50876C0.160083 7.76155 0 6.96023 0 6.15091C0 5.34159 0.160083 4.54026 0.471032 3.79306C0.781981 3.04585 1.23766 2.36754 1.81182 1.79716C2.97734 0.645707 4.5497 0 6.18807 0C7.82644 0 9.3988 0.645707 10.5643 1.79716C11.1385 2.36754 11.5942 3.04585 11.9051 3.79306C12.2161 4.54026 12.3761 5.34159 12.3761 6.15091C12.3761 6.96023 12.2161 7.76155 11.9051 8.50876C11.5942 9.25596 11.1385 9.93427 10.5643 10.5047L6.58744 14.4422C6.53488 14.4943 6.47255 14.5355 6.40402 14.5635C6.33548 14.5915 6.2621 14.6057 6.18807 14.6053ZM6.18807 1.10528C4.84553 1.10199 3.55666 1.6321 2.60495 2.57903C2.13622 3.04483 1.76424 3.59872 1.51041 4.20883C1.25657 4.81894 1.1259 5.47322 1.1259 6.13403C1.1259 6.79484 1.25657 7.44912 1.51041 8.05923C1.76424 8.66934 2.13622 9.22323 2.60495 9.68903L6.18807 13.2497L9.7712 9.68903C10.2399 9.22323 10.6119 8.66934 10.8657 8.05923C11.1196 7.44912 11.2502 6.79484 11.2502 6.13403C11.2502 5.47322 11.1196 4.81894 10.8657 4.20883C10.6119 3.59872 10.2399 3.04483 9.7712 2.57903C8.81948 1.6321 7.53061 1.10199 6.18807 1.10528Z" fill="#409EEE"/>
  <path d="M6.18848 8.98029C5.63222 8.98029 5.08845 8.81534 4.62594 8.5063C4.16342 8.19725 3.80294 7.758 3.59007 7.24408C3.3772 6.73017 3.3215 6.16467 3.43002 5.6191C3.53854 5.07352 3.80641 4.57238 4.19974 4.17905C4.59308 3.78571 5.09422 3.51785 5.63979 3.40933C6.18536 3.30081 6.75086 3.3565 7.26478 3.56938C7.77869 3.78225 8.21795 4.14273 8.52699 4.60525C8.83603 5.06776 9.00098 5.61153 9.00098 6.16779C9.00098 6.91371 8.70466 7.62908 8.17722 8.15653C7.64977 8.68397 6.9344 8.98029 6.18848 8.98029ZM6.18848 4.48029C5.85472 4.48029 5.52846 4.57926 5.25095 4.76468C4.97345 4.95011 4.75715 5.21366 4.62943 5.52201C4.50171 5.83036 4.46829 6.16966 4.5334 6.497C4.59852 6.82435 4.75923 7.12503 4.99524 7.36103C5.23124 7.59703 5.53192 7.75775 5.85926 7.82286C6.18661 7.88798 6.52591 7.85456 6.83426 7.72683C7.14261 7.59911 7.40616 7.38282 7.59158 7.10531C7.77701 6.8278 7.87598 6.50154 7.87598 6.16779C7.87598 5.72023 7.69819 5.29101 7.38172 4.97454C7.06525 4.65808 6.63603 4.48029 6.18848 4.48029Z" fill="#409EEE"/>
</svg>