<svg width="18" height="18" viewBox="0 0 18 18" fill="none" xmlns="http://www.w3.org/2000/svg">
<g clip-path="url(#clip0_4430_1954)">
<path d="M5.625 1.80847e-07H1.125C0.977239 -8.36215e-05 0.830911 0.0289582 0.694382 0.085465C0.557853 0.141972 0.433801 0.224836 0.329318 0.329318C0.224836 0.433801 0.141972 0.557853 0.085465 0.694382C0.0289582 0.830911 -8.36215e-05 0.977239 1.80847e-07 1.125V5.625C1.80847e-07 5.92337 0.118527 6.20952 0.329505 6.4205C0.540483 6.63147 0.826632 6.75 1.125 6.75C1.42337 6.75 1.70952 6.63147 1.9205 6.4205C2.13147 6.20952 2.25 5.92337 2.25 5.625V2.25H5.625C5.92337 2.25 6.20952 2.13147 6.4205 1.9205C6.63147 1.70952 6.75 1.42337 6.75 1.125C6.75 0.826632 6.63147 0.540483 6.4205 0.329505C6.20952 0.118527 5.92337 1.80847e-07 5.625 1.80847e-07Z" fill="white"/>
<path d="M16.875 1.80847e-07H12.375C12.0766 1.80847e-07 11.7905 0.118527 11.5795 0.329505C11.3685 0.540483 11.25 0.826632 11.25 1.125C11.25 1.42337 11.3685 1.70952 11.5795 1.9205C11.7905 2.13147 12.0766 2.25 12.375 2.25H15.75V5.625C15.75 5.92337 15.8685 6.20952 16.0795 6.4205C16.2905 6.63147 16.5766 6.75 16.875 6.75C17.1734 6.75 17.4595 6.63147 17.6705 6.4205C17.8815 6.20952 18 5.92337 18 5.625V1.125C18.0001 0.977239 17.971 0.830911 17.9145 0.694382C17.858 0.557853 17.7752 0.433801 17.6707 0.329318C17.5662 0.224836 17.4421 0.141972 17.3056 0.085465C17.1691 0.0289582 17.0228 -8.36215e-05 16.875 1.80847e-07Z" fill="white"/>
<path d="M5.625 15.75H2.25V12.375C2.25 12.0766 2.13147 11.7905 1.9205 11.5795C1.70952 11.3685 1.42337 11.25 1.125 11.25C0.826632 11.25 0.540483 11.3685 0.329505 11.5795C0.118527 11.7905 1.80847e-07 12.0766 1.80847e-07 12.375V16.875C-8.36215e-05 17.0228 0.0289582 17.1691 0.085465 17.3056C0.141972 17.4421 0.224836 17.5662 0.329318 17.6707C0.433801 17.7752 0.557853 17.858 0.694382 17.9145C0.830911 17.971 0.977239 18.0001 1.125 18H5.625C5.92337 18 6.20952 17.8815 6.4205 17.6705C6.63147 17.4595 6.75 17.1734 6.75 16.875C6.75 16.5766 6.63147 16.2905 6.4205 16.0795C6.20952 15.8685 5.92337 15.75 5.625 15.75Z" fill="white"/>
<path d="M16.875 11.25C16.7272 11.2499 16.5809 11.279 16.4444 11.3355C16.3079 11.392 16.1838 11.4748 16.0793 11.5793C15.9748 11.6838 15.892 11.8079 15.8355 11.9444C15.779 12.0809 15.7499 12.2272 15.75 12.375V15.75H12.375C12.0766 15.75 11.7905 15.8685 11.5795 16.0795C11.3685 16.2905 11.25 16.5766 11.25 16.875C11.25 17.1734 11.3685 17.4595 11.5795 17.6705C11.7905 17.8815 12.0766 18 12.375 18H16.875C17.0228 18.0001 17.1691 17.971 17.3056 17.9145C17.4421 17.858 17.5662 17.7752 17.6707 17.6707C17.7752 17.5662 17.858 17.4421 17.9145 17.3056C17.971 17.1691 18.0001 17.0228 18 16.875V12.375C18.0001 12.2272 17.971 12.0809 17.9145 11.9444C17.858 11.8079 17.7752 11.6838 17.6707 11.5793C17.5662 11.4748 17.4421 11.392 17.3056 11.3355C17.1691 11.279 17.0228 11.2499 16.875 11.25Z" fill="white"/>
</g>
<defs>
<clipPath id="clip0_4430_1954">
<rect width="18" height="18" fill="white"/>
</clipPath>
</defs>
</svg>
