<svg width="26" height="26" viewBox="0 0 26 26" fill="none" xmlns="http://www.w3.org/2000/svg">
<rect x="1" y="1" width="24" height="24" rx="12" fill="#F7605F" fill-opacity="0.1" stroke="#F7605F" stroke-width="0.7"/>
<path d="M11.8998 18.6004C12.675 18.6004 13.4072 18.2534 13.967 17.6254L15.7759 15.5432C15.9051 15.3945 15.9051 15.1301 15.7759 14.9814C15.6467 14.8326 15.417 14.8326 15.2878 14.9814L13.479 17.047C13.0626 17.5262 12.5028 17.7907 11.8998 17.7907C11.2969 17.7907 10.7514 17.5262 10.3207 17.047C9.89005 16.5678 9.67471 15.9233 9.67471 15.2292C9.67471 14.5352 9.9044 13.9072 10.3207 13.4115L14.4121 8.70176C14.7135 8.35472 15.1011 8.17295 15.5318 8.17295C15.9481 8.17295 16.3501 8.35472 16.6515 8.70176C16.953 9.04879 17.1109 9.49497 17.1109 9.99073C17.1109 10.47 16.953 10.9327 16.6515 11.2797L12.5458 16.0059C12.1869 16.4191 11.584 16.4191 11.2251 16.0059C11.0529 15.8076 10.9524 15.5267 10.9524 15.2458C10.9524 14.9648 11.0529 14.6839 11.2251 14.4856L13.0483 12.3869C13.1775 12.2382 13.1775 11.9738 13.0483 11.825C12.9191 11.6763 12.6894 11.6763 12.5602 11.825L10.7514 13.9237C10.4499 14.2708 10.2777 14.75 10.2777 15.2458C10.2777 15.7415 10.4499 16.2208 10.7514 16.5678C11.383 17.2949 12.4166 17.2949 13.0483 16.5678L17.1396 11.8581C17.5703 11.3623 17.8 10.7178 17.8 10.0073C17.8 9.29667 17.5703 8.65218 17.1396 8.15642C16.2639 7.14838 14.814 7.14838 13.9383 8.15642L9.84698 12.8661C9.30147 13.4941 9 14.3369 9 15.2458C9 16.1381 9.30147 16.9809 9.84698 17.6254C10.3925 18.2534 11.1246 18.6004 11.8998 18.6004Z" fill="#F7605F"/>
</svg>
