 <svg
                    width="50"
                    height="50"
                    viewBox="0 0 50 50"
                    fill="none"
                    xmlns="http://www.w3.org/2000/svg"
                  >
                    <circle cx="25" cy="25" r="24.5" stroke="#409EEE" />
                    <path
                      d="M24.7497 30.0518C27.5351 30.0518 29.8002 27.9462 29.8002 25.3597V18.3215C29.8002 15.7338 27.5351 13.6294 24.7497 13.6294C21.9644 13.6294 19.6992 15.7338 19.6992 18.3215V25.3597C19.6992 27.9462 21.9644 30.0518 24.7497 30.0518Z"
                      fill="#409EEE"
                    />
                    <path
                      d="M33.5869 25.3575V23.0114C33.5869 22.3639 33.0225 21.8384 32.3243 21.8384C31.6261 21.8384 31.0617 22.3639 31.0617 23.0114V25.3575C31.0617 28.5915 28.2296 31.2226 24.7485 31.2226C21.2675 31.2226 18.4354 28.5915 18.4354 25.3575V23.0114C18.4354 22.3639 17.871 21.8384 17.1728 21.8384C16.4746 21.8384 15.9102 22.3639 15.9102 23.0114V25.3575C15.9102 29.4865 19.2094 32.9024 23.4859 33.4748V34.7417H19.698C18.9998 34.7417 18.4354 35.2661 18.4354 35.9148C18.4354 36.5634 18.9998 37.0878 19.698 37.0878H29.799C30.4973 37.0878 31.0617 36.5634 31.0617 35.9148C31.0617 35.2661 30.4973 34.7417 29.799 34.7417H26.0112V33.4748C30.2877 32.9024 33.5869 29.4865 33.5869 25.3575Z"
                      fill="#409EEE"
                    />
                  </svg>