<svg width="50" height="50" viewBox="0 0 50 50" fill="none" xmlns="http://www.w3.org/2000/svg">
<circle cx="25" cy="25" r="24.5" stroke="white" stroke-opacity="0.37"/>
<path d="M24.7497 30.0513C27.5351 30.0513 29.8002 27.9458 29.8002 25.3592V18.321C29.8002 15.7333 27.5351 13.6289 24.7497 13.6289C21.9644 13.6289 19.6992 15.7333 19.6992 18.321V25.3592C19.6992 27.9458 21.9644 30.0513 24.7497 30.0513Z" fill="white"/>
<path d="M33.5869 25.357V23.0109C33.5869 22.3634 33.0225 21.8379 32.3243 21.8379C31.6261 21.8379 31.0617 22.3634 31.0617 23.0109V25.357C31.0617 28.591 28.2296 31.2221 24.7485 31.2221C21.2675 31.2221 18.4354 28.591 18.4354 25.357V23.0109C18.4354 22.3634 17.871 21.8379 17.1728 21.8379C16.4746 21.8379 15.9102 22.3634 15.9102 23.0109V25.357C15.9102 29.4861 19.2094 32.9019 23.4859 33.4744V34.7412H19.698C18.9998 34.7412 18.4354 35.2656 18.4354 35.9143C18.4354 36.563 18.9998 37.0873 19.698 37.0873H29.799C30.4973 37.0873 31.0617 36.563 31.0617 35.9143C31.0617 35.2656 30.4973 34.7412 29.799 34.7412H26.0112V33.4744C30.2877 32.9019 33.5869 29.4861 33.5869 25.357Z" fill="white"/>
</svg>
