<svg width="20" height="20" viewBox="0 0 20 20" fill="none" xmlns="http://www.w3.org/2000/svg">
<path fill-rule="evenodd" clip-rule="evenodd" d="M12.0229 14.436C11.5083 14.2647 10.7704 14.1662 9.99796 14.166C9.22597 14.1658 8.48818 14.2643 7.97345 14.4357C7.74883 14.5105 7.5861 14.5931 7.49914 14.6655V15.4158C7.49924 15.8794 7.48837 16.1142 7.42967 16.3966C7.30507 16.9959 6.97152 17.4602 6.33227 17.497C4.65059 17.7764 3.52729 17.916 2.91694 17.916C1.7025 17.916 0.833984 16.83 0.833984 15.8327V14.5827C0.833984 11.4794 5.02286 9.16494 9.99832 9.16602C14.9749 9.16709 19.1623 11.4801 19.162 14.5601C19.1657 14.6986 19.1674 14.8422 19.1673 15.0039C19.1673 15.1217 19.1667 15.215 19.1648 15.4236C19.1629 15.6294 19.1623 15.7203 19.1623 15.8327C19.1623 16.824 18.2926 17.916 17.0793 17.916C16.4696 17.916 15.3478 17.7766 13.6688 17.4978C12.7919 17.4622 12.551 16.8197 12.5051 15.8694C12.4985 15.7336 12.4972 15.6281 12.4971 15.417C12.4971 14.9854 12.4971 14.9498 12.4971 14.6656C12.4101 14.5933 12.2475 14.5107 12.0229 14.436ZM5.83248 15.416V14.5827C5.83248 13.1111 7.67119 12.4988 9.99832 12.4993C12.3268 12.4999 14.1638 13.1112 14.1638 14.5827C14.1637 14.9466 14.1637 14.9466 14.1638 15.4158C14.1638 15.6014 14.1649 15.6884 14.1698 15.789C14.1716 15.8261 14.1739 15.8606 14.1765 15.8923C15.6352 16.1303 16.6158 16.2493 17.0793 16.2493C17.2781 16.2493 17.4956 15.9762 17.4956 15.8327C17.4956 15.7136 17.4963 15.6193 17.4982 15.4085C17.5 15.2048 17.5006 15.1148 17.5007 15.0036C17.5007 14.856 17.4992 14.7272 17.4956 14.5827C17.4956 12.6669 14.1766 10.8336 9.99796 10.8327C5.82066 10.8318 2.50065 12.6662 2.50065 14.5827V15.8327C2.50065 15.9812 2.71514 16.2493 2.91694 16.2493C3.38058 16.2493 4.36131 16.1303 5.82033 15.8922C5.82941 15.7806 5.83252 15.6332 5.83248 15.416ZM5.83398 4.51119V6.66602H4.16732V1.66602H9.16732V3.33268H7.0125L10.0007 6.32084L14.4114 1.91009L15.5899 3.0886L10.0007 8.67786L5.83398 4.51119Z" fill="#E20808"/>
</svg>
