<svg width="26" height="26" viewBox="0 0 26 30" fill="none" xmlns="http://www.w3.org/2000/svg">
<path d="M25.3036 27.2426H24.1429V1.36213C24.1429 0.609838 23.5193 0 22.75 0H3.25C2.48074 0 1.85714 0.609838 1.85714 1.36213V27.2426H0.696429C0.311826 27.2426 0 27.5476 0 27.9237V29.0588H26V27.9237C26 27.5476 25.6882 27.2426 25.3036 27.2426ZM7.42857 4.31342C7.42857 3.9373 7.7404 3.63235 8.125 3.63235H10.4464C10.831 3.63235 11.1429 3.9373 11.1429 4.31342V6.58364C11.1429 6.95976 10.831 7.26471 10.4464 7.26471H8.125C7.7404 7.26471 7.42857 6.95976 7.42857 6.58364V4.31342ZM7.42857 9.76195C7.42857 9.38583 7.7404 9.08088 8.125 9.08088H10.4464C10.831 9.08088 11.1429 9.38583 11.1429 9.76195V12.0322C11.1429 12.4083 10.831 12.7132 10.4464 12.7132H8.125C7.7404 12.7132 7.42857 12.4083 7.42857 12.0322V9.76195ZM10.4464 18.1618H8.125C7.7404 18.1618 7.42857 17.8568 7.42857 17.4807V15.2105C7.42857 14.8344 7.7404 14.5294 8.125 14.5294H10.4464C10.831 14.5294 11.1429 14.8344 11.1429 15.2105V17.4807C11.1429 17.8568 10.831 18.1618 10.4464 18.1618ZM14.8571 27.2426H11.1429V22.4752C11.1429 22.0991 11.4547 21.7941 11.8393 21.7941H14.1607C14.5453 21.7941 14.8571 22.0991 14.8571 22.4752V27.2426ZM18.5714 17.4807C18.5714 17.8568 18.2596 18.1618 17.875 18.1618H15.5536C15.169 18.1618 14.8571 17.8568 14.8571 17.4807V15.2105C14.8571 14.8344 15.169 14.5294 15.5536 14.5294H17.875C18.2596 14.5294 18.5714 14.8344 18.5714 15.2105V17.4807ZM18.5714 12.0322C18.5714 12.4083 18.2596 12.7132 17.875 12.7132H15.5536C15.169 12.7132 14.8571 12.4083 14.8571 12.0322V9.76195C14.8571 9.38583 15.169 9.08088 15.5536 9.08088H17.875C18.2596 9.08088 18.5714 9.38583 18.5714 9.76195V12.0322ZM18.5714 6.58364C18.5714 6.95976 18.2596 7.26471 17.875 7.26471H15.5536C15.169 7.26471 14.8571 6.95976 14.8571 6.58364V4.31342C14.8571 3.9373 15.169 3.63235 15.5536 3.63235H17.875C18.2596 3.63235 18.5714 3.9373 18.5714 4.31342V6.58364Z" fill="white"/>
</svg>
