<svg width="40" height="40" viewBox="0 0 44 44" fill="none" xmlns="http://www.w3.org/2000/svg">
<circle cx="22" cy="22" r="22" fill="#409EEE" fill-opacity="0.25"/>
<path d="M29.3287 17.9214C29.3265 17.9054 29.3265 17.8892 29.3287 17.8733C29.1922 17.5818 29.0087 17.3147 28.7856 17.0827L25.1556 13.4802C24.9 13.2249 24.5967 13.0224 24.2628 12.8844C23.929 12.7464 23.5712 12.6755 23.21 12.6758H16.5C15.953 12.6758 15.4284 12.8931 15.0416 13.2799C14.6548 13.6667 14.4375 14.1913 14.4375 14.7383V29.8633C14.4375 30.4103 14.6548 30.9349 15.0416 31.3217C15.4284 31.7085 15.953 31.9258 16.5 31.9258H27.5C28.047 31.9258 28.5716 31.7085 28.9584 31.3217C29.3452 30.9349 29.5625 30.4103 29.5625 29.8633V19.0283C29.5621 18.6471 29.4825 18.2702 29.3287 17.9214ZM24.75 15.0202L27.2181 17.4883H25.4375C25.2552 17.4883 25.0803 17.4158 24.9514 17.2869C24.8224 17.158 24.75 16.9831 24.75 16.8008V15.0202ZM28.1875 29.8633C28.1875 30.0456 28.1151 30.2205 27.9861 30.3494C27.8572 30.4783 27.6823 30.5508 27.5 30.5508H16.5C16.3177 30.5508 16.1428 30.4783 16.0139 30.3494C15.8849 30.2205 15.8125 30.0456 15.8125 29.8633V14.7383C15.8125 14.5559 15.8849 14.3811 16.0139 14.2521C16.1428 14.1232 16.3177 14.0508 16.5 14.0508H23.21H23.375V16.8008C23.375 17.3478 23.5923 17.8724 23.9791 18.2592C24.3659 18.646 24.8905 18.8633 25.4375 18.8633H28.1875C28.1909 18.9182 28.1909 18.9733 28.1875 19.0283V29.8633Z" fill="#409EEE"/>
<path d="M19.4502 24.5635L18.5634 25.4573L18.364 25.251C18.2999 25.1869 18.2238 25.1361 18.14 25.1014C18.0563 25.0667 17.9665 25.0488 17.8759 25.0488C17.7852 25.0488 17.6954 25.0667 17.6117 25.1014C17.5279 25.1361 17.4518 25.1869 17.3877 25.251C17.3236 25.3151 17.2728 25.3912 17.2381 25.475C17.2034 25.5587 17.1855 25.6485 17.1855 25.7391C17.1855 25.8298 17.2034 25.9196 17.2381 26.0033C17.2728 26.0871 17.3236 26.1632 17.3877 26.2273L18.0752 26.9148C18.1391 26.9792 18.2152 27.0304 18.299 27.0653C18.3827 27.1002 18.4726 27.1181 18.5634 27.1181C18.6541 27.1181 18.744 27.1002 18.8278 27.0653C18.9115 27.0304 18.9876 26.9792 19.0515 26.9148L20.4265 25.5398C20.5559 25.4103 20.6287 25.2347 20.6287 25.0516C20.6287 24.8686 20.5559 24.693 20.4265 24.5635C20.297 24.4341 20.1214 24.3613 19.9384 24.3613C19.7553 24.3613 19.5797 24.4341 19.4502 24.5635Z" fill="#409EEE"/>
<path d="M19.4502 20.4385L18.5634 21.3323L18.364 21.126C18.2345 20.9966 18.0589 20.9238 17.8759 20.9238C17.6928 20.9238 17.5172 20.9966 17.3877 21.126C17.2583 21.2555 17.1855 21.4311 17.1855 21.6141C17.1855 21.7972 17.2583 21.9728 17.3877 22.1023L18.0752 22.7898C18.1391 22.8542 18.2152 22.9054 18.299 22.9403C18.3827 22.9752 18.4726 22.9931 18.5634 22.9931C18.6541 22.9931 18.744 22.9752 18.8278 22.9403C18.9115 22.9054 18.9876 22.8542 19.0515 22.7898L20.4265 21.4148C20.5559 21.2853 20.6287 21.1097 20.6287 20.9266C20.6287 20.7436 20.5559 20.568 20.4265 20.4385C20.297 20.3091 20.1214 20.2363 19.9384 20.2363C19.7553 20.2363 19.5797 20.3091 19.4502 20.4385Z" fill="#409EEE"/>
<path d="M26.125 20.9258H22.6875C22.5052 20.9258 22.3303 20.9982 22.2014 21.1271C22.0724 21.2561 22 21.4309 22 21.6133C22 21.7956 22.0724 21.9705 22.2014 22.0994C22.3303 22.2283 22.5052 22.3008 22.6875 22.3008H26.125C26.3073 22.3008 26.4822 22.2283 26.6111 22.0994C26.7401 21.9705 26.8125 21.7956 26.8125 21.6133C26.8125 21.4309 26.7401 21.2561 26.6111 21.1271C26.4822 20.9982 26.3073 20.9258 26.125 20.9258Z" fill="#409EEE"/>
<path d="M26.125 25.0508H22.6875C22.5052 25.0508 22.3303 25.1232 22.2014 25.2521C22.0724 25.3811 22 25.5559 22 25.7383C22 25.9206 22.0724 26.0955 22.2014 26.2244C22.3303 26.3533 22.5052 26.4258 22.6875 26.4258H26.125C26.3073 26.4258 26.4822 26.3533 26.6111 26.2244C26.7401 26.0955 26.8125 25.9206 26.8125 25.7383C26.8125 25.5559 26.7401 25.3811 26.6111 25.2521C26.4822 25.1232 26.3073 25.0508 26.125 25.0508Z" fill="#409EEE"/>
<ellipse cx="26.4008" cy="14.6" rx="6.6" ry="6.6" fill="#409EEE"/>
<path d="M28.8501 15.8867L27.3633 16.1748C26.359 15.6707 25.7386 15.0917 25.3776 14.1891L25.6555 12.698L25.1301 11.3008H23.7758C23.3688 11.3008 23.0482 11.6372 23.109 12.0397C23.2608 13.0446 23.7083 14.8666 25.0165 16.1748C26.3903 17.5486 28.369 18.1448 29.458 18.3817C29.8785 18.4732 30.2516 18.1452 30.2516 17.7148V16.4207L28.8501 15.8867Z" stroke="white" stroke-linecap="round" stroke-linejoin="round"/>
</svg>
