<svg xmlns="http://www.w3.org/2000/svg" width="18" height="18" viewBox="0 0 18 18" fill="none">
  <path d="M17.4375 5.06261V2.81261H12.1781C11.9465 2.15469 11.5163 1.58488 10.9471 1.1818C10.3778 0.778729 9.69751 0.562256 9 0.562256C8.30249 0.562256 7.62217 0.778729 7.05291 1.1818C6.48366 1.58488 6.05353 2.15469 5.82188 2.81261H0.5625V5.06261H1.96875V15.4689H0.5625V17.4376H17.4375V15.4689H16.0312V5.06261H17.4375ZM16.875 3.37511V4.50011H12.3242C12.3568 4.31436 12.3738 4.1262 12.375 3.93761C12.3738 3.74902 12.3568 3.56086 12.3242 3.37511H16.875ZM9 1.12511C9.55626 1.12511 10.1 1.29006 10.5625 1.5991C11.0251 1.90814 11.3855 2.3474 11.5984 2.86131C11.8113 3.37523 11.867 3.94073 11.7585 4.4863C11.6499 5.03187 11.3821 5.53301 10.9887 5.92635C10.5954 6.31968 10.0943 6.58755 9.54869 6.69607C9.00312 6.80459 8.43762 6.74889 7.9237 6.53602C7.40979 6.32315 6.97053 5.96267 6.66149 5.50015C6.35245 5.03764 6.1875 4.49387 6.1875 3.93761C6.18833 3.19194 6.48491 2.47705 7.01217 1.94978C7.53944 1.42252 8.25433 1.12594 9 1.12511ZM1.125 4.50011V3.37511H5.67582C5.64316 3.56086 5.62616 3.74902 5.625 3.93761C5.62616 4.1262 5.64316 4.31436 5.67582 4.50011H1.125ZM16.875 16.0314V16.8751H1.125V16.0314H16.875ZM10.9688 15.4689H7.03125V12.9376C7.03125 12.4155 7.23867 11.9147 7.60788 11.5455C7.9771 11.1763 8.47786 10.9689 9 10.9689C9.52215 10.9689 10.0229 11.1763 10.3921 11.5455C10.7613 11.9147 10.9688 12.4155 10.9688 12.9376V15.4689ZM15.4688 15.4689H11.5312V12.9376C11.5312 12.2663 11.2646 11.6224 10.7899 11.1477C10.3152 10.673 9.67133 10.4064 9 10.4064C8.32867 10.4064 7.68484 10.673 7.21014 11.1477C6.73544 11.6224 6.46875 12.2663 6.46875 12.9376V15.4689H2.53125V5.06261H5.82188C6.05353 5.72053 6.48366 6.29034 7.05291 6.69342C7.62217 7.09649 8.30249 7.31296 9 7.31296C9.69751 7.31296 10.3778 7.09649 10.9471 6.69342C11.5163 6.29034 11.9465 5.72053 12.1781 5.06261H15.4688V15.4689Z" fill="#39CE8C"/>
</svg>