<svg width="16" height="16" viewBox="0 0 16 16" fill="none" xmlns="http://www.w3.org/2000/svg">
<g opacity="0.86">
<path d="M5.66536 12.6673H5.33203C2.66536 12.6673 1.33203 12.0007 1.33203 8.66732V5.33398C1.33203 2.66732 2.66536 1.33398 5.33203 1.33398H10.6654C13.332 1.33398 14.6654 2.66732 14.6654 5.33398V8.66732C14.6654 11.334 13.332 12.6673 10.6654 12.6673H10.332C10.1254 12.6673 9.92536 12.7673 9.7987 12.934L8.7987 14.2673C8.3587 14.854 7.6387 14.854 7.1987 14.2673L6.1987 12.934C6.09203 12.7873 5.84536 12.6673 5.66536 12.6673Z" stroke="white" stroke-miterlimit="10" strokeLinecap="round" strokeLinejoin="round"/>
<path d="M10.6656 7.33333H10.6716" stroke="white" stroke-width="2" strokeLinecap="round" strokeLinejoin="round"/>
<path d="M7.99764 7.33333H8.00363" stroke="white" stroke-width="2" strokeLinecap="round" strokeLinejoin="round"/>
<path d="M5.32967 7.33333H5.33566" stroke="white" stroke-width="2" strokeLinecap="round" strokeLinejoin="round"/>
</g>
</svg>
