<svg width="18" height="18" viewBox="0 0 18 18" fill="none" xmlns="http://www.w3.org/2000/svg">
<path d="M9 16.3125C13.0386 16.3125 16.3125 13.0386 16.3125 9C16.3125 4.96142 13.0386 1.6875 9 1.6875C4.96142 1.6875 1.6875 4.96142 1.6875 9C1.6875 13.0386 4.96142 16.3125 9 16.3125Z" stroke="#F96147"/>
<path fill-rule="evenodd" clip-rule="evenodd" d="M8.6 5C7.93724 5 7.4 5.53726 7.4 6.2V7.4H6.2C5.53726 7.4 5 7.93724 5 8.6V9.4C5 10.0628 5.53726 10.6 6.2 10.6H7.4V11.8C7.4 12.4628 7.93724 13 8.6 13H9.4C10.0628 13 10.6 12.4628 10.6 11.8V10.6H11.8C12.4628 10.6 13 10.0628 13 9.4V8.6C13 7.93724 12.4628 7.4 11.8 7.4H10.6V6.2C10.6 5.53726 10.0628 5 9.4 5H8.6ZM10.6 9.8H11.8C12.0209 9.8 12.2 9.62092 12.2 9.4V8.6C12.2 8.37908 12.0209 8.2 11.8 8.2H10.6H9.8V6.2C9.8 5.97909 9.62092 5.8 9.4 5.8H8.6C8.37908 5.8 8.2 5.97909 8.2 6.2V8.2H7.4H6.2C5.97909 8.2 5.8 8.37908 5.8 8.6V9.4C5.8 9.62092 5.97909 9.8 6.2 9.8H7.4H8.2V11.8C8.2 12.0209 8.37908 12.2 8.6 12.2H9.4C9.62092 12.2 9.8 12.0209 9.8 11.8V9.8H10.6Z" fill="#F96147"/>
</svg>
