<svg width="100" height="100" viewBox="0 0 180 180" fill="none" xmlns="http://www.w3.org/2000/svg">
<circle cx="90" cy="90" r="90" fill="#373737"/>
<circle cx="90" cy="90" r="89.5" stroke="white" stroke-opacity="0.47"/>
<path d="M46.3979 82.0793V122.966C46.3979 124.578 47.7026 125.886 49.3112 125.886H75.5247V79.1582H49.3112C47.7026 79.1582 46.3979 80.467 46.3979 82.0793Z" fill="#409EEE"/>
<path d="M127.951 73.3176H104.65V55.7943C104.65 49.3516 99.4252 44.1133 93.0006 44.1133H84.2615C82.6547 44.1133 81.3502 45.4213 81.3502 47.0328V60.859L70.0838 80.6311C69.8273 81.0738 69.6992 81.5711 69.6992 82.0795V122.966C69.6992 124.578 71.0039 125.886 72.6113 125.886H119.359C123.962 125.886 128.144 123.159 130.002 118.947L139.345 97.8668C139.515 97.494 139.602 97.09 139.602 96.6818V84.9996C139.603 78.5563 134.377 73.3176 127.951 73.3176Z" fill="#D7ECFF"/>
</svg>
