<svg width="15" height="8" viewBox="0 0 15 8" fill="none" xmlns="http://www.w3.org/2000/svg">
<path d="M5.00071 0.499462C5.04757 0.545943 5.08477 0.601244 5.11015 0.662173C5.13554 0.723103 5.14861 0.788456 5.14861 0.854462C5.14861 0.920468 5.13554 0.985821 5.11015 1.04675C5.08477 1.10768 5.04757 1.16298 5.00071 1.20946L2.70071 3.50946H14.4707C14.6033 3.50946 14.7305 3.56214 14.8243 3.65591C14.918 3.74968 14.9707 3.87685 14.9707 4.00946C14.9707 4.14207 14.918 4.26925 14.8243 4.36302C14.7305 4.45678 14.6033 4.50946 14.4707 4.50946H2.71071L5.00071 6.79446C5.09383 6.88814 5.1461 7.01487 5.1461 7.14696C5.1461 7.27906 5.09383 7.40578 5.00071 7.49946C4.90703 7.59259 4.7803 7.64486 4.64821 7.64486C4.51611 7.64486 4.38939 7.59259 4.29571 7.49946L1.11571 4.31946C1.07291 4.2784 1.03885 4.2291 1.01559 4.17454C0.992321 4.11998 0.980329 4.06128 0.980329 4.00196C0.980329 3.94265 0.992321 3.88395 1.01559 3.82938C1.03885 3.77482 1.07291 3.72553 1.11571 3.68446L4.29071 0.499462C4.33719 0.452597 4.39249 0.4154 4.45342 0.390016C4.51435 0.364632 4.5797 0.351563 4.64571 0.351562C4.71171 0.351563 4.77706 0.364632 4.83799 0.390016C4.89892 0.4154 4.95422 0.452597 5.00071 0.499462Z" fill="white"/>
</svg>
