<svg width="16" height="16" viewBox="0 0 16 16" fill="none" xmlns="http://www.w3.org/2000/svg">
<path d="M10.9993 4.49946C10.9524 4.54594 10.9152 4.60124 10.8898 4.66217C10.8645 4.7231 10.8514 4.78846 10.8514 4.85446C10.8514 4.92047 10.8645 4.98582 10.8898 5.04675C10.9152 5.10768 10.9524 5.16298 10.9993 5.20946L13.2993 7.50946H1.5293C1.39669 7.50946 1.26951 7.56214 1.17574 7.65591C1.08198 7.74968 1.0293 7.87685 1.0293 8.00946C1.0293 8.14207 1.08198 8.26925 1.17574 8.36302C1.26951 8.45678 1.39669 8.50946 1.5293 8.50946H13.2893L10.9993 10.7945C10.9062 10.8881 10.8539 11.0149 10.8539 11.147C10.8539 11.2791 10.9062 11.4058 10.9993 11.4995C11.093 11.5926 11.2197 11.6449 11.3518 11.6449C11.4839 11.6449 11.6106 11.5926 11.7043 11.4995L14.8843 8.31946C14.9271 8.2784 14.9611 8.2291 14.9844 8.17454C15.0077 8.11998 15.0197 8.06128 15.0197 8.00196C15.0197 7.94265 15.0077 7.88395 14.9844 7.82938C14.9611 7.77482 14.9271 7.72553 14.8843 7.68446L11.7093 4.49946C11.6628 4.4526 11.6075 4.4154 11.5466 4.39002C11.4857 4.36463 11.4203 4.35156 11.3543 4.35156C11.2883 4.35156 11.2229 4.36463 11.162 4.39002C11.1011 4.4154 11.0458 4.4526 10.9993 4.49946Z" fill="white"/>
</svg>
