<svg xmlns="http://www.w3.org/2000/svg" width="18" height="18" viewBox="0 0 17 18" fill="none">
  <g clip-path="url(#clip0_3578_915)">
    <path d="M8.57565 12.5463C7.57769 12.5463 6.65883 12.0793 5.96917 11.2138C5.49362 10.6158 5.07147 9.97405 4.66292 9.35342C4.48005 9.07534 4.29769 8.79726 4.11029 8.52321C4.03623 8.41541 4.01004 8.28896 4.02717 8.16907C4.02616 8.16201 4.02565 8.15547 4.02465 8.14892C3.7909 5.81045 5.13041 5.00997 5.71729 4.7737C5.82611 4.72987 5.94499 4.72534 6.05632 4.7606L8.75146 5.60743C8.83559 5.62657 9.03004 5.617 9.13482 5.59584C9.13633 5.59433 9.13785 5.59332 9.13986 5.59181C9.38822 5.39635 9.64816 5.2815 9.89903 5.16966C10.1811 5.04422 10.4728 4.91375 10.8088 4.65028C10.9433 4.5455 11.1212 4.51477 11.2814 4.56917C12.9574 5.13641 13.0294 6.22202 13.0163 8.25168C13.0143 8.59374 12.8037 8.99272 12.6788 9.19977C12.5483 9.41689 12.4042 9.62696 12.2597 9.83652C12.1176 10.0431 11.9755 10.2496 11.8481 10.4652C11.1217 11.6989 10.0114 12.4551 8.80234 12.5402C8.72678 12.5437 8.65121 12.5463 8.57565 12.5463ZM5.03016 8.08393C5.19036 8.3212 5.34803 8.56049 5.50521 8.80028C5.90066 9.40178 6.31022 10.0249 6.75756 10.5861C7.28652 11.2491 7.99128 11.5861 8.73232 11.5337C9.60534 11.4722 10.425 10.8954 10.9806 9.95239C11.1197 9.71612 11.2748 9.49044 11.431 9.26375C11.5635 9.0708 11.696 8.87786 11.8169 8.67837C11.9408 8.47284 12.0053 8.29501 12.0103 8.23909C12.0219 6.26887 11.8934 5.89105 11.2018 5.61096C10.8617 5.84319 10.561 5.9777 10.3096 6.08852C10.1101 6.17769 9.9484 6.24922 9.80836 6.34947C9.46529 6.71117 8.65574 6.61748 8.48447 6.57667L5.93996 5.77921C5.23066 6.14545 4.91631 6.92477 5.02865 8.04816C5.02915 8.05975 5.02966 8.07184 5.03016 8.08393Z" fill="#7284E4"/>
    <path d="M16.4695 17.4541C16.191 17.4541 15.9658 17.2284 15.9658 16.9503L15.9628 16.6919C15.9587 16.4858 15.9557 16.2803 15.9693 16.0753C16.0746 14.3871 16.1058 13.8783 13.7517 13.6416C13.1024 13.5766 12.4626 13.4234 11.844 13.2753C11.6707 13.2335 11.4969 13.1917 11.3206 13.1519C11.2052 13.3489 11.0999 13.5741 10.9906 13.8083C10.4949 14.8703 9.81634 16.3246 7.40029 15.7518C7.27385 15.7211 7.16302 15.6435 7.093 15.5332L5.38272 12.8743C5.14897 12.9509 4.91019 13.0295 4.66788 13.1081C3.62811 13.4466 2.55207 13.7967 1.49669 14.2194C1.29972 14.2985 1.01157 14.6874 1.00754 14.8385C1.01006 15.2184 1.15161 15.6294 1.30173 16.0647C1.37176 16.2662 1.44128 16.4692 1.49871 16.6712C1.57528 16.9382 1.42062 17.2173 1.15262 17.2934C0.884618 17.3694 0.606541 17.2153 0.529969 16.9473C0.477577 16.7624 0.413599 16.5775 0.349622 16.3921C0.179853 15.8994 0.00303247 15.3901 0.000513651 14.8446C-0.00402022 14.2209 0.599992 13.493 1.12239 13.2834C2.20901 12.8486 3.30067 12.4935 4.35756 12.1494C4.72632 12.0295 5.08752 11.9117 5.43612 11.7948C5.65375 11.7227 5.89555 11.8054 6.02049 11.9998L7.82849 14.8128C9.28034 15.0924 9.61836 14.368 10.0788 13.3816C10.2566 13.0018 10.4395 12.6094 10.7004 12.2754C10.8178 12.1237 11.0113 12.0532 11.2012 12.0935C11.4979 12.156 11.7906 12.226 12.0808 12.295C12.6938 12.4421 13.2722 12.5806 13.854 12.6391C16.7139 12.9247 17.1169 13.905 16.9773 16.1377C16.9663 16.3161 16.9693 16.4944 16.9728 16.6732L16.9758 16.9488C16.9733 17.2289 16.7476 17.4541 16.4695 17.4541Z" fill="#7284E4"/>
    <path d="M11.9735 4.24682C11.9322 4.24682 11.8899 4.24127 11.8481 4.2312C11.579 4.16168 11.4168 3.88713 11.4853 3.61812L12.0012 1.60306C9.95038 0.719463 7.75951 1.0051 5.44573 1.30887L5.215 1.33859L5.44976 3.69368C5.47747 3.97075 5.27445 4.21709 4.99839 4.24531C4.72031 4.27301 4.47447 4.06999 4.44727 3.79393L4.16415 0.952202C4.13695 0.68017 4.33191 0.43685 4.60243 0.402594L5.31525 0.309903C7.92424 -0.0316488 10.3871 -0.353552 12.8198 0.874623C13.0309 0.980917 13.1392 1.22071 13.0808 1.44942L12.4616 3.8695C12.4027 4.09569 12.1982 4.24682 11.9735 4.24682Z" fill="#7284E4"/>
    <path d="M11.1295 17.5945C10.8726 17.5945 10.6539 17.3986 10.6282 17.1386C10.6021 16.8616 10.8056 16.6157 11.0821 16.5895L14.0327 16.3079C14.3092 16.2817 14.5551 16.4853 14.5818 16.7618C14.608 17.0389 14.4045 17.2847 14.1279 17.3109L11.1779 17.5925C11.1612 17.594 11.1456 17.5945 11.1295 17.5945Z" fill="#7284E4"/>
  </g>
  <defs>
    <clipPath id="clip0_3578_915">
      <rect width="17" height="17.5949" fill="white"/>
    </clipPath>
  </defs>
</svg>