<svg width="16" height="16" viewBox="0 0 9 14" fill="none" xmlns="http://www.w3.org/2000/svg">
<path d="M8.505 8.985C8.505 9.505 8.37 9.995 8.1 10.455C7.84 10.905 7.45 11.28 6.93 11.58C6.42 11.87 5.815 12.04 5.115 12.09V13.305H4.155V12.075C3.155 11.985 2.35 11.685 1.74 11.175C1.13 10.655 0.815 9.955 0.795 9.075H3.045C3.105 9.795 3.475 10.23 4.155 10.38V7.515C3.435 7.335 2.855 7.155 2.415 6.975C1.975 6.795 1.595 6.505 1.275 6.105C0.955 5.705 0.795 5.16 0.795 4.47C0.795 3.6 1.105 2.89 1.725 2.34C2.355 1.79 3.165 1.475 4.155 1.395V0.179999H5.115V1.395C6.075 1.475 6.84 1.765 7.41 2.265C7.99 2.765 8.315 3.455 8.385 4.335H6.12C6.09 4.045 5.985 3.795 5.805 3.585C5.635 3.365 5.405 3.21 5.115 3.12V5.955C5.865 6.145 6.455 6.33 6.885 6.51C7.325 6.68 7.705 6.965 8.025 7.365C8.345 7.755 8.505 8.295 8.505 8.985ZM2.985 4.365C2.985 4.695 3.085 4.965 3.285 5.175C3.485 5.375 3.775 5.54 4.155 5.67V3.075C3.795 3.125 3.51 3.26 3.3 3.48C3.09 3.7 2.985 3.995 2.985 4.365ZM5.115 10.41C5.495 10.34 5.79 10.185 6 9.945C6.22 9.705 6.33 9.415 6.33 9.075C6.33 8.745 6.225 8.48 6.015 8.28C5.805 8.08 5.505 7.915 5.115 7.785V10.41Z" fill="#39CE8C"/>
</svg>
