<svg width="14" height="16" viewBox="0 0 14 16" fill="none" xmlns="http://www.w3.org/2000/svg">
<path d="M11.4002 0.00390625L13.7978 2.34111L13.7886 2.34971L11.4206 2.35145L11.3984 0.00564197L11.4002 0.00390625Z" fill="#F1F1F1"/>
<path d="M4.97202 3.69081C4.97202 4.13426 4.71709 4.34371 4.32581 4.34072C4.27227 4.34072 4.21248 4.34072 4.17578 4.33255V3.11833C4.21248 3.11016 4.27491 3.10156 4.3714 3.10156C4.7423 3.1016 4.9747 3.30546 4.97202 3.69081Z" fill="#F1F1F1"/>
<path d="M3.03128 3.37187C3.03128 3.56195 2.88961 3.67509 2.66038 3.67509C2.59795 3.67509 2.55236 3.67209 2.51562 3.66392V3.11594C2.54704 3.10777 2.60635 3.09961 2.69399 3.09961C2.90954 3.09961 3.03128 3.2011 3.03128 3.37187Z" fill="#F1F1F1"/>
<path d="M1.59345 1.63672H9.02943V5.80875H1.59345H1.57531H0V1.63672H1.57527H1.59345Z" fill="#F1F1F1"/>
<path d="M7.90272 7.95971C7.908 8.39283 7.62295 9.23796 7.62295 9.23796C7.52464 9.13733 7.32812 8.59881 7.32812 8.10073C7.32812 7.60269 7.49371 7.4668 7.62295 7.4668C7.75261 7.4668 7.89733 7.52703 7.90272 7.95971Z" fill="#DC1D00"/>
<path d="M11.0118 11.7372C11.0118 12.3093 9.94505 12.0761 9.28906 11.4692C9.28906 11.4692 11.0118 11.1656 11.0118 11.7372Z" fill="#DC1D00"/>
<path d="M4.82292 13.6189C4.29488 13.3118 5.93124 12.366 6.22647 12.3359C6.22647 12.3359 5.37576 13.9402 4.82292 13.6189Z" fill="#DC1D00"/>
<path d="M7.86863 10.1777C8.16878 10.721 8.76449 11.3601 8.76449 11.3601C8.76449 11.3601 8.53651 11.3851 8.00677 11.5111C7.47691 11.6371 7.21094 11.7679 7.21094 11.7679C7.21094 11.7679 7.21094 11.7679 7.42827 11.2948C7.64602 10.8216 7.86863 10.1777 7.86863 10.1777Z" fill="#DC1D00"/>
<path d="M13.8061 2.34794V16H1.58984V5.80643H9.02582V1.6344H1.58984V0H11.3979L11.3996 0.00212996L11.3979 0.00382611L11.42 2.34963L13.788 2.3479L13.7973 2.3393L13.8061 2.34794Z" fill="#DC1D00"/>
<path d="M6.22352 12.3417C5.92832 12.3718 4.29192 13.3176 4.81996 13.6247C5.3728 13.946 6.22352 12.3417 6.22352 12.3417ZM9.2873 11.4729C9.94325 12.0798 11.01 12.3129 11.01 11.7409C11.01 11.1692 9.2873 11.4729 9.2873 11.4729ZM8.7712 11.3654C8.7712 11.3654 8.17545 10.7263 7.87534 10.183C7.87534 10.183 7.65273 10.8268 7.43495 11.3C7.21761 11.7731 7.21761 11.7731 7.21761 11.7731C7.21761 11.7731 7.48362 11.6423 8.01344 11.5163C8.54323 11.3903 8.7712 11.3654 8.7712 11.3654ZM7.62663 9.2419C7.62663 9.2419 7.91163 8.39677 7.9064 7.96366C7.901 7.53098 7.75632 7.47074 7.62663 7.47074C7.49738 7.47074 7.3318 7.60663 7.3318 8.10468C7.3318 8.60276 7.52831 9.14132 7.62663 9.2419ZM7.98426 9.89611C8.27421 10.5051 9.07179 11.2897 9.07179 11.2897C9.07179 11.2897 9.33029 11.2243 10.397 11.1994C11.4641 11.1744 11.5106 11.7576 11.5155 11.8079C11.5208 11.8587 11.5624 12.3215 10.713 12.3516C9.86409 12.3817 8.9833 11.5215 8.9833 11.5215C8.9833 11.5215 8.62121 11.5769 8.3211 11.6471C8.02099 11.7176 7.05743 11.9744 7.05743 11.9744C7.05743 11.9744 6.77238 12.4776 6.14075 13.2823C5.50871 14.0875 4.80096 14.0273 4.59909 13.7606C4.3645 13.4509 4.54555 13.1418 4.99082 12.7391C5.43609 12.3366 6.46342 12.0028 6.46342 12.0028C6.46342 12.0028 6.67057 11.6406 6.97421 10.9494C7.27781 10.2583 7.50757 9.56406 7.50757 9.56406C7.50757 9.56406 7.20701 8.90085 7.14856 8.33654C7.08308 7.7073 7.15566 7.28452 7.65273 7.27935C8.14984 7.27418 8.30515 7.63677 8.32065 8.26554C8.33612 8.89486 7.98426 9.89611 7.98426 9.89611Z" fill="white"/>
<path d="M6.83974 3.14408V2.78906H5.70312V4.64302H6.10906V3.89355H6.79915V3.57798H6.10906V3.14408H6.83974Z" fill="#A51600"/>
<path d="M5.10274 2.97564C4.91861 2.84058 4.67456 2.77734 4.31162 2.77734C4.09343 2.77734 3.88112 2.79111 3.71875 2.81604V4.63883C3.84053 4.6526 3.99426 4.66633 4.21821 4.66633C4.59224 4.66633 4.90306 4.58933 5.104 4.42677C5.28813 4.27538 5.42363 4.03018 5.42363 3.67493C5.42363 3.34769 5.30149 3.11887 5.10274 2.97564ZM4.29769 4.33865C4.24415 4.33865 4.20587 4.33865 4.12468 4.33049V3.11626C4.20587 3.1081 4.24679 3.0995 4.34332 3.0995C4.71422 3.0995 4.94658 3.30335 4.9439 3.68874C4.9439 4.13219 4.68893 4.34165 4.29769 4.33865Z" fill="#A51600"/>
<path d="M3.26211 2.92613C3.13464 2.82677 2.92685 2.77734 2.66035 2.77734C2.39698 2.77734 2.18037 2.79411 2.05859 2.81604V4.64463H2.50512V3.98332C2.54571 3.98892 2.60453 3.99192 2.66124 3.99192C2.91617 3.99192 3.1387 3.93125 3.28614 3.79623C3.39943 3.69174 3.46398 3.53731 3.46398 3.35582C3.46398 3.17389 3.3838 3.0199 3.26211 2.92613ZM2.65852 3.66981C2.59613 3.66981 2.54571 3.66681 2.50512 3.65864V3.11066C2.54571 3.1025 2.60453 3.09433 2.69213 3.09433C2.90773 3.09433 3.02942 3.19583 3.02942 3.36659C3.02942 3.55668 2.88779 3.66981 2.65852 3.66981Z" fill="#A51600"/>
</svg>
