<svg xmlns="http://www.w3.org/2000/svg" width="28" height="28" viewBox="0 0 28 28" fill="none">
  <path d="M20.417 28H7.58366C5.97541 28 4.66699 26.6916 4.66699 25.0833V2.91667C4.66699 1.30842 5.97541 0 7.58366 0H20.417C22.0253 0 23.3337 1.30842 23.3337 2.91667V25.0833C23.3337 26.6916 22.0253 28 20.417 28ZM7.58366 1.16667C6.61883 1.16667 5.83366 1.95183 5.83366 2.91667V25.0833C5.83366 26.0482 6.61883 26.8333 7.58366 26.8333H20.417C21.3818 26.8333 22.167 26.0482 22.167 25.0833V2.91667C22.167 1.95183 21.3818 1.16667 20.417 1.16667H7.58366Z" fill="black"/>
  <path d="M22.7503 5.83332H5.25033C4.92774 5.83332 4.66699 5.57199 4.66699 5.24999C4.66699 4.92799 4.92774 4.66666 5.25033 4.66666H22.7503C23.0729 4.66666 23.3337 4.92799 23.3337 5.24999C23.3337 5.57199 23.0729 5.83332 22.7503 5.83332Z" fill="black"/>
  <path d="M22.7503 23.3333H5.25033C4.92774 23.3333 4.66699 23.072 4.66699 22.75C4.66699 22.428 4.92774 22.1667 5.25033 22.1667H22.7503C23.0729 22.1667 23.3337 22.428 23.3337 22.75C23.3337 23.072 23.0729 23.3333 22.7503 23.3333Z" fill="black"/>
  <path d="M14.0007 23.9167C13.3567 23.9167 12.834 24.4393 12.834 25.0833C12.834 25.7273 13.3567 26.25 14.0007 26.25C14.6447 26.25 15.1673 25.7273 15.1673 25.0833C15.1673 24.4393 14.6447 23.9167 14.0007 23.9167Z" fill="black"/>
  <path d="M16.9167 3.50001H11.0833C10.7607 3.50001 10.5 3.23868 10.5 2.91668C10.5 2.59468 10.7607 2.33334 11.0833 2.33334H16.9167C17.2392 2.33334 17.5 2.59468 17.5 2.91668C17.5 3.23868 17.2392 3.50001 16.9167 3.50001Z" fill="black"/>
</svg>