<svg width="28" height="28" viewBox="0 0 28 28" fill="none" xmlns="http://www.w3.org/2000/svg">
<path d="M20.4165 28H7.58317C5.97492 28 4.6665 26.6916 4.6665 25.0833V2.91667C4.6665 1.30842 5.97492 0 7.58317 0H20.4165C22.0248 0 23.3332 1.30842 23.3332 2.91667V25.0833C23.3332 26.6916 22.0248 28 20.4165 28ZM7.58317 1.16667C6.61834 1.16667 5.83317 1.95183 5.83317 2.91667V25.0833C5.83317 26.0482 6.61834 26.8333 7.58317 26.8333H20.4165C21.3813 26.8333 22.1665 26.0482 22.1665 25.0833V2.91667C22.1665 1.95183 21.3813 1.16667 20.4165 1.16667H7.58317Z" fill="white"/>
<path d="M22.7498 5.83342H5.24984C4.92725 5.83342 4.6665 5.57208 4.6665 5.25008C4.6665 4.92808 4.92725 4.66675 5.24984 4.66675H22.7498C23.0724 4.66675 23.3332 4.92808 23.3332 5.25008C23.3332 5.57208 23.0724 5.83342 22.7498 5.83342Z" fill="white"/>
<path d="M22.7498 23.3334H5.24984C4.92725 23.3334 4.6665 23.0721 4.6665 22.7501C4.6665 22.4281 4.92725 22.1667 5.24984 22.1667H22.7498C23.0724 22.1667 23.3332 22.4281 23.3332 22.7501C23.3332 23.0721 23.0724 23.3334 22.7498 23.3334Z" fill="white"/>
<path d="M13.9997 23.9167C13.3557 23.9167 12.833 24.4394 12.833 25.0834C12.833 25.7274 13.3557 26.2501 13.9997 26.2501C14.6437 26.2501 15.1663 25.7274 15.1663 25.0834C15.1663 24.4394 14.6437 23.9167 13.9997 23.9167Z" fill="white"/>
<path d="M16.9167 3.49992H11.0833C10.7607 3.49992 10.5 3.23859 10.5 2.91659C10.5 2.59459 10.7607 2.33325 11.0833 2.33325H16.9167C17.2392 2.33325 17.5 2.59459 17.5 2.91659C17.5 3.23859 17.2392 3.49992 16.9167 3.49992Z" fill="white"/>
</svg>
