<svg xmlns="http://www.w3.org/2000/svg" width="24" height="24" viewBox="0 0 24 24" fill="none">
  <path d="M17.6901 6.75H16.3331V5.5C16.3331 4.122 15.3851 3 14.2201 3H9.78006C8.61506 3 7.66706 4.122 7.66706 5.5V6.75H6.31006C4.93106 6.75 3.81006 7.872 3.81006 9.25V14.75C3.81006 16.128 4.93106 17.25 6.31006 17.25H7.67006V18.48C7.67006 19.853 8.61106 20.97 9.77006 20.97H14.2311C15.3891 20.97 16.3311 19.853 16.3311 18.48V17.25H17.6911C19.0701 17.25 20.1911 16.128 20.1911 14.75V9.25C20.1901 7.872 19.0691 6.75 17.6901 6.75ZM8.66706 5.5C8.66706 4.687 9.17706 4 9.78006 4H14.2191C14.8231 4 15.3321 4.687 15.3321 5.5V6.75H8.66706V5.5ZM15.3301 16.75V18.48C15.3301 19.301 14.8371 19.97 14.2301 19.97H9.77006C9.16406 19.97 8.67006 19.302 8.67006 18.48V16.75V12.5H15.3301V16.75ZM19.1901 14.75C19.1901 15.577 18.5171 16.25 17.6901 16.25H16.3301V12.5H17.0001C17.2761 12.5 17.5001 12.276 17.5001 12C17.5001 11.724 17.2761 11.5 17.0001 11.5H15.8301H8.17006H7.00006C6.72406 11.5 6.50006 11.724 6.50006 12C6.50006 12.276 6.72406 12.5 7.00006 12.5H7.67006V16.25H6.31006C5.48306 16.25 4.81006 15.577 4.81006 14.75V9.25C4.81006 8.423 5.48306 7.75 6.31006 7.75H8.16706H15.8331H17.6901C18.5171 7.75 19.1901 8.423 19.1901 9.25V14.75Z" fill="#5124D2"/>
  <path d="M10.5 14.875H13.5C13.776 14.875 14 14.651 14 14.375C14 14.099 13.776 13.875 13.5 13.875H10.5C10.224 13.875 10 14.099 10 14.375C10 14.651 10.224 14.875 10.5 14.875Z" fill="#5124D2"/>
  <path d="M10.5 17.25H13.5C13.776 17.25 14 17.026 14 16.75C14 16.474 13.776 16.25 13.5 16.25H10.5C10.224 16.25 10 16.474 10 16.75C10 17.026 10.224 17.25 10.5 17.25Z" fill="#5124D2"/>
</svg>