<svg xmlns="http://www.w3.org/2000/svg" width="20" height="20" viewBox="0 0 20 20" fill="none">
  <path d="M7.63314 9.05841C7.54981 9.05008 7.44981 9.05008 7.35814 9.05841C5.3748 8.99175 3.7998 7.36675 3.7998 5.36675C3.7998 3.32508 5.44981 1.66675 7.49981 1.66675C9.54147 1.66675 11.1998 3.32508 11.1998 5.36675C11.1915 7.36675 9.61647 8.99175 7.63314 9.05841Z" stroke="#D855DB" strokeLinecap="round" strokeLinejoin="round"/>
  <path d="M3.4666 12.1333C1.44993 13.4833 1.44993 15.6833 3.4666 17.0249C5.75827 18.5583 9.5166 18.5583 11.8083 17.0249C13.8249 15.6749 13.8249 13.4749 11.8083 12.1333C9.52493 10.6083 5.7666 10.6083 3.4666 12.1333Z" stroke="#D855DB" strokeLinecap="round" strokeLinejoin="round"/>
</svg>