<svg width="20" height="20" viewBox="0 0 20 20" fill="none" xmlns="http://www.w3.org/2000/svg">
<path d="M4.41669 15.5827C4.58335 15.7494 4.75002 15.8327 5.00002 15.8327C5.25002 15.8327 5.41669 15.7494 5.58335 15.5827L10 11.166L14.4167 15.5827C14.5834 15.7494 14.8334 15.8327 15 15.8327C15.1667 15.8327 15.4167 15.7494 15.5834 15.5827C15.9167 15.2494 15.9167 14.7493 15.5834 14.416L11.1667 9.99935L15.5834 5.58268C15.9167 5.24935 15.9167 4.74935 15.5834 4.41602C15.25 4.08268 14.75 4.08268 14.4167 4.41602L10 8.83268L5.58335 4.41602C5.25002 4.08268 4.75002 4.08268 4.41669 4.41602C4.08335 4.74935 4.08335 5.24935 4.41669 5.58268L8.83335 9.99935L4.41669 14.416C4.08335 14.7493 4.08335 15.2494 4.41669 15.5827Z" fill="white"/>
</svg>
