<svg xmlns="http://www.w3.org/2000/svg" width="14" height="15" viewBox="0 0 14 15" fill="none">
  <g clip-path="url(#clip0_4443_2120)">
    <path fillRule="evenodd" clip-rule="evenodd" d="M11.9 2.24282C10.675 0.930322 8.925 0.142822 7 0.142822C3.15 0.142822 0 3.29282 0 7.14282C0 10.9928 3.15 14.1428 7 14.1428C10.2375 14.1428 12.95 11.8678 13.7375 8.89282H11.9C11.2 10.9053 9.275 12.3928 7 12.3928C4.1125 12.3928 1.75 10.0303 1.75 7.14282C1.75 4.25532 4.1125 1.89282 7 1.89282C8.4875 1.89282 9.7125 2.50532 10.675 3.46782L7.875 6.26782H14V0.142822L11.9 2.24282Z" fill="#5FD7A1"/>
  </g>
  <defs>
    <clipPath id="clip0_4443_2120">
      <rect width="14" height="14" fill="white" transform="matrix(-1 0 0 1 14 0.142822)"/>
    </clipPath>
  </defs>
</svg>