<svg width="20" height="18" viewBox="0 0 20 18" fill="none" xmlns="http://www.w3.org/2000/svg">
<path d="M13.457 10.4288C14.043 9.62721 14.3867 8.67612 14.3867 7.6537C14.3867 4.79705 11.7266 2.48047 8.44531 2.48047C5.16016 2.48047 2.5 4.79705 2.5 7.6537C2.5 10.5104 5.16016 12.8269 8.44141 12.8269C9.63281 12.8269 10.7422 12.5212 11.6719 11.9981L11.9414 11.8351L16.1836 15.524L17.5 14.3589L13.2617 10.67L13.457 10.4288ZM11.7734 4.76308C12.6602 5.53414 13.1484 6.55995 13.1484 7.65031C13.1484 8.74066 12.6602 9.76648 11.7734 10.5375C10.8867 11.3086 9.70703 11.7332 8.45312 11.7332C7.19922 11.7332 6.01953 11.3086 5.13281 10.5375C4.24609 9.76648 3.75781 8.74066 3.75781 7.65031C3.75781 6.55995 4.24609 5.53414 5.13281 4.76308C6.01953 3.99202 7.19922 3.56743 8.45312 3.56743C9.70703 3.56743 10.8867 3.99202 11.7734 4.76308Z" fill="black"/>
</svg>
