<svg width="20" height="20" viewBox="0 0 20 20" fill="none" xmlns="http://www.w3.org/2000/svg">
<path d="M10.8141 10.1978L3.2821 11.4538C3.19551 11.4683 3.11425 11.5053 3.04649 11.5611C2.97873 11.6169 2.92686 11.6896 2.8961 11.7718L0.299103 18.7288C0.0511033 19.3688 0.720103 19.9788 1.3341 19.6718L19.3341 10.6718C19.4588 10.6096 19.5636 10.5138 19.6369 10.3953C19.7102 10.2768 19.7491 10.1402 19.7491 10.0008C19.7491 9.86146 19.7102 9.72487 19.6369 9.60635C19.5636 9.48783 19.4588 9.39207 19.3341 9.32982L1.3341 0.329816C0.720103 0.0228162 0.0511033 0.633816 0.299103 1.27282L2.8971 8.22982C2.92772 8.31223 2.97952 8.38511 3.04729 8.44112C3.11506 8.49713 3.1964 8.53427 3.2831 8.54882L10.8151 9.80382C10.8615 9.81194 10.9035 9.83614 10.9337 9.87217C10.964 9.90821 10.9806 9.95376 10.9806 10.0008C10.9806 10.0479 10.964 10.0934 10.9337 10.1295C10.9035 10.1655 10.8615 10.1897 10.8151 10.1978H10.8141Z" fill="#8BABD8"/>
</svg>
