<svg width="37" height="36" viewBox="0 0 37 36" fill="none" xmlns="http://www.w3.org/2000/svg">
<ellipse cx="18.4991" cy="17.9526" rx="18.38" ry="17.9526" fill="#0A22A8"/>
<path d="M21.7622 11.3958L15.3292 13.533C11.0049 14.9792 11.0049 17.3372 15.3292 18.7763L17.2384 19.4103L17.8724 21.3196C19.3115 25.6439 21.6767 25.6439 23.1157 21.3196L25.26 14.8937C26.2147 12.0085 24.6474 10.4341 21.7622 11.3958ZM21.9901 15.2285L19.283 17.9499C19.1761 18.0568 19.0408 18.1066 18.9054 18.1066C18.7701 18.1066 18.6347 18.0568 18.5278 17.9499C18.3212 17.7433 18.3212 17.4014 18.5278 17.1948L21.235 14.4734C21.4416 14.2668 21.7835 14.2668 21.9901 14.4734C22.1967 14.68 22.1967 15.0219 21.9901 15.2285Z" fill="white"/>
</svg>
