<svg width="18" height="18" viewBox="0 0 18 18" fill="none" xmlns="http://www.w3.org/2000/svg">
<path d="M9 16.3125C13.0386 16.3125 16.3125 13.0386 16.3125 9C16.3125 4.96142 13.0386 1.6875 9 1.6875C4.96142 1.6875 1.6875 4.96142 1.6875 9C1.6875 13.0386 4.96142 16.3125 9 16.3125Z" stroke="#FF00F5"/>
<path fillRule="evenodd" clip-rule="evenodd" d="M8.4375 3.375C7.50549 3.375 6.75 4.13052 6.75 5.0625V6.75H5.0625C4.13052 6.75 3.375 7.50549 3.375 8.4375V9.5625C3.375 10.4945 4.13052 11.25 5.0625 11.25H6.75V12.9375C6.75 13.8695 7.50549 14.625 8.4375 14.625H9.5625C10.4945 14.625 11.25 13.8695 11.25 12.9375V11.25H12.9375C13.8695 11.25 14.625 10.4945 14.625 9.5625V8.4375C14.625 7.50549 13.8695 6.75 12.9375 6.75H11.25V5.0625C11.25 4.13052 10.4945 3.375 9.5625 3.375H8.4375ZM11.25 10.125H12.9375C13.2482 10.125 13.5 9.87317 13.5 9.5625V8.4375C13.5 8.12683 13.2482 7.875 12.9375 7.875H11.25H10.125V5.0625C10.125 4.75184 9.87317 4.5 9.5625 4.5H8.4375C8.12683 4.5 7.875 4.75184 7.875 5.0625V7.875H6.75H5.0625C4.75184 7.875 4.5 8.12683 4.5 8.4375V9.5625C4.5 9.87317 4.75184 10.125 5.0625 10.125H6.75H7.875V12.9375C7.875 13.2482 8.12683 13.5 8.4375 13.5H9.5625C9.87317 13.5 10.125 13.2482 10.125 12.9375V10.125H11.25Z" fill="#FF00F5"/>
</svg>
