<svg xmlns="http://www.w3.org/2000/svg" width="18" height="18" viewBox="0 0 18 18" fill="none">
  <path d="M13.2211 11.1625C12.5689 11.1625 11.9822 11.4369 11.5657 11.8748L6.69894 9.49207C6.71567 9.38012 6.7272 9.2668 6.7272 9.15019C6.7272 9.03659 6.71622 8.92574 6.70031 8.81681L11.5599 6.46012C11.9767 6.9016 12.5661 7.17873 13.2211 7.17873C14.4838 7.17873 15.5075 6.155 15.5075 4.89228C15.5075 3.62929 14.4838 2.60583 13.2211 2.60583C11.9584 2.60583 10.9346 3.62929 10.9346 4.89228C10.9346 5.00588 10.9456 5.11645 10.9615 5.22566L6.10188 7.58235C5.68508 7.14087 5.09598 6.86374 4.44075 6.86374C3.17775 6.86374 2.1543 7.88747 2.1543 9.15019C2.1543 10.4132 3.17775 11.4366 4.44075 11.4366C5.09296 11.4366 5.6796 11.1623 6.09611 10.7243L10.9629 13.1071C10.9461 13.2188 10.9346 13.3324 10.9346 13.449C10.9346 14.712 11.9584 15.7354 13.2211 15.7354C14.4838 15.7354 15.5075 14.712 15.5075 13.449C15.5075 12.186 14.4838 11.1625 13.2211 11.1625Z" fill="#33C026"/>
</svg>