<svg width="20" height="20" viewBox="0 0 20 20" fill="none" xmlns="http://www.w3.org/2000/svg">
<g id="8674857_ic_fluent_emoji_regular_icon 1">
<path id="Vector" d="M9.99965 1.66577C14.6027 1.66577 18.3343 5.39731 18.3343 10.0004C18.3343 14.6035 14.6027 18.335 9.99965 18.335C5.39658 18.335 1.66504 14.6035 1.66504 10.0004C1.66504 5.39731 5.39658 1.66577 9.99965 1.66577ZM9.99965 2.91577C6.08694 2.91577 2.91504 6.08767 2.91504 10.0004C2.91504 13.9132 6.08694 17.085 9.99965 17.085C13.9124 17.085 17.0843 13.9132 17.0843 10.0004C17.0843 6.08767 13.9124 2.91577 9.99965 2.91577ZM7.05111 12.3198C7.75873 13.2179 8.83456 13.7517 9.99965 13.7517C11.1631 13.7517 12.2377 13.2193 12.9455 12.3233C13.1594 12.0524 13.5524 12.0063 13.8233 12.2203C14.0941 12.4342 14.1403 12.8272 13.9264 13.0981C12.9841 14.2912 11.5498 15.0017 9.99965 15.0017C8.44748 15.0017 7.01143 14.2893 6.06926 13.0934C5.85564 12.8223 5.90226 12.4293 6.17339 12.2157C6.44452 12.0021 6.8375 12.0487 7.05111 12.3198ZM7.50004 7.2926C8.07501 7.2926 8.54115 7.7587 8.54115 8.33367C8.54115 8.90867 8.07501 9.37475 7.50004 9.37475C6.92507 9.37475 6.45896 8.90867 6.45896 8.33367C6.45896 7.7587 6.92507 7.2926 7.50004 7.2926ZM12.5001 7.2926C13.075 7.2926 13.5411 7.7587 13.5411 8.33367C13.5411 8.90867 13.075 9.37475 12.5001 9.37475C11.9251 9.37475 11.459 8.90867 11.459 8.33367C11.459 7.7587 11.9251 7.2926 12.5001 7.2926Z" fill="#66859E"/>
</g>
</svg>
