<svg xmlns="http://www.w3.org/2000/svg" width="60" height="60" viewBox="0 0 60 60" fill="none">
  <circle cx="30" cy="30" r="30" fill="#409EEE" fill-opacity="0.14"/>
  <path d="M41.4759 16.7699C41.5037 16.6532 41.4974 16.5311 41.4576 16.4179C41.4179 16.3048 41.3465 16.2055 41.2519 16.1318C41.1573 16.0582 41.0435 16.0133 40.9241 16.0025C40.8047 15.9918 40.6847 16.0156 40.5784 16.0711L14.9747 29.4961C14.6914 29.6454 14.4523 29.8666 14.2815 30.1375C14.1107 30.4084 14.0141 30.7194 14.0014 31.0394C13.9888 31.3594 14.0605 31.6771 14.2094 31.9607C14.3582 32.2442 14.5791 32.4836 14.8497 32.6549L20.5497 36.2574C20.607 36.2938 20.6745 36.3105 20.7422 36.3051C20.8098 36.2997 20.8739 36.2724 20.9247 36.2274L36.1209 22.6424C36.1787 22.5876 36.2553 22.557 36.335 22.557C36.4146 22.557 36.4913 22.5875 36.5491 22.6423C36.6069 22.6971 36.6415 22.7719 36.6458 22.8515C36.6501 22.931 36.6238 23.0092 36.5722 23.0699L24.4284 38.3024C24.4011 38.3367 24.3813 38.3764 24.3703 38.4189C24.3594 38.4614 24.3575 38.5057 24.3648 38.549C24.3721 38.5923 24.3884 38.6336 24.4128 38.6701C24.4371 38.7066 24.4688 38.7376 24.5059 38.7611L32.5459 43.8473C32.7906 44.0015 33.0685 44.0951 33.3566 44.1203C33.6448 44.1454 33.9347 44.1015 34.2024 43.9921C34.4701 43.8827 34.7079 43.711 34.8959 43.4912C35.0839 43.2715 35.2168 43.01 35.2834 42.7286L41.4759 16.7699Z" fill="#409EEE"/>
</svg>