<svg width="30" height="30" viewBox="0 0 30 30" fill="none" xmlns="http://www.w3.org/2000/svg">
<circle cx="15" cy="15" r="15" fill="#409EEE"/>
<path d="M14.9993 20.9587C18.29 20.9587 20.9577 18.291 20.9577 15.0003C20.9577 11.7096 18.29 9.04199 14.9993 9.04199C11.7087 9.04199 9.04102 11.7096 9.04102 15.0003C9.04102 18.291 11.7087 20.9587 14.9993 20.9587Z" stroke="white" stroke-width="1.5" stroke-linecap="round" stroke-linejoin="round"/>
<path d="M21.5456 21.5447L21.4265 21.4255M21.4265 8.57384L21.5456 8.45467L21.4265 8.57384ZM8.45565 21.5447L8.57482 21.4255L8.45565 21.5447ZM15.0007 5.90634V5.83301V5.90634ZM15.0007 24.1663V24.093V24.1663ZM5.90732 14.9997H5.83398H5.90732ZM24.1673 14.9997H24.094H24.1673ZM8.57482 8.57384L8.45565 8.45467L8.57482 8.57384Z" stroke="white" stroke-width="2" stroke-linecap="round" stroke-linejoin="round"/>
</svg>
