<svg width="30" height="30" viewBox="0 0 22 22" fill="none" xmlns="http://www.w3.org/2000/svg">
<path d="M11.0001 16.9582C14.2908 16.9582 16.9584 14.2905 16.9584 10.9998C16.9584 7.70914 14.2908 5.0415 11.0001 5.0415C7.70938 5.0415 5.04175 7.70914 5.04175 10.9998C5.04175 14.2905 7.70938 16.9582 11.0001 16.9582Z" stroke="white" stroke-width="1.5" stroke-linecap="round" stroke-linejoin="round"/>
<path d="M17.5449 17.5452L17.4258 17.426M17.4258 4.57433L17.5449 4.45516L17.4258 4.57433ZM4.45492 17.5452L4.57408 17.426L4.45492 17.5452ZM10.9999 1.90683V1.8335V1.90683ZM10.9999 20.1668V20.0935V20.1668ZM1.90659 11.0002H1.83325H1.90659ZM20.1666 11.0002H20.0933H20.1666ZM4.57408 4.57433L4.45492 4.45516L4.57408 4.57433Z" stroke="white" stroke-width="2" stroke-linecap="round" stroke-linejoin="round"/>
</svg>
