<svg width="16" height="16" viewBox="0 0 16 16" fill="none" xmlns="http://www.w3.org/2000/svg">
<path d="M3.64003 12.3272V10.3805C3.64003 9.73386 4.1467 9.15386 4.8667 9.15386C5.51337 9.15386 6.09337 9.66052 6.09337 10.3805V12.2539C6.09337 13.5539 5.01337 14.6339 3.71337 14.6339C2.41337 14.6339 1.33336 13.5472 1.33336 12.2539V8.14719C1.26003 4.40052 4.22003 1.36719 7.9667 1.36719C11.7134 1.36719 14.6667 4.40052 14.6667 8.07386V12.1805C14.6667 13.4805 13.5867 14.5605 12.2867 14.5605C10.9867 14.5605 9.9067 13.4805 9.9067 12.1805V10.3072C9.9067 9.66052 10.4134 9.08052 11.1334 9.08052C11.78 9.08052 12.36 9.58719 12.36 10.3072V12.3272" stroke="#BEBEBE" stroke-width="1.2" stroke-linecap="round" stroke-linejoin="round"/>
</svg>
