<svg width="16" height="16" viewBox="0 0 16 16" fill="none" xmlns="http://www.w3.org/2000/svg">
<path d="M13.0672 2.9275C12.8995 2.76319 12.6738 2.67169 12.4391 2.67288C12.2043 2.67406 11.9795 2.76784 11.8135 2.93383C11.6475 3.09982 11.5537 3.32462 11.5526 3.55936C11.5514 3.79411 11.6429 4.01984 11.8072 4.1875C12.5636 4.94399 13.0787 5.90778 13.2873 6.95701C13.496 8.00623 13.3888 9.09376 12.9794 10.0821C12.57 11.0704 11.8767 11.9151 10.9872 12.5095C10.0977 13.1038 9.05196 13.421 7.98219 13.421C6.91242 13.421 5.86667 13.1038 4.97718 12.5095C4.08769 11.9151 3.39441 11.0704 2.98499 10.0821C2.57558 9.09376 2.46842 8.00623 2.67707 6.95701C2.88571 5.90778 3.4008 4.94399 4.15719 4.1875C4.3215 4.01984 4.413 3.79411 4.41181 3.55936C4.41063 3.32462 4.31685 3.09982 4.15086 2.93383C3.98486 2.76784 3.76007 2.67406 3.52532 2.67288C3.29058 2.67169 3.06485 2.76319 2.89719 2.9275C0.107187 5.7175 0.107187 10.3075 2.89719 13.0975C5.68719 15.8875 10.2772 15.8875 13.0672 13.0975C13.7407 12.433 14.2755 11.6413 14.6406 10.7683C15.0056 9.89542 15.1936 8.95867 15.1936 8.0125C15.1936 7.06633 15.0056 6.12958 14.6406 5.25666C14.2755 4.38373 13.7407 3.59202 13.0672 2.9275ZM7.98219 8.9125C8.22088 8.9125 8.4498 8.81768 8.61858 8.6489C8.78737 8.48011 8.88219 8.2512 8.88219 8.0125V1.7125C8.88219 1.47381 8.78737 1.24489 8.61858 1.0761C8.4498 0.907321 8.22088 0.8125 7.98219 0.8125C7.74349 0.8125 7.51457 0.907321 7.34579 1.0761C7.17701 1.24489 7.08219 1.47381 7.08219 1.7125V8.0125C7.08219 8.2512 7.17701 8.48011 7.34579 8.6489C7.51457 8.81768 7.74349 8.9125 7.98219 8.9125Z" fill="#FF3232"/>
</svg>
