<svg width="132" height="132" viewBox="0 0 132 132" fill="none" xmlns="http://www.w3.org/2000/svg">
<circle cx="66" cy="66" r="66" fill="#409EEE" fill-opacity="0.22"/>
<g clip-path="url(#clip0_11338_25012)">
<path d="M97.6806 63.4506C97.6806 62.5839 97.5099 61.7257 97.1782 60.9249C96.8465 60.1242 96.3604 59.3966 95.7475 58.7837C95.1347 58.1708 94.4071 57.6847 93.6063 57.353C92.8056 57.0213 91.9473 56.8506 91.0806 56.8506H74.4196C74.3154 56.8504 74.2127 56.8255 74.1199 56.778C74.0272 56.7304 73.947 56.6616 73.886 56.5772C73.825 56.4927 73.7848 56.395 73.7688 56.292C73.7528 56.189 73.7614 56.0837 73.7939 55.9847C75.2514 52.2909 75.7244 48.2818 75.1667 44.3502C73.6144 38.8194 70.3249 37.2222 67.7509 37.5786C66.4867 37.7937 65.344 38.4615 64.5361 39.4574C63.7282 40.4533 63.3104 41.7092 63.3606 42.9906C63.3606 50.24 57.7401 58.1601 52.7109 61.6317C52.5348 61.7532 52.3909 61.9157 52.2915 62.1051C52.1922 62.2946 52.1404 62.5054 52.1406 62.7193V89.4256C52.1406 89.7322 52.2472 90.0293 52.4423 90.2658C52.6374 90.5023 52.9088 90.6636 53.2098 90.7218C54.1523 90.904 55.0077 91.0782 55.8155 91.2498C59.3679 92.0962 63.0089 92.5136 66.6606 92.4933H83.8206C88.9871 92.4933 89.7606 89.5893 89.7606 87.8733C89.7611 86.9631 89.5515 86.065 89.1481 85.2491C90.5425 84.5427 91.6019 83.3147 92.0962 81.8318C92.5905 80.3489 92.4798 78.7309 91.7881 77.3291C92.7664 76.8321 93.5881 76.074 94.1622 75.1389C94.7362 74.2037 95.0403 73.1279 95.0406 72.0306C95.0424 71.0416 94.7945 70.0682 94.3199 69.2005C95.3396 68.6261 96.1882 67.791 96.7787 66.7806C97.3693 65.7702 97.6805 64.6209 97.6806 63.4506Z" fill="#409EEE"/>
<path d="M48.1803 62.7904C48.1803 62.0902 47.9022 61.4187 47.4071 60.9236C46.912 60.4285 46.2405 60.1504 45.5403 60.1504H36.9603C36.2601 60.1504 35.5886 60.4285 35.0936 60.9236C34.5985 61.4187 34.3203 62.0902 34.3203 62.7904V91.8304C34.3203 92.5306 34.5985 93.2021 35.0936 93.6972C35.5886 94.1923 36.2601 94.4704 36.9603 94.4704H45.5403C46.2405 94.4704 46.912 94.1923 47.4071 93.6972C47.9022 93.2021 48.1803 92.5306 48.1803 91.8304V62.7904ZM44.2203 87.2104C44.2203 87.602 44.1042 87.9848 43.8866 88.3104C43.6691 88.636 43.3598 88.8898 42.998 89.0397C42.6362 89.1895 42.2381 89.2287 41.854 89.1523C41.47 89.076 41.1171 88.8874 40.8402 88.6105C40.5633 88.3336 40.3748 87.9808 40.2984 87.5967C40.222 87.2126 40.2612 86.8145 40.411 86.4527C40.5609 86.0909 40.8147 85.7817 41.1403 85.5641C41.4659 85.3465 41.8487 85.2304 42.2403 85.2304C42.7654 85.2304 43.2691 85.439 43.6404 85.8103C44.0117 86.1816 44.2203 86.6853 44.2203 87.2104Z" fill="#409EEE"/>
</g>
<defs>
<clipPath id="clip0_11338_25012">
<rect x="34.3203" y="34.3203" width="63.36" height="63.36" fill="white"/>
</clipPath>
</defs>
</svg>
