<svg width="60" height="60" viewBox="0 0 60 60" fill="none" xmlns="http://www.w3.org/2000/svg">
<circle cx="30" cy="30" r="30" fill="#409EEE" fill-opacity="0.14"/>
<path d="M46.1881 34.7213C45.8693 34.4468 33.1539 25.229 33.1539 25.229C33.1362 25.2113 33.1184 25.1936 33.1096 25.1847C32.6226 24.6889 32.6491 24.2638 32.6137 23.52C32.6137 23.52 32.534 17.4103 32.4189 15.3737C32.3038 13.3371 31.2412 12 30.0016 12C28.7619 12 27.7082 13.3282 27.5931 15.3648C27.478 17.4014 27.3983 23.5112 27.3983 23.5112C27.3629 24.255 27.3894 24.68 26.9024 25.1759C26.8847 25.1936 26.867 25.2113 26.8581 25.2202C26.8581 25.2202 14.1515 34.438 13.8239 34.7125C13.4963 34.987 13.0093 35.4031 13.0093 36.324C13.0093 37.4043 13.328 37.5371 13.9479 37.3512C13.9479 37.3512 26.3623 33.8535 26.8227 33.7384C27.2832 33.6233 27.5222 33.7916 27.5577 34.4025C27.5931 35.0135 27.6285 38.5112 27.6373 38.9185C27.6462 39.3258 27.5842 39.3346 27.3806 39.5737L24.547 43.1865C24.3965 43.3636 24.308 43.5849 24.308 43.8329C24.308 43.8329 24.308 44.373 24.308 44.9309C24.308 45.4887 24.5559 45.5773 25.034 45.3647C25.5122 45.1522 27.9207 43.824 27.9207 43.824C27.9827 43.7974 28.328 43.6558 28.4874 43.6558C28.8593 43.6558 29.1958 43.6469 29.2666 44.2048C29.3817 45.2142 29.7005 46.0023 30.0193 46.0023C30.3381 46.0023 30.6568 45.2142 30.7719 44.2048C30.8339 43.6469 31.1793 43.6558 31.5512 43.6558C31.7105 43.6558 32.0559 43.7974 32.1179 43.824C32.1179 43.824 34.5264 45.1522 35.0045 45.3647C35.4827 45.5773 35.7306 45.4887 35.7306 44.9309C35.7306 44.373 35.7306 43.8329 35.7306 43.8329C35.7306 43.5849 35.6421 43.3547 35.4915 43.1865L32.658 39.5737C32.4543 39.3346 32.4012 39.3169 32.4012 38.9185C32.4012 38.52 32.4455 35.0135 32.4809 34.4025C32.5163 33.7916 32.7554 33.6233 33.2158 33.7384C33.6763 33.8535 46.0907 37.3512 46.0907 37.3512C46.7194 37.5371 47.0293 37.4043 47.0293 36.324C47.0027 35.412 46.5157 34.9958 46.1881 34.7213Z" fill="#409EEE"/>
</svg>
