<svg width="14" height="14" viewBox="0 0 14 14" fill="none" xmlns="http://www.w3.org/2000/svg">
<path fillRule="evenodd" clip-rule="evenodd" d="M1.93945 13.7571H12.0645C12.5122 13.7571 12.9414 13.5793 13.2581 13.2626C13.5742 12.9465 13.752 12.5173 13.752 12.0696C13.752 10.12 13.752 6.13689 13.752 4.18727C13.752 3.73952 13.5742 3.31033 13.2581 2.9942C12.9414 2.67752 12.5122 2.49977 12.0645 2.49977H11.502V1.93164C11.502 1.00014 10.7465 0.244141 9.81445 0.244141H4.18945C3.25795 0.244141 2.50195 1.00014 2.50195 1.93164V2.49977H1.93945C1.00795 2.49977 0.251953 3.2552 0.251953 4.18727C0.251953 6.13689 0.251953 10.12 0.251953 12.0696C0.251953 12.5173 0.430266 12.9465 0.746391 13.2626C1.06308 13.5793 1.49227 13.7571 1.93945 13.7571ZM11.502 3.62477V12.6321H12.0645C12.2141 12.6321 12.357 12.573 12.4627 12.4673C12.5679 12.3615 12.627 12.2186 12.627 12.0696C12.627 10.12 12.627 6.13689 12.627 4.18727C12.627 4.0382 12.5679 3.89477 12.4627 3.78958C12.357 3.68383 12.2141 3.62477 12.0645 3.62477H11.502ZM9.24858 12.6321H10.377V1.93164C10.377 1.62114 10.1255 1.36914 9.81445 1.36914H4.18945C3.87895 1.36914 3.62695 1.62114 3.62695 1.93164V12.6321H4.74858V9.81902C4.74858 9.37183 4.92633 8.94264 5.24302 8.62595C5.5597 8.30927 5.98889 8.13152 6.43608 8.13152H7.56108C8.00883 8.13152 8.43801 8.30927 8.7547 8.62595C9.07083 8.94264 9.24858 9.37183 9.24858 9.81902V12.6321ZM2.50195 3.62477H1.93945C1.62895 3.62477 1.37695 3.87677 1.37695 4.18727C1.37695 6.13689 1.37695 10.12 1.37695 12.0696C1.37695 12.2186 1.43658 12.3615 1.54177 12.4673C1.64752 12.573 1.79039 12.6321 1.93945 12.6321H2.50195V3.62477ZM8.12358 12.6321H5.87358V9.81902C5.87358 9.66995 5.9332 9.52708 6.03839 9.42133C6.14414 9.31614 6.28702 9.25652 6.43608 9.25652H7.56108C7.7107 9.25652 7.85358 9.31614 7.95877 9.42133C8.06452 9.52708 8.12358 9.66995 8.12358 9.81902V12.6321Z" fill="#5FD7A1"/>
</svg>
