<svg width="22" height="22" viewBox="0 0 22 22" fill="none" xmlns="http://www.w3.org/2000/svg">
<path d="M11.1467 9.96409C11.0551 9.95492 10.9451 9.95492 10.8442 9.96409C8.66255 9.89075 6.93005 8.10325 6.93005 5.90325C6.93005 3.65742 8.74505 1.83325 11.0001 1.83325C13.2459 1.83325 15.0701 3.65742 15.0701 5.90325C15.0609 8.10325 13.3284 9.89075 11.1467 9.96409Z" stroke="white" stroke-width="1.5" strokeLinecap="round" strokeLinejoin="round"/>
<path d="M6.56331 13.3465C4.34498 14.8315 4.34498 17.2515 6.56331 18.7273C9.08414 20.414 13.2183 20.414 15.7391 18.7273C17.9575 17.2423 17.9575 14.8223 15.7391 13.3465C13.2275 11.669 9.09331 11.669 6.56331 13.3465Z" stroke="white" stroke-width="1.5" strokeLinecap="round" strokeLinejoin="round"/>
</svg>
