<svg
                    width="16"
                    height="16"
                    viewBox="0 0 16 16"
                    fill="none"
                    xmlns="http://www.w3.org/2000/svg"
                  >
                    <path
                      d="M9.62695 12.7008L10.6403 13.7142L12.667 11.6875"
                      stroke="#409EEE"
                      stroke-width="1.3"
                      strokeLinecap="round"
                      strokeLinejoin="round"
                    />
                    <path
                      d="M8.10575 7.24732C8.03909 7.24065 7.95909 7.24065 7.88575 7.24732C6.29909 7.19398 5.03909 5.89399 5.03909 4.29398C5.03242 2.66065 6.35909 1.33398 7.99242 1.33398C9.62575 1.33398 10.9524 2.66065 10.9524 4.29398C10.9524 5.89399 9.68575 7.19398 8.10575 7.24732Z"
                      stroke="#409EEE"
                      stroke-width="1.3"
                      strokeLinecap="round"
                      strokeLinejoin="round"
                    />
                    <path
                      d="M7.99336 14.5404C6.78003 14.5404 5.57336 14.2338 4.65336 13.6204C3.04003 12.5404 3.04003 10.7804 4.65336 9.70711C6.48669 8.48044 9.49336 8.48044 11.3267 9.70711"
                      stroke="#409EEE"
                      stroke-width="1.3"
                      strokeLinecap="round"
                      strokeLinejoin="round"
                    />
                  </svg>