<svg width="14" height="14" viewBox="0 0 14 14" fill="none" xmlns="http://www.w3.org/2000/svg">
<path d="M1.75 5.3138V8.67964C1.75 9.9163 1.75 9.9163 2.91667 10.7038L6.125 12.5588C6.60917 12.8388 7.39667 12.8388 7.875 12.5588L11.0833 10.7038C12.25 9.9163 12.25 9.9163 12.25 8.68547V5.3138C12.25 4.08297 12.25 4.08297 11.0833 3.29547L7.875 1.44047C7.39667 1.16047 6.60917 1.16047 6.125 1.44047L2.91667 3.29547C1.75 4.08297 1.75 4.08297 1.75 5.3138Z" stroke="#C7C7C7" stroke-width="0.8" stroke-linecap="round" stroke-linejoin="round"/>
<path d="M7 8.75C7.9665 8.75 8.75 7.9665 8.75 7C8.75 6.0335 7.9665 5.25 7 5.25C6.0335 5.25 5.25 6.0335 5.25 7C5.25 7.9665 6.0335 8.75 7 8.75Z" stroke="#C7C7C7" stroke-width="0.8" stroke-linecap="round" stroke-linejoin="round"/>
</svg>
