<svg xmlns="http://www.w3.org/2000/svg" width="17" height="17" viewBox="0 0 17 17" fill="none">
  <path d="M8.61331 7.6996C8.54248 7.69252 8.45748 7.69252 8.37956 7.6996C6.69373 7.64294 5.35498 6.26169 5.35498 4.56169C5.35498 2.82627 6.75748 1.41669 8.49998 1.41669C10.2354 1.41669 11.645 2.82627 11.645 4.56169C11.6379 6.26169 10.2991 7.64294 8.61331 7.6996Z" stroke="#949494" strokeLinecap="round" strokeLinejoin="round"/>
  <path d="M5.07176 10.3133C3.35759 11.4608 3.35759 13.3308 5.07176 14.4712C7.01967 15.7746 10.2143 15.7746 12.1622 14.4712C13.8763 13.3237 13.8763 11.4537 12.1622 10.3133C10.2213 9.01706 7.02676 9.01706 5.07176 10.3133Z" stroke="#949494" strokeLinecap="round" strokeLinejoin="round"/>
</svg>