<svg xmlns="http://www.w3.org/2000/svg" width="12" height="12" viewBox="0 0 12 12" fill="none">
  <g clip-path="url(#clip0_4248_795)">
    <path d="M6 0C5.586 0 5.25 0.336 5.25 0.75V2.25C5.25 2.664 5.586 3 6 3C6.414 3 6.75 2.664 6.75 2.25V0.75C6.75 0.336 6.414 0 6 0ZM6 9C5.586 9 5.25 9.33525 5.25 9.75V11.25C5.25 11.6648 5.586 12 6 12C6.414 12 6.75 11.6648 6.75 11.25V9.75C6.75 9.33525 6.414 9 6 9ZM9.1815 3.879L10.242 2.81775C10.5352 2.52525 10.5352 2.04975 10.242 1.75725C9.9495 1.464 9.47475 1.464 9.1815 1.75725L8.121 2.81775C7.82775 3.111 7.82775 3.58575 8.121 3.879C8.41425 4.1715 8.889 4.1715 9.1815 3.879ZM2.81775 8.121L1.75725 9.1815C1.464 9.47475 1.464 9.9495 1.75725 10.242C2.04975 10.5352 2.5245 10.5352 2.81775 10.242L3.87825 9.1815C4.1715 8.88825 4.1715 8.41425 3.87825 8.121C3.58575 7.8285 3.111 7.8285 2.81775 8.121ZM2.81775 1.75725C2.5245 1.464 2.04975 1.464 1.75725 1.75725C1.464 2.04975 1.464 2.52525 1.75725 2.81775L2.81775 3.879C3.111 4.1715 3.58575 4.1715 3.87825 3.879C4.1715 3.58575 4.1715 3.111 3.87825 2.81775L2.81775 1.75725ZM9.1815 8.121C8.88825 7.82775 8.41425 7.82775 8.121 8.121C7.82775 8.41425 7.82775 8.88825 8.121 9.1815L9.1815 10.242C9.47475 10.5352 9.9495 10.5352 10.242 10.242C10.5352 9.9495 10.5352 9.47475 10.242 9.1815L9.1815 8.121ZM11.25 5.25H9.75C9.33525 5.25 9 5.586 9 6C9 6.414 9.33525 6.75 9.75 6.75H11.25C11.6648 6.75 12 6.414 12 6C12 5.586 11.6648 5.25 11.25 5.25ZM3 6C3 5.586 2.664 5.25 2.25 5.25H0.75C0.336 5.25 0 5.586 0 6C0 6.414 0.336 6.75 0.75 6.75H2.25C2.664 6.75 3 6.414 3 6Z" fill="#409EEE"/>
  </g>
  <defs>
    <clipPath id="clip0_4248_795">
      <rect width="12" height="12" fill="white"/>
    </clipPath>
  </defs>
</svg>