<svg xmlns="http://www.w3.org/2000/svg" width="22" height="22" viewBox="0 0 22 22" fill="none">
  <path d="M9.60568 9.9C9.79287 10.2236 9.9 10.5993 9.9 11C9.9 12.2151 8.91503 13.2 7.7 13.2C6.48497 13.2 5.5 12.2151 5.5 11C5.5 9.78497 6.48497 8.8 7.7 8.8H14.3C15.5151 8.8 16.5 9.78497 16.5 11C16.5 12.2151 15.5151 13.2 14.3 13.2C13.0849 13.2 12.1 12.2151 12.1 11C12.1 10.5993 12.2071 10.2236 12.3944 9.9H9.60568ZM6.6 11C6.6 11.6075 7.09249 12.1 7.7 12.1C8.30751 12.1 8.8 11.6075 8.8 11C8.8 10.3925 8.30751 9.9 7.7 9.9C7.09249 9.9 6.6 10.3925 6.6 11ZM14.3 9.9C13.6925 9.9 13.2 10.3925 13.2 11C13.2 11.6075 13.6925 12.1 14.3 12.1C14.9075 12.1 15.4 11.6075 15.4 11C15.4 10.3925 14.9075 9.9 14.3 9.9Z" fill="#F96147"/>
  <path d="M4.4002 4.4C3.18517 4.4 2.2002 5.38497 2.2002 6.6V15.4C2.2002 16.6151 3.18517 17.6 4.4002 17.6H17.6002C18.8153 17.6 19.8002 16.6151 19.8002 15.4V6.6C19.8002 5.38497 18.8153 4.4 17.6002 4.4H4.4002ZM3.3002 6.6C3.3002 5.99249 3.79269 5.5 4.4002 5.5H17.6002C18.2077 5.5 18.7002 5.99249 18.7002 6.6V15.4C18.7002 16.0075 18.2077 16.5 17.6002 16.5H4.4002C3.79269 16.5 3.3002 16.0075 3.3002 15.4V6.6Z" fill="#F96147"/>
</svg>