 <svg
                              width="26"
                              height="26"
                              viewBox="0 0 26 26"
                              fill="none"
                              xmlns="http://www.w3.org/2000/svg"
                            >
                              <rect
                                x="1"
                                y="1"
                                width="24"
                                height="24"
                                rx="12"
                                fill="#F7A101"
                                fill-opacity="0.1"
                                stroke="#F7A101"
                                stroke-width="0.7"
                              />
                              <path
                                d="M13.0016 15.1C14.3276 15.1 15.4016 14.026 15.4016 12.7V9.4C15.4016 8.074 14.3276 7 13.0016 7C11.6756 7 10.6016 8.074 10.6016 9.4V12.7C10.6016 14.026 11.6756 15.1 13.0016 15.1Z"
                                stroke="#F7A101"
                                strokeLinecap="round"
                                strokeLinejoin="round"
                              />
                              <path
                                d="M8.41016 11.5898V12.6098C8.41016 15.1418 10.4682 17.1998 13.0002 17.1998C15.5322 17.1998 17.5902 15.1418 17.5902 12.6098V11.5898"
                                stroke="#F7A101"
                                strokeLinecap="round"
                                strokeLinejoin="round"
                              />
                              <path
                                d="M12.168 9.65827C12.708 9.46027 13.296 9.46027 13.836 9.65827"
                                stroke="#F7A101"
                                strokeLinecap="round"
                                strokeLinejoin="round"
                              />
                              <path
                                d="M12.5215 10.9302C12.8395 10.8462 13.1695 10.8462 13.4875 10.9302"
                                stroke="#F7A101"
                                strokeLinecap="round"
                                strokeLinejoin="round"
                              />
                              <path
                                d="M13 17.2012V19.0012"
                                stroke="#F7A101"
                                strokeLinecap="round"
                                strokeLinejoin="round"
                              />
                            </svg>