<svg width="18" height="16" viewBox="0 0 18 16" fill="none" xmlns="http://www.w3.org/2000/svg">
<path d="M7.55156 15.6496H6.74297C6.06094 15.6496 4.32422 15.4879 2.79844 13.9973C1.42734 12.6332 0.703125 10.573 0.703125 7.99961C0.703125 5.41914 1.42734 3.36601 2.79844 2.00195C4.33125 0.511328 6.06094 0.349609 6.74297 0.349609H7.55156C8.23359 0.349609 8.76094 0.869922 8.76094 1.55898V3.56992C8.76094 4.25195 8.24062 4.77929 7.55156 4.77929H7.15078C5.58281 4.77929 4.33125 6.02383 4.33125 7.59883V8.40742C4.33125 9.97539 5.57578 11.2269 7.15078 11.2269H7.55156C8.23359 11.2269 8.76094 11.7473 8.76094 12.4363V14.4473C8.76094 15.1293 8.23359 15.6496 7.55156 15.6496ZM6.74297 1.15117C4.80937 1.15117 1.50469 2.59961 1.50469 7.99961C1.50469 13.3926 4.80937 14.848 6.74297 14.848H7.55156C7.79062 14.848 7.95234 14.6863 7.95234 14.4473V12.4293C7.95234 12.1902 7.79062 12.0285 7.55156 12.0285H7.15078C5.13984 12.0285 3.52266 10.4184 3.52266 8.40039V7.59179C3.52266 5.58086 5.13281 3.96367 7.15078 3.96367H7.55156C7.79062 3.96367 7.95234 3.80195 7.95234 3.56289V1.55195C7.95234 1.31289 7.79062 1.15117 7.55156 1.15117H6.74297Z" fill="#39CE8C"/>
<path d="M13.873 8.72402H12.5863L13.873 7.31074C14.0348 7.14902 14.0348 6.90996 13.873 6.74824C13.7113 6.58652 13.4723 6.58652 13.3105 6.74824L11.5809 8.60449C11.3418 8.88574 11.3418 9.28652 11.5809 9.5748L13.3105 11.424C13.3949 11.5084 13.5145 11.5436 13.5918 11.5436C13.6762 11.5436 13.7957 11.5014 13.873 11.424C14.0348 11.2623 14.0348 11.0232 13.873 10.8615L12.5863 9.44824H13.873C15.3215 9.44824 16.4887 10.6576 16.4887 12.1061C16.4887 13.5545 15.3215 14.8482 13.873 14.8482H10.3715C10.1324 14.8482 9.9707 15.01 9.9707 15.249C9.9707 15.4881 10.1324 15.6498 10.3715 15.6498H13.873C15.7645 15.6498 17.2973 14.0818 17.2973 12.1834C17.2973 10.292 15.7645 8.72402 13.873 8.72402Z" fill="#39CE8C"/>
</svg>
