<svg width="18" height="18" viewBox="0 0 18 18" fill="none" xmlns="http://www.w3.org/2000/svg">
<path d="M16.875 4.5C16.875 4.78786 16.7651 5.07586 16.5454 5.29523L7.54541 14.2952C7.32656 14.516 7.03828 14.625 6.75 14.625C6.46172 14.625 6.17414 14.5151 5.95477 14.2954L1.45477 9.79541C1.23504 9.57656 1.125 9.28828 1.125 9C1.125 8.35734 1.65059 7.875 2.25 7.875C2.53786 7.875 2.82586 7.98486 3.04523 8.20459L6.75 11.9109L14.9555 3.70547C15.1734 3.48504 15.4617 3.375 15.75 3.375C16.3512 3.375 16.875 3.85664 16.875 4.5Z" fill="white"/>
</svg>
