<svg width="19" height="18" viewBox="0 0 19 18" fill="none" xmlns="http://www.w3.org/2000/svg">
<g opacity="0.8">
<path d="M6.20657 7.86291C4.69056 6.39429 3.10028 3.96176 1.44706 0.522221L4.62479 0.501613L9.23142 6.57481C8.20214 6.63642 7.19259 7.08563 6.20657 7.86291ZM18.1296 0.532625C16.2736 4.21792 14.5281 6.47456 12.9021 7.91712C11.9645 7.19181 11.0147 6.74837 10.0844 6.61236L14.6827 0.532625H18.1296Z" stroke="white"/>
<path d="M12.8972 9.26529C14.4996 10.7181 16.2201 13.0295 18.0496 16.528H14.6155L10.0602 10.5654C11.0122 10.4415 11.9597 9.98327 12.8972 9.26529ZM6.20023 9.25686C7.16307 10.0293 8.15459 10.4831 9.14282 10.5798L4.55782 16.6767L1.38099 16.6567C3.05752 13.1711 4.6672 10.7188 6.20023 9.25686Z" stroke="white"/>
</g>
</svg>
