<svg width="30" height="30" viewBox="0 0 30 30" fill="none" xmlns="http://www.w3.org/2000/svg">
<g id="9104213_close_cross_remove_delete_icon (31) 1">
<g id="_icons">
<path id="Vector" d="M6.625 23.375C6.875 23.625 7.125 23.75 7.5 23.75C7.875 23.75 8.125 23.625 8.375 23.375L15 16.75L21.625 23.375C21.875 23.625 22.25 23.75 22.5 23.75C22.75 23.75 23.125 23.625 23.375 23.375C23.875 22.875 23.875 22.125 23.375 21.625L16.75 15L23.375 8.375C23.875 7.875 23.875 7.125 23.375 6.625C22.875 6.125 22.125 6.125 21.625 6.625L15 13.25L8.375 6.625C7.875 6.125 7.125 6.125 6.625 6.625C6.125 7.125 6.125 7.875 6.625 8.375L13.25 15L6.625 21.625C6.125 22.125 6.125 22.875 6.625 23.375Z" fill="white"/>
</g>
</g>
</svg>
