<svg width="46" height="46" viewBox="0 0 46 46" fill="none" xmlns="http://www.w3.org/2000/svg">
<ellipse cx="23" cy="22.7579" rx="23" ry="22.7579" fill="white" fill-opacity="0.07"/>
<path fillRule="evenodd" clip-rule="evenodd" d="M20.935 25.3129L20.9342 19.7792L26.3383 22.5554L20.935 25.3129ZM32.8 18.8201C32.8 18.8201 32.6042 17.4634 32.005 16.8653C31.2442 16.0806 30.3921 16.0769 30.0012 16.0313C27.2025 15.832 23.0046 15.832 23.0046 15.832H22.9954C22.9954 15.832 18.7975 15.832 15.9987 16.0317C15.6075 16.0769 14.7558 16.0806 13.9946 16.8653C13.395 17.463 13.2 18.8201 13.2 18.8201C13.2 18.8201 13 20.4144 13 22.0079V23.5023C13 25.0962 13.2 26.6896 13.2 26.6896C13.2 26.6896 13.395 28.0468 13.9946 28.6445C14.7558 29.4292 15.755 29.4048 16.2 29.4867C17.8 29.6378 23 29.6847 23 29.6847C23 29.6847 27.2025 29.6786 30.0012 29.4789C30.3921 29.4329 31.2442 29.4292 32.005 28.6445C32.6046 28.0468 32.8 26.6896 32.8 26.6896C32.8 26.6896 33 25.0966 33 23.5023V22.0079C33 20.4144 32.8 18.8201 32.8 18.8201Z" fill="white"/>
</svg>
