<svg width="20" height="15" viewBox="0 0 20 15" fill="none" xmlns="http://www.w3.org/2000/svg">
<path fillRule="evenodd" clip-rule="evenodd" d="M7.935 10.3125L7.93417 4.77879L13.3383 7.55502L7.935 10.3125ZM19.8 3.8197C19.8 3.8197 19.6042 2.46296 19.005 1.86485C18.2442 1.08014 17.3921 1.07647 17.0012 1.03084C14.2025 0.831604 10.0046 0.831604 10.0046 0.831604H9.99542C9.99542 0.831604 5.7975 0.831604 2.99875 1.03124C2.6075 1.07647 1.75583 1.08014 0.994583 1.86485C0.395 2.46255 0.2 3.8197 0.2 3.8197C0.2 3.8197 0 5.41397 0 7.00743V8.50189C0 10.0958 0.2 11.6892 0.2 11.6892C0.2 11.6892 0.395 13.0464 0.994583 13.6441C1.75583 14.4288 2.755 14.4043 3.2 14.4862C4.8 14.6374 10 14.6842 10 14.6842C10 14.6842 14.2025 14.6781 17.0012 14.4785C17.3921 14.4324 18.2442 14.4288 19.005 13.6441C19.6046 13.0464 19.8 11.6892 19.8 11.6892C19.8 11.6892 20 10.0962 20 8.50189V7.00743C20 5.41397 19.8 3.8197 19.8 3.8197Z" fill="#0A22A8"/>
</svg>
